<?xml version="1.0" encoding="UTF-8"?>
<svg id="Layer_1" data-name="Layer 1" xmlns="http://www.w3.org/2000/svg" xmlns:xlink="http://www.w3.org/1999/xlink" viewBox="0 0 620 302.23">
  <defs>
    <style>
      .cls-1, .cls-2 {
        fill: none;
      }

      .cls-3 {
        clip-path: url(#clippath);
      }

      .cls-4 {
        fill: #fff;
      }

      .cls-5 {
        fill: #999;
      }

      .cls-6 {
        fill: #333;
      }

      .cls-7 {
        fill: #108aa0;
      }

      .cls-8 {
        fill: url(#New_Pattern_6);
        stroke: #108aa0;
      }

      .cls-8, .cls-2 {
        stroke-miterlimit: 10;
      }

      .cls-2 {
        stroke: #64b3c1;
        stroke-width: 2px;
      }
    </style>
    <clipPath id="clippath">
      <rect class="cls-1" x="0" y="0" width="32" height="32"/>
    </clipPath>
    <pattern id="New_Pattern_6" data-name="New Pattern 6" x="0" y="0" width="32" height="32" patternTransform="translate(-5538.89 659)" patternUnits="userSpaceOnUse" viewBox="0 0 32 32">
      <g>
        <rect class="cls-1" width="32" height="32"/>
        <g class="cls-3">
          <g>
            <line class="cls-2" x1="75.83" y1="-11.83" x2="18.95" y2="45.05"/>
            <line class="cls-2" x1="67.83" y1="-11.83" x2="10.95" y2="45.05"/>
            <line class="cls-2" x1="59.83" y1="-11.83" x2="2.95" y2="45.05"/>
            <line class="cls-2" x1="51.83" y1="-11.83" x2="-5.05" y2="45.05"/>
            <line class="cls-2" x1="43.83" y1="-11.83" x2="-13.05" y2="45.05"/>
            <line class="cls-2" x1="35.83" y1="-11.83" x2="-21.05" y2="45.05"/>
            <line class="cls-2" x1="27.83" y1="-11.83" x2="-29.05" y2="45.05"/>
            <line class="cls-2" x1="19.83" y1="-11.83" x2="-37.05" y2="45.05"/>
            <line class="cls-2" x1="11.83" y1="-11.83" x2="-45.05" y2="45.05"/>
          </g>
        </g>
      </g>
    </pattern>
  </defs>
  <rect class="cls-4" x="-756.04" y="-80.1" width="2187.59" height="1119.12"/>
  <g>
    <path d="M6.23,21.61c0,1.33-.31,2.34-.95,3.01-.63,.68-1.53,1.21-2.71,1.59l-.63-1.71c.53-.2,.93-.44,1.2-.69,.27-.26,.45-.56,.55-.92,.1-.35,.14-.81,.14-1.38V10.99h2.39v10.62Z"/>
    <path d="M16.21,21.73c.12,.17,.3,.31,.55,.41l-.48,1.53c-.54-.05-.98-.18-1.32-.4-.34-.22-.6-.55-.78-.99-.32,.48-.73,.84-1.21,1.07s-1.03,.35-1.63,.35c-.95,0-1.7-.27-2.25-.81-.55-.54-.83-1.25-.83-2.12,0-1.03,.38-1.82,1.12-2.37,.75-.55,1.82-.82,3.21-.82h1.19v-.54c0-.61-.14-1.04-.42-1.29s-.73-.37-1.36-.37c-.7,0-1.54,.17-2.52,.5l-.54-1.57c1.19-.46,2.34-.68,3.46-.68,2.44,0,3.65,1.09,3.65,3.28v4c0,.37,.06,.65,.17,.82Zm-2.44-.87v-1.93h-.96c-1.49,0-2.23,.55-2.23,1.66,0,.46,.12,.81,.34,1.06,.23,.25,.56,.38,1.01,.38,.78,0,1.39-.39,1.84-1.17Z"/>
    <path d="M21.13,9.84v13.59h-2.3V10.09l2.3-.25Zm5.71,4.07l-3.17,4.19,3.47,5.33h-2.65l-3.28-5.2,3.19-4.32h2.43Z"/>
    <path d="M40.95,10.09v13.34h-2.04l-.16-1.21c-.3,.46-.68,.82-1.14,1.08-.46,.26-.99,.4-1.57,.4-1.16,0-2.06-.45-2.68-1.35-.62-.9-.94-2.12-.94-3.67,0-.97,.16-1.84,.47-2.6,.31-.76,.76-1.36,1.34-1.79s1.26-.65,2.03-.65c.91,0,1.71,.34,2.39,1.03v-4.82l2.3,.25Zm-3.19,11.56c.31-.2,.61-.51,.88-.93v-4.36c-.28-.34-.55-.59-.84-.76-.28-.17-.61-.25-.98-.25-.61,0-1.1,.27-1.45,.82-.35,.55-.53,1.37-.53,2.48,0,1.18,.16,2.02,.47,2.53,.31,.51,.77,.77,1.37,.77,.41,0,.77-.1,1.08-.3Z"/>
    <path d="M44.26,23.06c-.41-.43-.62-1.03-.62-1.81V10.09l2.3-.25v11.34c0,.44,.18,.67,.54,.67,.18,0,.36-.03,.54-.09l.49,1.62c-.48,.22-.99,.32-1.53,.32-.73,0-1.3-.21-1.72-.64Z"/>
    <path d="M56.12,14.98c.79,.89,1.18,2.12,1.18,3.68,0,1-.18,1.88-.54,2.64s-.88,1.35-1.55,1.77c-.67,.42-1.47,.63-2.39,.63-1.4,0-2.5-.45-3.29-1.34-.79-.89-1.19-2.13-1.19-3.7,0-1,.18-1.87,.54-2.63,.36-.76,.88-1.34,1.56-1.76,.68-.42,1.48-.63,2.4-.63,1.4,0,2.5,.45,3.29,1.34Zm-5.36,3.68c0,1.13,.17,1.96,.51,2.49s.86,.8,1.54,.8,1.2-.27,1.54-.81,.51-1.37,.51-2.48-.17-1.94-.51-2.48c-.34-.53-.85-.8-1.52-.8-1.38,0-2.07,1.09-2.07,3.28Z"/>
    <path d="M67.07,23.43h-2l-.13-1.33c-.35,.54-.76,.94-1.23,1.21s-1.04,.4-1.68,.4c-.85,0-1.51-.26-1.97-.78-.46-.52-.69-1.24-.69-2.17v-6.84h2.3v6.55c0,.54,.09,.92,.28,1.15,.19,.23,.48,.34,.89,.34,.73,0,1.37-.45,1.93-1.35v-6.7h2.3v9.52Z"/>
    <path d="M76.9,14.41c.48,.52,.72,1.22,.72,2.12v6.89h-2.3v-6.53c0-.56-.1-.96-.3-1.19-.2-.23-.49-.34-.87-.34s-.74,.12-1.06,.37-.63,.6-.94,1.05v6.64h-2.3V10.11l2.3-.23v5.17c.77-.94,1.69-1.4,2.77-1.4,.84,0,1.5,.26,1.98,.77Z"/>
    <path d="M87.47,14.98c.79,.89,1.18,2.12,1.18,3.68,0,1-.18,1.88-.54,2.64-.36,.76-.88,1.35-1.55,1.77s-1.47,.63-2.39,.63c-1.4,0-2.5-.45-3.29-1.34-.79-.89-1.19-2.13-1.19-3.7,0-1,.18-1.87,.54-2.63s.88-1.34,1.56-1.76c.68-.42,1.48-.63,2.4-.63,1.4,0,2.5,.45,3.28,1.34Zm-5.35,3.68c0,1.13,.17,1.96,.51,2.49s.86,.8,1.54,.8,1.2-.27,1.54-.81,.51-1.37,.51-2.48-.17-1.94-.51-2.48c-.34-.53-.85-.8-1.52-.8-1.38,0-2.07,1.09-2.07,3.28Z"/>
    <path d="M100.77,22.98c-.34,.24-.71,.42-1.12,.54-.41,.12-.84,.18-1.27,.18-.94-.01-1.65-.28-2.13-.8-.49-.52-.73-1.29-.73-2.31v-5.02h-1.49v-1.66h1.49v-2.11l2.3-.27v2.38h2.21l-.23,1.66h-1.98v4.97c0,.47,.08,.8,.24,1.01,.16,.2,.42,.31,.77,.31s.73-.11,1.13-.34l.81,1.48Z"/>
    <path d="M107.71,13.78l-.4,2.23c-.29-.07-.57-.11-.85-.11-.56,0-1.01,.2-1.33,.6s-.58,1.02-.77,1.84v5.08h-2.3V13.91h2l.21,1.87c.23-.68,.56-1.21,.99-1.58,.43-.37,.93-.55,1.49-.55,.35,0,.67,.04,.96,.13Z"/>
    <path d="M116.8,13.91l-3.1,9.52h-2.76l-3.15-9.52h2.5l2.03,7.67,2.09-7.67h2.38Z"/>
    <path d="M125.09,21.73c.11,.17,.3,.31,.55,.41l-.49,1.53c-.54-.05-.98-.18-1.32-.4-.34-.22-.6-.55-.78-.99-.32,.48-.73,.84-1.21,1.07s-1.03,.35-1.63,.35c-.95,0-1.7-.27-2.25-.81-.55-.54-.83-1.25-.83-2.12,0-1.03,.38-1.82,1.12-2.37,.75-.55,1.82-.82,3.21-.82h1.19v-.54c0-.61-.14-1.04-.42-1.29-.28-.25-.74-.37-1.36-.37-.7,0-1.54,.17-2.52,.5l-.54-1.57c1.19-.46,2.34-.68,3.46-.68,2.44,0,3.65,1.09,3.65,3.28v4c0,.37,.06,.65,.17,.82Zm-2.44-.87v-1.93h-.95c-1.49,0-2.23,.55-2.23,1.66,0,.46,.11,.81,.34,1.06,.23,.25,.56,.38,1.01,.38,.78,0,1.39-.39,1.84-1.17Z"/>
    <path d="M129.82,22.58c0,.94-.13,1.7-.41,2.3-.27,.59-.65,1.07-1.14,1.43-.49,.36-1.13,.7-1.93,1.03l-.74-1.67c.47-.22,.83-.43,1.1-.64,.27-.21,.46-.49,.6-.85,.14-.36,.21-.84,.21-1.44V13.91h2.3v8.68Zm-.12-13.09c.27,.27,.4,.6,.4,1s-.13,.73-.4,.99c-.27,.26-.62,.4-1.05,.4s-.77-.13-1.04-.4c-.27-.26-.41-.59-.41-.99s.14-.73,.41-1,.62-.41,1.04-.41,.78,.14,1.05,.41Z"/>
    <path d="M135.4,8.67l.94,1.8-4.07,1.62-.65-1.17,3.78-2.25Zm-.22,5.24v9.52h-2.3V13.91h2.3Z"/>
    <path d="M150.05,14.95c.57,.88,.86,2.11,.86,3.69,0,.98-.15,1.86-.44,2.62-.29,.76-.73,1.36-1.29,1.79-.57,.43-1.25,.65-2.03,.65-1.01,0-1.81-.35-2.39-1.04v4.45l-2.3,.25V13.91h2.02l.12,1.17c.37-.48,.8-.84,1.28-1.08,.48-.24,.98-.36,1.51-.36,1.2,0,2.09,.44,2.66,1.31Zm-1.55,3.71c0-1.16-.15-2-.45-2.52-.3-.52-.75-.77-1.35-.77-.38,0-.74,.12-1.08,.35s-.62,.55-.86,.94v4.28c.44,.66,1.03,.99,1.75,.99,1.33,0,2-1.09,2-3.28Z"/>
    <path d="M160.35,14.98c.79,.89,1.18,2.12,1.18,3.68,0,1-.18,1.88-.54,2.64-.36,.76-.88,1.35-1.55,1.77s-1.47,.63-2.39,.63c-1.4,0-2.5-.45-3.29-1.34-.79-.89-1.19-2.13-1.19-3.7,0-1,.18-1.87,.54-2.63s.88-1.34,1.56-1.76c.68-.42,1.48-.63,2.4-.63,1.4,0,2.5,.45,3.28,1.34Zm-5.35,3.68c0,1.13,.17,1.96,.51,2.49s.86,.8,1.54,.8,1.2-.27,1.54-.81,.51-1.37,.51-2.48-.17-1.94-.51-2.48c-.34-.53-.85-.8-1.52-.8-1.38,0-2.07,1.09-2.07,3.28Z"/>
    <path d="M170.08,14.77l-.9,1.35c-.82-.52-1.62-.77-2.39-.77-.46,0-.81,.09-1.06,.26s-.38,.4-.38,.69c0,.22,.05,.4,.16,.54,.11,.14,.3,.28,.58,.4,.28,.13,.7,.27,1.25,.42,1.03,.28,1.8,.64,2.29,1.1,.5,.46,.75,1.09,.75,1.91,0,.95-.38,1.69-1.15,2.22-.77,.53-1.72,.8-2.86,.8-.78,0-1.49-.12-2.13-.36-.64-.24-1.2-.57-1.67-.99l1.15-1.3c.83,.62,1.69,.94,2.59,.94,.52,0,.93-.1,1.23-.31,.3-.2,.46-.49,.46-.85,0-.28-.06-.5-.17-.66s-.32-.31-.61-.43c-.29-.13-.75-.28-1.38-.46-.97-.26-1.69-.63-2.14-1.11-.46-.47-.68-1.06-.68-1.77,0-.53,.15-1,.46-1.42s.74-.75,1.29-.99c.56-.24,1.2-.36,1.92-.36,1.28,0,2.41,.38,3.38,1.13Z"/>
    <path d="M179.87,23.43h-2l-.12-1.33c-.35,.54-.76,.94-1.23,1.21-.47,.26-1.03,.4-1.68,.4-.85,0-1.51-.26-1.97-.78-.46-.52-.69-1.24-.69-2.17v-6.84h2.3v6.55c0,.54,.09,.92,.28,1.15s.48,.34,.89,.34c.73,0,1.38-.45,1.93-1.35v-6.7h2.3v9.52Z"/>
    <path d="M190.66,10.09v13.34h-2.04l-.16-1.21c-.3,.46-.68,.82-1.14,1.08-.46,.26-.99,.4-1.57,.4-1.16,0-2.06-.45-2.68-1.35-.62-.9-.94-2.12-.94-3.67,0-.97,.16-1.84,.47-2.6,.31-.76,.76-1.36,1.34-1.79s1.26-.65,2.03-.65c.91,0,1.71,.34,2.39,1.03v-4.82l2.3,.25Zm-3.19,11.56c.31-.2,.61-.51,.88-.93v-4.36c-.28-.34-.55-.59-.84-.76-.28-.17-.61-.25-.98-.25-.61,0-1.1,.27-1.45,.82-.35,.55-.53,1.37-.53,2.48,0,1.18,.16,2.02,.47,2.53,.31,.51,.77,.77,1.37,.77,.41,0,.77-.1,1.08-.3Z"/>
    <path d="M195.73,9.84v13.59h-2.3V10.09l2.3-.25Zm5.71,4.07l-3.17,4.19,3.47,5.33h-2.65l-3.28-5.2,3.19-4.32h2.43Z"/>
    <path d="M210.02,14.98c.79,.89,1.18,2.12,1.18,3.68,0,1-.18,1.88-.54,2.64-.36,.76-.88,1.35-1.55,1.77s-1.47,.63-2.39,.63c-1.4,0-2.5-.45-3.29-1.34-.79-.89-1.19-2.13-1.19-3.7,0-1,.18-1.87,.54-2.63s.88-1.34,1.56-1.76c.68-.42,1.48-.63,2.4-.63,1.4,0,2.5,.45,3.28,1.34Zm-5.35,3.68c0,1.13,.17,1.96,.51,2.49s.86,.8,1.54,.8,1.2-.27,1.54-.81,.51-1.37,.51-2.48-.17-1.94-.51-2.48c-.34-.53-.85-.8-1.52-.8-1.38,0-2.07,1.09-2.07,3.28Z"/>
    <path d="M220.9,13.91l-3.1,9.52h-2.76l-3.15-9.52h2.5l2.03,7.67,2.09-7.67h2.38Z"/>
    <path d="M229.18,21.73c.12,.17,.3,.31,.55,.41l-.48,1.53c-.54-.05-.98-.18-1.32-.4-.34-.22-.6-.55-.78-.99-.32,.48-.73,.84-1.21,1.07s-1.03,.35-1.63,.35c-.95,0-1.7-.27-2.25-.81-.55-.54-.83-1.25-.83-2.12,0-1.03,.38-1.82,1.12-2.37,.75-.55,1.82-.82,3.21-.82h1.19v-.54c0-.61-.14-1.04-.42-1.29s-.73-.37-1.36-.37c-.7,0-1.54,.17-2.52,.5l-.54-1.57c1.19-.46,2.34-.68,3.46-.68,2.44,0,3.65,1.09,3.65,3.28v4c0,.37,.06,.65,.17,.82Zm-2.44-13.06l.94,1.8-4.07,1.62-.65-1.17,3.78-2.25Zm0,12.19v-1.93h-.96c-1.49,0-2.23,.55-2.23,1.66,0,.46,.12,.81,.34,1.06,.23,.25,.56,.38,1.01,.38,.78,0,1.39-.39,1.84-1.17Z"/>
    <path d="M241.51,9.03l.88,1.01-2.5,2.25h-1.44l-2.5-2.25,.88-1.01,2.34,1.58,2.34-1.58Zm.45,4.75l-.4,2.23c-.29-.07-.57-.11-.85-.11-.56,0-1.01,.2-1.33,.6s-.58,1.02-.77,1.84v5.08h-2.3V13.91h2l.22,1.87c.23-.68,.56-1.21,.99-1.58,.43-.37,.93-.55,1.49-.55,.35,0,.67,.04,.95,.13Z"/>
    <path d="M245.92,8.67l.94,1.8-4.07,1.62-.65-1.17,3.78-2.25Zm-.22,5.24v9.52h-2.3V13.91h2.3Z"/>
    <path d="M254.67,13.91v1.66l-4.61,6.07h4.7l-.23,1.8h-7.11v-1.66l4.62-6.07h-4.23v-1.8h6.86Z"/>
    <path d="M264.17,19.38h-5.97c.07,.92,.31,1.58,.72,1.98s.95,.59,1.62,.59c.42,0,.82-.07,1.19-.21,.37-.14,.77-.35,1.19-.64l.96,1.31c-1.06,.85-2.23,1.28-3.53,1.28-1.45,0-2.57-.44-3.36-1.33-.79-.89-1.18-2.1-1.18-3.64,0-.97,.17-1.84,.5-2.62s.82-1.38,1.46-1.82c.63-.44,1.39-.66,2.27-.66,1.33,0,2.36,.42,3.1,1.27s1.1,2.02,1.1,3.54c0,.12-.02,.43-.05,.94Zm-2.23-1.6c0-1.67-.62-2.5-1.86-2.5-.56,0-1,.21-1.32,.62-.32,.41-.51,1.08-.57,1.99h3.74v-.11Z"/>
    <path d="M273.36,14.4c.47,.51,.71,1.22,.71,2.13v6.89h-2.3v-6.53c0-.56-.1-.96-.3-1.19-.2-.23-.49-.34-.87-.34s-.75,.12-1.07,.37-.63,.6-.93,1.07v6.62h-2.3V13.91h2l.18,1.24c.78-1.01,1.75-1.51,2.9-1.51,.85,0,1.51,.25,1.99,.77Z"/>
    <path d="M279.27,8.67l.94,1.8-4.07,1.62-.65-1.17,3.78-2.25Zm-.22,5.24v9.52h-2.3V13.91h2.3Z"/>
  </g>
  <g>
    <path d="M8.89,40.32c.65,.51,.98,1.28,.98,2.32,0,1.1-.34,1.91-1.03,2.42-.69,.52-1.62,.77-2.81,.77h-1.47v4h-.9v-10.27h2.42c1.22,0,2.16,.25,2.81,.76Zm-.71,4.22c.5-.37,.75-1,.75-1.89,0-.84-.24-1.44-.73-1.81-.48-.36-1.2-.55-2.14-.55h-1.5v4.8h1.47c.93,0,1.64-.18,2.14-.55Z"/>
    <path d="M15.66,41.92l-.17,.82c-.22-.06-.45-.09-.69-.09-.53,0-.96,.19-1.28,.58s-.6,.99-.82,1.81v4.8h-.87v-7.85h.75l.08,1.76c.21-.65,.5-1.13,.86-1.45s.82-.47,1.36-.47c.31,0,.57,.03,.78,.09Z"/>
    <path d="M22.94,49.84h-.75l-.04-1.4c-.62,1.04-1.47,1.56-2.56,1.56-.71,0-1.26-.21-1.64-.62-.39-.42-.58-1.01-.58-1.78v-5.61h.87v5.52c0,.61,.13,1.06,.38,1.34s.64,.43,1.16,.43c.91,0,1.67-.53,2.29-1.6v-5.69h.87v7.85Zm-1.73-11.92c.28,.27,.41,.6,.41,1.01s-.14,.75-.41,1.01c-.28,.27-.63,.4-1.06,.4s-.8-.13-1.07-.4c-.28-.26-.41-.6-.41-1.01s.14-.75,.41-1.01c.28-.26,.63-.4,1.07-.4s.78,.13,1.06,.4Zm-1.68,.38c-.15,.16-.22,.37-.22,.64s.07,.49,.22,.65c.14,.15,.35,.22,.62,.22s.46-.07,.61-.22c.15-.15,.22-.37,.22-.65s-.07-.48-.22-.64c-.14-.15-.35-.23-.61-.23s-.48,.08-.62,.23Z"/>
    <path d="M35.26,42.47c.37,.43,.55,1.02,.55,1.76v5.61h-.87v-5.49c0-.62-.12-1.08-.35-1.37-.24-.29-.56-.44-.98-.44-.44,0-.83,.14-1.19,.42-.35,.28-.69,.68-1.02,1.2v5.69h-.87v-5.49c0-.62-.12-1.08-.35-1.37s-.56-.44-.98-.44c-.45,0-.85,.14-1.2,.42-.35,.28-.68,.68-1,1.2v5.69h-.87v-7.85h.75l.08,1.34c.3-.47,.66-.84,1.07-1.1,.41-.27,.86-.4,1.35-.4s.92,.14,1.26,.41c.34,.28,.57,.66,.69,1.15,.31-.49,.67-.87,1.09-1.15,.42-.27,.87-.41,1.37-.41,.63,0,1.13,.21,1.49,.64Z"/>
    <path d="M44.45,46.25h-5.24c.05,1.02,.29,1.78,.73,2.27,.44,.5,1.01,.74,1.72,.74,.41,0,.77-.06,1.09-.19,.31-.12,.66-.32,1.03-.59l.41,.56c-.39,.32-.79,.56-1.2,.72-.41,.16-.87,.24-1.37,.24-1.04,0-1.86-.35-2.45-1.06s-.88-1.7-.88-2.96c0-.83,.13-1.56,.38-2.18,.25-.62,.62-1.11,1.09-1.46,.47-.34,1.03-.52,1.66-.52,1,0,1.76,.34,2.28,1.01,.52,.68,.78,1.6,.78,2.78,0,.22-.01,.43-.03,.63Zm-.83-.9c0-.88-.18-1.57-.55-2.06-.37-.5-.91-.74-1.63-.74-.65,0-1.17,.25-1.58,.75-.4,.5-.62,1.26-.66,2.28h4.41v-.23Zm-.34-7.05l.39,.45-1.93,1.59h-.54l-1.95-1.59,.39-.45,1.83,1.26,1.82-1.26Z"/>
    <path d="M50.78,41.92l-.17,.82c-.22-.06-.45-.09-.69-.09-.53,0-.96,.19-1.28,.58s-.6,.99-.82,1.81v4.8h-.87v-7.85h.75l.08,1.76c.21-.65,.5-1.13,.86-1.45s.82-.47,1.36-.47c.31,0,.57,.03,.78,.09Z"/>
    <path d="M57.64,42.46c.38,.42,.56,1.01,.56,1.77v5.61h-.87v-5.49c0-.63-.12-1.09-.38-1.38s-.62-.44-1.11-.44-.94,.14-1.33,.41c-.38,.28-.75,.68-1.1,1.21v5.69h-.87v-7.85h.75l.09,1.34c.32-.47,.7-.84,1.14-1.1,.44-.27,.93-.4,1.48-.4,.71,0,1.25,.21,1.63,.63Z"/>
    <path d="M66.34,48.98c.11,.18,.27,.31,.5,.4l-.2,.62c-.36-.07-.64-.21-.83-.41-.2-.2-.32-.5-.38-.91-.54,.88-1.36,1.32-2.45,1.32-.75,0-1.34-.21-1.78-.64-.43-.42-.65-.99-.65-1.7,0-.81,.29-1.44,.86-1.88s1.37-.66,2.39-.66h1.5v-.77c0-.63-.14-1.09-.42-1.37-.28-.28-.75-.43-1.39-.43-.6,0-1.31,.15-2.13,.45l-.23-.66c.88-.35,1.71-.52,2.48-.52,1.71,0,2.56,.83,2.56,2.49v3.78c0,.41,.05,.71,.16,.89Zm-1.03-1.06v-2.16h-1.36c-.8,0-1.41,.16-1.83,.46-.42,.31-.63,.78-.63,1.4,0,.54,.15,.96,.44,1.25s.7,.44,1.21,.44c.94,0,1.67-.46,2.17-1.38Zm-.6-9.81l.39,.78-2.92,1.28-.29-.51,2.82-1.54Z"/>
    <path d="M79.13,38.8v11.04h-.75l-.1-1.2c-.54,.91-1.33,1.37-2.36,1.37-.91,0-1.63-.36-2.15-1.09-.52-.73-.79-1.71-.79-2.96,0-.81,.12-1.52,.37-2.15s.6-1.1,1.07-1.46,1.01-.52,1.64-.52c.89,0,1.62,.35,2.21,1.06v-4.2l.87,.1Zm-1.81,10.12c.34-.24,.66-.6,.94-1.09v-4.1c-.56-.79-1.25-1.19-2.06-1.19-.71,0-1.27,.29-1.69,.89-.42,.59-.62,1.42-.61,2.5,0,1.08,.19,1.91,.57,2.48,.38,.58,.9,.86,1.58,.86,.5,0,.92-.12,1.27-.36Z"/>
    <path d="M87.45,42.9c.58,.71,.88,1.71,.88,2.99s-.3,2.27-.89,3.01c-.6,.73-1.41,1.1-2.44,1.1s-1.85-.36-2.44-1.09-.88-1.72-.88-2.99c0-.83,.13-1.55,.41-2.17,.27-.62,.65-1.1,1.15-1.43s1.09-.49,1.77-.49c1.04,0,1.85,.36,2.44,1.07Zm-4.21,.52c-.42,.57-.63,1.4-.63,2.5s.21,1.92,.62,2.49c.42,.57,1,.85,1.76,.85s1.35-.29,1.78-.85c.42-.57,.64-1.41,.64-2.52s-.21-1.92-.62-2.48c-.42-.56-1.01-.85-1.78-.85s-1.35,.28-1.77,.85Z"/>
    <path d="M96.21,42.88c.5,.7,.75,1.7,.75,3s-.26,2.27-.79,3.02c-.53,.74-1.26,1.11-2.2,1.11-.47,0-.9-.1-1.28-.31s-.71-.49-.97-.84l-.09,.99h-.77v-11.04l.87-.1v4.4c.62-.84,1.41-1.26,2.36-1.26s1.61,.35,2.11,1.05Zm-.76,5.54c.38-.57,.58-1.42,.58-2.54,0-2.22-.71-3.33-2.12-3.33-.47,0-.88,.12-1.21,.35s-.66,.57-.96,1v4.12c.25,.39,.55,.7,.9,.92,.35,.23,.74,.34,1.17,.34,.71,0,1.26-.29,1.64-.86Z"/>
    <path d="M104.47,48.98c.11,.18,.27,.31,.5,.4l-.2,.62c-.36-.07-.64-.21-.83-.41-.2-.2-.32-.5-.38-.91-.54,.88-1.36,1.32-2.45,1.32-.75,0-1.34-.21-1.78-.64-.43-.42-.65-.99-.65-1.7,0-.81,.29-1.44,.86-1.88s1.37-.66,2.39-.66h1.5v-.77c0-.63-.14-1.09-.42-1.37-.28-.28-.75-.43-1.39-.43-.6,0-1.31,.15-2.13,.45l-.23-.66c.88-.35,1.71-.52,2.48-.52,1.71,0,2.56,.83,2.56,2.49v3.78c0,.41,.05,.71,.16,.89Zm-1.03-1.06v-2.16h-1.36c-.8,0-1.41,.16-1.83,.46-.42,.31-.63,.78-.63,1.4,0,.54,.15,.96,.44,1.25s.7,.44,1.21,.44c.94,0,1.67-.46,2.17-1.38Z"/>
    <path d="M116.9,41.99l-2.71,7.85h-1.08l-2.81-7.85h.96l2.39,7.08,2.32-7.08h.93Z"/>
    <path d="M121.22,49.87c-.21,.61-.44,1.11-.69,1.5-.25,.39-.58,.71-.98,.97-.4,.25-.92,.44-1.54,.56l-.09-.68c.52-.13,.93-.29,1.22-.48s.53-.43,.71-.71c.17-.28,.35-.68,.53-1.19h-.3l-2.73-7.85h.95l2.37,7.2,2.33-7.2h.92l-2.69,7.88Z"/>
    <path d="M129.45,38.3l.39,.45-1.94,1.59h-.54l-1.95-1.59,.39-.45,1.83,1.26,1.81-1.26Zm.11,3.62l-.17,.82c-.22-.06-.45-.09-.69-.09-.53,0-.96,.19-1.28,.58s-.6,.99-.82,1.81v4.8h-.87v-7.85h.75l.08,1.76c.21-.65,.5-1.13,.86-1.45s.82-.47,1.36-.47c.31,0,.57,.03,.78,.09Z"/>
    <path d="M132.89,38.11l.39,.78-2.92,1.28-.29-.51,2.82-1.54Zm-.69,3.88v7.85h-.87v-7.85h.87Z"/>
    <path d="M139.61,41.99v.68l-4.38,6.42h4.35l-.09,.75h-5.28v-.67l4.38-6.42h-4.02v-.75h5.04Z"/>
    <path d="M147.15,46.25h-5.24c.05,1.02,.29,1.78,.73,2.27,.44,.5,1.01,.74,1.72,.74,.41,0,.77-.06,1.09-.19,.31-.12,.66-.32,1.03-.59l.41,.56c-.39,.32-.79,.56-1.2,.72-.41,.16-.87,.24-1.37,.24-1.04,0-1.86-.35-2.45-1.06s-.88-1.7-.88-2.96c0-.83,.13-1.56,.38-2.18,.25-.62,.62-1.11,1.09-1.46,.47-.34,1.03-.52,1.66-.52,1,0,1.76,.34,2.28,1.01,.52,.68,.78,1.6,.78,2.78,0,.22-.01,.43-.03,.63Zm-.83-.9c0-.88-.18-1.57-.55-2.06-.37-.5-.91-.74-1.63-.74-.65,0-1.17,.25-1.58,.75-.4,.5-.62,1.26-.66,2.28h4.41v-.23Z"/>
    <path d="M154.75,42.46c.38,.42,.56,1.01,.56,1.77v5.61h-.87v-5.49c0-.63-.12-1.09-.38-1.38s-.62-.44-1.11-.44-.94,.14-1.33,.41c-.38,.28-.75,.68-1.1,1.21v5.69h-.87v-7.85h.75l.09,1.34c.32-.47,.7-.84,1.14-1.1,.44-.27,.93-.4,1.48-.4,.71,0,1.25,.21,1.63,.63Z"/>
    <path d="M159.98,38.11l.39,.78-2.92,1.28-.29-.51,2.82-1.54Zm-.69,3.88v7.85h-.87v-7.85h.87Z"/>
    <path d="M170.88,41.99v.68l-4.38,6.42h4.35l-.09,.75h-5.28v-.67l4.38-6.42h-4.02v-.75h5.04Zm-.77-3.69l.39,.45-1.94,1.59h-.54l-1.95-1.59,.39-.45,1.83,1.26,1.81-1.26Z"/>
    <path d="M177.79,48.98c.11,.18,.27,.31,.5,.4l-.2,.62c-.36-.07-.64-.21-.83-.41-.2-.2-.32-.5-.38-.91-.54,.88-1.36,1.32-2.45,1.32-.75,0-1.34-.21-1.78-.64-.43-.42-.65-.99-.65-1.7,0-.81,.29-1.44,.86-1.88s1.37-.66,2.39-.66h1.5v-.77c0-.63-.14-1.09-.42-1.37-.28-.28-.75-.43-1.39-.43-.6,0-1.31,.15-2.13,.45l-.23-.66c.88-.35,1.71-.52,2.48-.52,1.71,0,2.56,.83,2.56,2.49v3.78c0,.41,.05,.71,.16,.89Zm-1.03-1.06v-2.16h-1.36c-.8,0-1.41,.16-1.83,.46-.42,.31-.63,.78-.63,1.4,0,.54,.15,.96,.44,1.25s.7,.44,1.21,.44c.94,0,1.67-.46,2.17-1.38Zm-.6-9.81l.39,.78-2.92,1.28-.29-.51,2.82-1.54Z"/>
    <path d="M186.39,38.8v11.04h-.75l-.1-1.2c-.54,.91-1.33,1.37-2.36,1.37-.91,0-1.63-.36-2.15-1.09-.52-.73-.79-1.71-.79-2.96,0-.81,.12-1.52,.37-2.15s.6-1.1,1.07-1.46,1.01-.52,1.64-.52c.89,0,1.62,.35,2.21,1.06v-4.2l.87,.1Zm-1.81,10.12c.34-.24,.66-.6,.94-1.09v-4.1c-.56-.79-1.25-1.19-2.06-1.19-.71,0-1.27,.29-1.69,.89-.42,.59-.62,1.42-.61,2.5,0,1.08,.19,1.91,.57,2.48,.38,.58,.9,.86,1.58,.86,.5,0,.92-.12,1.27-.36Z"/>
    <path d="M194.71,42.9c.58,.71,.88,1.71,.88,2.99s-.3,2.27-.89,3.01c-.6,.73-1.41,1.1-2.44,1.1s-1.85-.36-2.44-1.09-.88-1.72-.88-2.99c0-.83,.13-1.55,.41-2.17,.27-.62,.65-1.1,1.15-1.43s1.09-.49,1.77-.49c1.04,0,1.85,.36,2.44,1.07Zm-4.21,.52c-.42,.57-.63,1.4-.63,2.5s.21,1.92,.62,2.49c.42,.57,1,.85,1.76,.85s1.35-.29,1.78-.85c.42-.57,.64-1.41,.64-2.52s-.21-1.92-.62-2.48c-.42-.56-1.01-.85-1.78-.85s-1.35,.28-1.77,.85Z"/>
    <path d="M201.39,42.04c.4,.15,.79,.36,1.17,.65l-.4,.57c-.36-.25-.7-.43-1.02-.55-.32-.11-.67-.17-1.05-.17-.52,0-.94,.12-1.26,.36-.32,.24-.48,.56-.48,.96s.14,.68,.41,.89c.27,.21,.77,.41,1.49,.6,.89,.23,1.53,.52,1.93,.87,.39,.35,.59,.85,.59,1.5,0,.7-.27,1.26-.81,1.67-.54,.41-1.21,.62-2.03,.62-.6,0-1.12-.09-1.57-.26-.45-.17-.86-.42-1.23-.74l.48-.56c.35,.28,.71,.49,1.07,.62,.36,.13,.78,.2,1.24,.2,.58,0,1.05-.13,1.4-.4,.36-.27,.53-.63,.53-1.1,0-.32-.06-.58-.18-.78-.12-.2-.33-.37-.62-.52-.29-.14-.71-.29-1.27-.44-.83-.22-1.43-.5-1.79-.82-.37-.33-.55-.77-.55-1.32,0-.39,.11-.74,.34-1.06,.23-.31,.54-.56,.94-.73,.39-.17,.84-.26,1.33-.26s.94,.07,1.33,.22Z"/>
    <path d="M208.67,49.51c-.5,.33-1.05,.5-1.65,.5s-1.07-.18-1.41-.53c-.34-.35-.51-.87-.51-1.54v-5.24h-1.32v-.71h1.32v-1.88l.87-.1v1.98h2.03l-.11,.71h-1.92v5.19c0,.46,.09,.8,.29,1.03,.19,.23,.48,.34,.87,.34s.8-.11,1.2-.35l.34,.6Z"/>
    <path d="M211.77,38.11l.39,.78-2.92,1.28-.29-.51,2.82-1.54Zm-.69,3.88v7.85h-.87v-7.85h.87Z"/>
    <path d="M223.68,41.99l-2.71,7.85h-1.08l-2.81-7.85h.96l2.39,7.08,2.32-7.08h.93Z"/>
    <path d="M229.97,49.63c-.25-.25-.37-.62-.37-1.11v-9.72l.87-.1v9.79c0,.51,.21,.77,.63,.77,.21,0,.39-.04,.54-.1l.24,.65c-.28,.14-.58,.21-.9,.21-.43,0-.77-.12-1.01-.38Z"/>
    <path d="M239.4,46.25h-5.24c.05,1.02,.29,1.78,.73,2.27,.44,.5,1.01,.74,1.72,.74,.41,0,.77-.06,1.09-.19,.31-.12,.66-.32,1.03-.59l.41,.56c-.39,.32-.79,.56-1.2,.72-.41,.16-.87,.24-1.37,.24-1.04,0-1.86-.35-2.45-1.06s-.88-1.7-.88-2.96c0-.83,.13-1.56,.38-2.18,.25-.62,.62-1.11,1.09-1.46,.47-.34,1.03-.52,1.66-.52,1,0,1.76,.34,2.28,1.01,.52,.68,.78,1.6,.78,2.78,0,.22-.01,.43-.03,.63Zm-.83-.9c0-.88-.18-1.57-.55-2.06-.37-.5-.91-.74-1.63-.74-.65,0-1.17,.25-1.58,.75-.4,.5-.62,1.26-.66,2.28h4.41v-.23Z"/>
    <path d="M245.48,49.51c-.5,.33-1.05,.5-1.65,.5s-1.07-.18-1.41-.53c-.34-.35-.51-.87-.51-1.54v-5.24h-1.32v-.71h1.32v-1.88l.87-.1v1.98h2.03l-.11,.71h-1.92v5.19c0,.46,.09,.8,.29,1.03,.19,.23,.48,.34,.87,.34s.8-.11,1.2-.35l.34,.6Z"/>
    <path d="M252.38,46.25h-5.24c.05,1.02,.29,1.78,.73,2.27,.44,.5,1.01,.74,1.72,.74,.41,0,.77-.06,1.09-.19,.31-.12,.66-.32,1.03-.59l.41,.56c-.39,.32-.79,.56-1.2,.72-.41,.16-.87,.24-1.37,.24-1.04,0-1.86-.35-2.45-1.06s-.88-1.7-.88-2.96c0-.83,.13-1.56,.38-2.18,.25-.62,.62-1.11,1.09-1.46,.47-.34,1.03-.52,1.66-.52,1,0,1.76,.34,2.28,1.01,.52,.68,.78,1.6,.78,2.78,0,.22-.01,.43-.03,.63Zm-.83-.9c0-.88-.18-1.57-.55-2.06-.37-.5-.91-.74-1.63-.74-.65,0-1.17,.25-1.58,.75-.4,.5-.62,1.26-.66,2.28h4.41v-.23Z"/>
    <path d="M258.77,42.01c.35,.12,.69,.33,1.02,.61l-.44,.57c-.26-.21-.53-.36-.8-.46-.28-.1-.59-.15-.94-.15-.74,0-1.33,.29-1.77,.86s-.66,1.41-.66,2.51,.22,1.91,.65,2.46c.43,.55,1.02,.82,1.76,.82,.35,0,.67-.05,.95-.17,.29-.11,.57-.27,.86-.49l.42,.58c-.66,.56-1.41,.84-2.25,.84-.67,0-1.25-.16-1.75-.48s-.89-.78-1.16-1.39c-.27-.6-.41-1.33-.41-2.17s.14-1.56,.41-2.18c.28-.62,.66-1.11,1.16-1.45s1.08-.51,1.74-.51c.45,0,.85,.06,1.2,.19Z"/>
    <path d="M267,42.46c.38,.43,.57,1.01,.57,1.76v5.61h-.87v-5.49c0-1.21-.5-1.81-1.49-1.81-.5,0-.94,.14-1.33,.41-.38,.28-.75,.68-1.1,1.21v5.69h-.87v-11.04l.87-.1v4.6c.7-.98,1.57-1.47,2.59-1.47,.7,0,1.24,.21,1.62,.64Z"/>
    <path d="M278.65,40.43c.49,.49,.74,1.12,.74,1.89,0,.65-.13,1.26-.41,1.83-.27,.57-.69,1.2-1.27,1.88-.58,.68-1.5,1.69-2.78,3.04h4.72l-.12,.77h-5.62v-.73c1.37-1.46,2.35-2.54,2.95-3.25,.59-.71,1.01-1.31,1.26-1.83s.37-1.07,.37-1.66-.17-1.06-.52-1.41c-.34-.35-.8-.52-1.37-.52-.46,0-.87,.09-1.22,.28-.36,.19-.69,.48-1.01,.85l-.6-.45c.4-.49,.83-.85,1.3-1.08,.46-.23,.99-.35,1.58-.35,.84,0,1.51,.25,2,.74Z"/>
    <path d="M286.92,41.01c.53,.88,.79,2.16,.79,3.85s-.27,2.96-.8,3.83c-.53,.88-1.31,1.31-2.33,1.31s-1.81-.44-2.34-1.31c-.53-.88-.79-2.16-.79-3.85s.26-2.97,.79-3.84c.53-.87,1.31-1.31,2.34-1.31s1.81,.44,2.34,1.31Zm-4.58,3.83c0,2.96,.75,4.44,2.24,4.44,.73,0,1.28-.36,1.66-1.08,.38-.72,.56-1.83,.56-3.35s-.19-2.63-.56-3.35-.93-1.09-1.66-1.09c-1.49,0-2.24,1.48-2.24,4.42Z"/>
    <path d="M292.67,39.86v9.98h-.87v-9.02l-2.46,1.53-.41-.65,2.99-1.85h.75Z"/>
    <path d="M300.49,39.86v.68l-3.93,9.42-.81-.27,3.84-9.09h-4.67v-.73h5.56Z"/>
    <path d="M302.06,45.52v-.75h3.98v.75h-3.98Z"/>
    <path d="M311.36,40.43c.49,.49,.74,1.12,.74,1.89,0,.65-.13,1.26-.41,1.83-.27,.57-.69,1.2-1.27,1.88-.58,.68-1.5,1.69-2.78,3.04h4.72l-.12,.77h-5.62v-.73c1.37-1.46,2.35-2.54,2.95-3.25,.59-.71,1.01-1.31,1.26-1.83s.37-1.07,.37-1.66-.17-1.06-.52-1.41c-.34-.35-.8-.52-1.37-.52-.46,0-.87,.09-1.22,.28-.36,.19-.69,.48-1.01,.85l-.6-.45c.4-.49,.83-.85,1.3-1.08,.46-.23,.99-.35,1.58-.35,.84,0,1.51,.25,2,.74Z"/>
    <path d="M319.63,41.01c.53,.88,.79,2.16,.79,3.85s-.27,2.96-.8,3.83c-.53,.88-1.31,1.31-2.33,1.31s-1.81-.44-2.34-1.31c-.53-.88-.79-2.16-.79-3.85s.26-2.97,.79-3.84c.53-.87,1.31-1.31,2.34-1.31s1.81,.44,2.34,1.31Zm-4.58,3.83c0,2.96,.75,4.44,2.24,4.44,.73,0,1.28-.36,1.66-1.08,.38-.72,.56-1.83,.56-3.35s-.19-2.63-.56-3.35-.93-1.09-1.66-1.09c-1.49,0-2.24,1.48-2.24,4.42Z"/>
    <path d="M326.59,40.43c.49,.49,.74,1.12,.74,1.89,0,.65-.13,1.26-.41,1.83-.27,.57-.69,1.2-1.27,1.88-.58,.68-1.5,1.69-2.78,3.04h4.72l-.12,.77h-5.62v-.73c1.37-1.46,2.35-2.54,2.95-3.25,.59-.71,1.01-1.31,1.26-1.83s.37-1.07,.37-1.66-.17-1.06-.52-1.41c-.34-.35-.8-.52-1.37-.52-.46,0-.87,.09-1.22,.28-.36,.19-.69,.48-1.01,.85l-.6-.45c.4-.49,.83-.85,1.3-1.08,.46-.23,.99-.35,1.58-.35,.84,0,1.51,.25,2,.74Z"/>
    <path d="M332.35,39.86v9.98h-.87v-9.02l-2.46,1.53-.41-.65,2.99-1.85h.75Z"/>
    <path d="M336.23,48.78c.13,.14,.2,.3,.2,.5,0,.21-.07,.38-.2,.52-.13,.14-.31,.2-.52,.2s-.37-.07-.51-.21c-.14-.14-.21-.31-.21-.51s.07-.37,.21-.5c.14-.13,.31-.2,.51-.2s.38,.07,.52,.2Z"/>
    <path d="M344.02,39.56v9.46h4.29l-.12,.81h-5.07v-10.27h.9Z"/>
    <path d="M355.14,42.46c.38,.43,.57,1.01,.57,1.76v5.61h-.87v-5.49c0-1.21-.5-1.81-1.49-1.81-.5,0-.94,.14-1.33,.41-.38,.28-.75,.68-1.1,1.21v5.69h-.87v-11.04l.87-.1v4.6c.7-.98,1.57-1.47,2.59-1.47,.7,0,1.24,.21,1.62,.64Z"/>
    <path d="M364.32,49.84h-.75l-.04-1.4c-.62,1.04-1.47,1.56-2.56,1.56-.71,0-1.26-.21-1.64-.62-.39-.42-.58-1.01-.58-1.78v-5.61h.87v5.52c0,.61,.13,1.06,.38,1.34s.64,.43,1.16,.43c.91,0,1.67-.53,2.29-1.6v-5.69h.87v7.85Zm-1.73-11.92c.28,.27,.41,.6,.41,1.01s-.14,.75-.41,1.01c-.28,.27-.63,.4-1.06,.4s-.8-.13-1.07-.4c-.28-.26-.41-.6-.41-1.01s.14-.75,.41-1.01c.28-.26,.63-.4,1.07-.4s.78,.13,1.06,.4Zm-1.68,.38c-.15,.16-.22,.37-.22,.64s.07,.49,.22,.65c.14,.15,.35,.22,.62,.22s.46-.07,.61-.22c.15-.15,.22-.37,.22-.65s-.07-.48-.22-.64c-.14-.15-.35-.23-.61-.23s-.48,.08-.62,.23Z"/>
    <path d="M371.07,49.51c-.5,.33-1.05,.5-1.65,.5s-1.07-.18-1.41-.53c-.34-.35-.51-.87-.51-1.54v-5.24h-1.32v-.71h1.32v-1.88l.87-.1v1.98h2.03l-.11,.71h-1.92v5.19c0,.46,.09,.8,.29,1.03,.19,.23,.48,.34,.87,.34s.8-.11,1.2-.35l.34,.6Z"/>
    <path d="M377.56,48.98c.11,.18,.27,.31,.5,.4l-.2,.62c-.36-.07-.64-.21-.83-.41-.2-.2-.32-.5-.38-.91-.54,.88-1.36,1.32-2.45,1.32-.75,0-1.34-.21-1.78-.64-.43-.42-.65-.99-.65-1.7,0-.81,.29-1.44,.86-1.88s1.37-.66,2.39-.66h1.5v-.77c0-.63-.14-1.09-.42-1.37-.28-.28-.75-.43-1.39-.43-.6,0-1.31,.15-2.13,.45l-.23-.66c.88-.35,1.71-.52,2.48-.52,1.71,0,2.56,.83,2.56,2.49v3.78c0,.41,.05,.71,.16,.89Zm-1.03-1.06v-2.16h-1.36c-.8,0-1.41,.16-1.83,.46-.42,.31-.63,.78-.63,1.4,0,.54,.15,.96,.44,1.25s.7,.44,1.21,.44c.94,0,1.67-.46,2.17-1.38Z"/>
    <path d="M390.34,38.8v11.04h-.75l-.1-1.2c-.54,.91-1.33,1.37-2.36,1.37-.91,0-1.63-.36-2.15-1.09-.52-.73-.79-1.71-.79-2.96,0-.81,.12-1.52,.37-2.15s.6-1.1,1.07-1.46,1.01-.52,1.64-.52c.89,0,1.62,.35,2.21,1.06v-4.2l.87,.1Zm-1.81,10.12c.34-.24,.66-.6,.94-1.09v-4.1c-.56-.79-1.25-1.19-2.06-1.19-.71,0-1.27,.29-1.69,.89-.42,.59-.62,1.42-.61,2.5,0,1.08,.19,1.91,.57,2.48,.38,.58,.9,.86,1.58,.86,.5,0,.92-.12,1.27-.36Z"/>
    <path d="M398.56,48.98c.11,.18,.27,.31,.5,.4l-.2,.62c-.36-.07-.64-.21-.83-.41-.2-.2-.32-.5-.38-.91-.54,.88-1.36,1.32-2.45,1.32-.75,0-1.34-.21-1.78-.64-.43-.42-.65-.99-.65-1.7,0-.81,.29-1.44,.86-1.88s1.37-.66,2.39-.66h1.5v-.77c0-.63-.14-1.09-.42-1.37-.28-.28-.75-.43-1.39-.43-.6,0-1.31,.15-2.13,.45l-.23-.66c.88-.35,1.71-.52,2.48-.52,1.71,0,2.56,.83,2.56,2.49v3.78c0,.41,.05,.71,.16,.89Zm-1.03-1.06v-2.16h-1.36c-.8,0-1.41,.16-1.83,.46-.42,.31-.63,.78-.63,1.4,0,.54,.15,.96,.44,1.25s.7,.44,1.21,.44c.94,0,1.67-.46,2.17-1.38Z"/>
    <path d="M406.66,42.46c.38,.42,.56,1.01,.56,1.77v5.61h-.87v-5.49c0-.63-.12-1.09-.38-1.38s-.62-.44-1.11-.44-.94,.14-1.33,.41c-.38,.28-.75,.68-1.1,1.21v5.69h-.87v-7.85h.75l.09,1.34c.32-.47,.7-.84,1.14-1.1,.44-.27,.93-.4,1.48-.4,.71,0,1.25,.21,1.63,.63Z"/>
    <path d="M415.36,48.98c.11,.18,.27,.31,.5,.4l-.2,.62c-.36-.07-.64-.21-.83-.41-.2-.2-.32-.5-.38-.91-.54,.88-1.36,1.32-2.45,1.32-.75,0-1.34-.21-1.78-.64-.43-.42-.65-.99-.65-1.7,0-.81,.29-1.44,.86-1.88s1.37-.66,2.39-.66h1.5v-.77c0-.63-.14-1.09-.42-1.37-.28-.28-.75-.43-1.39-.43-.6,0-1.31,.15-2.13,.45l-.23-.66c.88-.35,1.71-.52,2.48-.52,1.71,0,2.56,.83,2.56,2.49v3.78c0,.41,.05,.71,.16,.89Zm-1.03-1.06v-2.16h-1.36c-.8,0-1.41,.16-1.83,.46-.42,.31-.63,.78-.63,1.4,0,.54,.15,.96,.44,1.25s.7,.44,1.21,.44c.94,0,1.67-.46,2.17-1.38Zm-.6-9.81l.39,.78-2.92,1.28-.29-.51,2.82-1.54Z"/>
    <path d="M426.78,41.99v.68l-4.38,6.42h4.35l-.09,.75h-5.28v-.67l4.38-6.42h-4.02v-.75h5.04Z"/>
    <path d="M433.68,48.98c.11,.18,.27,.31,.5,.4l-.2,.62c-.36-.07-.64-.21-.83-.41-.2-.2-.32-.5-.38-.91-.54,.88-1.36,1.32-2.45,1.32-.75,0-1.34-.21-1.78-.64-.43-.42-.65-.99-.65-1.7,0-.81,.29-1.44,.86-1.88s1.37-.66,2.39-.66h1.5v-.77c0-.63-.14-1.09-.42-1.37-.28-.28-.75-.43-1.39-.43-.6,0-1.31,.15-2.13,.45l-.23-.66c.88-.35,1.71-.52,2.48-.52,1.71,0,2.56,.83,2.56,2.49v3.78c0,.41,.05,.71,.16,.89Zm-1.03-1.06v-2.16h-1.36c-.8,0-1.41,.16-1.83,.46-.42,.31-.63,.78-.63,1.4,0,.54,.15,.96,.44,1.25s.7,.44,1.21,.44c.94,0,1.67-.46,2.17-1.38Zm-.6-9.81l.39,.78-2.92,1.28-.29-.51,2.82-1.54Z"/>
    <path d="M437.56,38.69v11.15h-.87v-11.04l.87-.1Zm4.4,3.3l-3.3,3.51,3.65,4.33h-1.05l-3.6-4.29,3.3-3.56h1.01Z"/>
    <path d="M449.05,42.9c.58,.71,.88,1.71,.88,2.99s-.3,2.27-.89,3.01c-.6,.73-1.41,1.1-2.44,1.1s-1.85-.36-2.44-1.09-.88-1.72-.88-2.99c0-.83,.13-1.55,.41-2.17,.27-.62,.65-1.1,1.15-1.43s1.09-.49,1.77-.49c1.04,0,1.85,.36,2.44,1.07Zm-4.21,.52c-.42,.57-.63,1.4-.63,2.5s.21,1.92,.62,2.49c.42,.57,1,.85,1.76,.85s1.35-.29,1.78-.85c.42-.57,.64-1.41,.64-2.52s-.21-1.92-.62-2.48c-.42-.56-1.01-.85-1.78-.85s-1.35,.28-1.77,.85Z"/>
    <path d="M457.57,42.46c.38,.42,.56,1.01,.56,1.77v5.61h-.87v-5.49c0-.63-.12-1.09-.38-1.38s-.62-.44-1.11-.44-.94,.14-1.33,.41c-.38,.28-.75,.68-1.1,1.21v5.69h-.87v-7.85h.75l.09,1.34c.32-.47,.7-.84,1.14-1.1,.44-.27,.93-.4,1.48-.4,.71,0,1.25,.21,1.63,.63Z"/>
    <path d="M466.77,46.25h-5.24c.05,1.02,.29,1.78,.73,2.27,.44,.5,1.01,.74,1.72,.74,.41,0,.77-.06,1.09-.19,.31-.12,.66-.32,1.03-.59l.41,.56c-.39,.32-.79,.56-1.2,.72-.41,.16-.87,.24-1.37,.24-1.04,0-1.86-.35-2.45-1.06s-.88-1.7-.88-2.96c0-.83,.13-1.56,.38-2.18,.25-.62,.62-1.11,1.09-1.46,.47-.34,1.03-.52,1.66-.52,1,0,1.76,.34,2.28,1.01,.52,.68,.78,1.6,.78,2.78,0,.22-.01,.43-.03,.63Zm-.83-.9c0-.88-.18-1.57-.55-2.06-.37-.5-.91-.74-1.63-.74-.65,0-1.17,.25-1.58,.75-.4,.5-.62,1.26-.66,2.28h4.41v-.23Z"/>
    <path d="M478.42,42.47c.37,.43,.55,1.02,.55,1.76v5.61h-.87v-5.49c0-.62-.12-1.08-.35-1.37-.24-.29-.56-.44-.98-.44-.44,0-.83,.14-1.19,.42-.35,.28-.69,.68-1.02,1.2v5.69h-.87v-5.49c0-.62-.12-1.08-.35-1.37s-.56-.44-.98-.44c-.45,0-.85,.14-1.2,.42-.35,.28-.68,.68-1,1.2v5.69h-.87v-7.85h.75l.08,1.34c.3-.47,.66-.84,1.07-1.1,.41-.27,.86-.4,1.35-.4s.92,.14,1.26,.41c.34,.28,.57,.66,.69,1.15,.31-.49,.67-.87,1.09-1.15,.42-.27,.87-.41,1.37-.41,.63,0,1.13,.21,1.49,.64Z"/>
    <path d="M487.12,49.55c0,.68-.08,1.22-.22,1.63-.15,.41-.37,.73-.66,.98s-.7,.49-1.23,.73l-.25-.63c.38-.19,.67-.38,.88-.56,.2-.19,.36-.44,.46-.77,.1-.33,.16-.77,.16-1.34v-7.59h.87v7.56Zm.03-10.83c.12,.12,.18,.27,.18,.45s-.06,.33-.18,.45c-.12,.12-.28,.18-.48,.18-.19,0-.34-.06-.46-.18-.12-.12-.18-.27-.18-.45s.06-.33,.18-.45c.12-.12,.28-.18,.46-.18,.2,0,.36,.06,.48,.18Z"/>
    <path d="M495.84,46.25h-5.24c.05,1.02,.29,1.78,.73,2.27,.44,.5,1.01,.74,1.72,.74,.41,0,.77-.06,1.09-.19,.31-.12,.66-.32,1.03-.59l.41,.56c-.39,.32-.79,.56-1.2,.72-.41,.16-.87,.24-1.37,.24-1.04,0-1.86-.35-2.45-1.06s-.88-1.7-.88-2.96c0-.83,.13-1.56,.38-2.18,.25-.62,.62-1.11,1.09-1.46,.47-.34,1.03-.52,1.66-.52,1,0,1.76,.34,2.28,1.01,.52,.68,.78,1.6,.78,2.78,0,.22-.01,.43-.03,.63Zm-.83-.9c0-.88-.18-1.57-.55-2.06-.37-.5-.91-.74-1.63-.74-.65,0-1.17,.25-1.58,.75-.4,.5-.62,1.26-.66,2.28h4.41v-.23Z"/>
    <path d="M508.18,46.49v.72h-1.35v2.62h-.85v-2.62h-4.37v-.65l3.04-6.87,.74,.3-2.85,6.49h3.43l.1-2.92h.75v2.92h1.35Z"/>
    <path d="M514.63,40.58h-4.05v3.4c.55-.31,1.12-.46,1.71-.46,.86,0,1.54,.28,2.05,.83,.5,.55,.76,1.31,.76,2.27,0,.65-.13,1.23-.4,1.75-.27,.52-.64,.92-1.12,1.2-.49,.29-1.05,.43-1.69,.43-1.11,0-2.05-.4-2.82-1.2l.54-.52c.32,.34,.66,.59,1.02,.75,.36,.16,.78,.24,1.26,.24,.71,0,1.27-.24,1.68-.71,.41-.47,.62-1.12,.62-1.94s-.19-1.4-.56-1.79-.88-.59-1.52-.59c-.32,0-.6,.04-.85,.11-.25,.08-.52,.2-.82,.37h-.69v-4.85h5.03l-.13,.72Z"/>
    <path d="M527.23,38.8v11.04h-.75l-.1-1.2c-.54,.91-1.33,1.37-2.36,1.37-.91,0-1.63-.36-2.15-1.09-.52-.73-.79-1.71-.79-2.96,0-.81,.12-1.52,.37-2.15s.6-1.1,1.07-1.46,1.01-.52,1.64-.52c.89,0,1.62,.35,2.21,1.06v-4.2l.87,.1Zm-1.81,10.12c.34-.24,.66-.6,.94-1.09v-4.1c-.56-.79-1.25-1.19-2.06-1.19-.71,0-1.27,.29-1.69,.89-.42,.59-.62,1.42-.61,2.5,0,1.08,.19,1.91,.57,2.48,.38,.58,.9,.86,1.58,.86,.5,0,.92-.12,1.27-.36Z"/>
    <path d="M535.51,42.46c.38,.42,.56,1.01,.56,1.77v5.61h-.87v-5.49c0-.63-.12-1.09-.38-1.38s-.62-.44-1.11-.44-.94,.14-1.33,.41c-.38,.28-.75,.68-1.1,1.21v5.69h-.87v-7.85h.75l.09,1.34c.32-.47,.7-.84,1.14-1.1,.44-.27,.93-.4,1.48-.4,.71,0,1.25,.21,1.63,.63Z"/>
    <path d="M540.73,38.11l.39,.78-2.92,1.28-.29-.51,2.82-1.54Zm-.69,3.88v7.85h-.87v-7.85h.87Z"/>
    <path d="M543.69,48.78c.13,.14,.2,.3,.2,.5,0,.21-.07,.38-.2,.52-.13,.14-.31,.2-.52,.2s-.37-.07-.51-.21c-.14-.14-.21-.31-.21-.51s.07-.37,.21-.5c.14-.13,.31-.2,.51-.2s.38,.07,.52,.2Z"/>
  </g>
  <g>
    <path class="cls-5" d="M244.1,277.86v.96l-4.03,6.96h4.02l-.13,1.03h-5.21v-.96l4.06-6.98h-3.65v-1h4.95Z"/>
    <path class="cls-5" d="M250.18,277.19v9.61h-1.04l-.08-.9c-.44,.71-1.04,1.07-1.78,1.07s-1.32-.32-1.74-.95c-.41-.63-.62-1.5-.62-2.61,0-.72,.1-1.35,.31-1.9,.2-.55,.49-.97,.86-1.27,.37-.3,.8-.45,1.29-.45,.65,0,1.19,.27,1.62,.82v-3.55l1.17,.13Zm-1.81,8.59c.23-.17,.44-.43,.64-.77v-3.43c-.39-.58-.84-.87-1.37-.87-.46,0-.82,.22-1.09,.66s-.4,1.11-.39,2c0,.91,.12,1.58,.36,2.02,.24,.43,.58,.65,1.03,.65,.31,0,.58-.09,.81-.26Z"/>
    <path class="cls-5" d="M255.68,279.89l-.2,1.13c-.17-.05-.34-.08-.53-.08-.38,0-.69,.15-.93,.45-.24,.3-.43,.77-.57,1.39v4.02h-1.17v-6.84h1.01l.09,1.35c.34-1.01,.91-1.51,1.7-1.51,.22,0,.42,.03,.58,.08Z"/>
    <path class="cls-5" d="M260.88,280.72c.49,.62,.73,1.5,.73,2.65s-.25,1.99-.74,2.63-1.17,.97-2.04,.97-1.56-.32-2.05-.95c-.49-.63-.73-1.51-.73-2.64s.25-2.02,.74-2.65,1.18-.94,2.05-.94,1.56,.31,2.04,.92Zm-3.21,.66c-.27,.43-.4,1.1-.4,2.01,0,1.78,.52,2.67,1.56,2.67s1.56-.89,1.56-2.68c0-.91-.13-1.58-.39-2-.26-.42-.65-.64-1.16-.64s-.9,.21-1.17,.64Z"/>
    <path class="cls-5" d="M264.47,286.53c0,.58-.08,1.06-.23,1.42-.15,.37-.37,.67-.65,.9-.28,.23-.66,.46-1.14,.68l-.36-.85c.3-.16,.54-.31,.7-.47,.17-.16,.29-.36,.38-.62,.09-.26,.13-.61,.13-1.04v-6.59h1.17v6.56Zm-.03-9.57c.14,.15,.21,.33,.21,.55s-.07,.4-.21,.54-.33,.21-.56,.21-.41-.07-.55-.21c-.14-.14-.21-.32-.21-.54s.07-.4,.21-.55c.14-.15,.33-.22,.55-.22s.41,.07,.55,.22Z"/>
    <path class="cls-5" d="M274.49,277.19v9.61h-1.04l-.08-.9c-.44,.71-1.04,1.07-1.78,1.07s-1.32-.32-1.74-.95c-.41-.63-.62-1.5-.62-2.61,0-.72,.1-1.35,.31-1.9,.2-.55,.49-.97,.86-1.27,.37-.3,.8-.45,1.29-.45,.65,0,1.19,.27,1.62,.82v-3.55l1.17,.13Zm-1.81,8.59c.23-.17,.44-.43,.64-.77v-3.43c-.39-.58-.84-.87-1.37-.87-.46,0-.82,.22-1.09,.66s-.4,1.11-.39,2c0,.91,.12,1.58,.36,2.02,.24,.43,.58,.65,1.03,.65,.31,0,.58-.09,.81-.26Z"/>
    <path class="cls-5" d="M280.98,285.86c.08,.13,.2,.24,.36,.31l-.25,.79c-.34-.05-.6-.16-.79-.31-.19-.16-.33-.39-.4-.72-.44,.69-1.06,1.04-1.86,1.04-.61,0-1.09-.19-1.44-.57s-.53-.88-.53-1.51c0-.73,.24-1.28,.72-1.66,.48-.38,1.16-.57,2.04-.57h.88v-.58c0-.48-.1-.82-.29-1.03-.19-.21-.51-.32-.96-.32-.48,0-1.03,.12-1.66,.36l-.29-.82c.76-.31,1.47-.47,2.13-.47,1.48,0,2.22,.74,2.22,2.22v3.22c0,.28,.04,.48,.12,.62Zm-1.27-.84v-1.61h-.75c-1.13,0-1.69,.47-1.69,1.42,0,.41,.09,.72,.27,.94,.18,.22,.44,.33,.78,.33,.61,0,1.07-.36,1.39-1.07Z"/>
    <path class="cls-5" d="M286.21,286.5c-.43,.31-.91,.47-1.44,.47s-.98-.16-1.28-.48-.45-.77-.45-1.35v-4.29h-.98v-.88h.98v-1.57l1.17-.14v1.72h1.51l-.13,.88h-1.38v4.28c0,.59,.25,.88,.74,.88,.15,0,.28-.02,.41-.06s.27-.11,.42-.2l.43,.75Z"/>
    <path class="cls-5" d="M288.18,280.72c.15,.16,.23,.35,.23,.58s-.08,.42-.23,.58c-.15,.17-.35,.25-.59,.25s-.43-.08-.58-.25c-.15-.16-.23-.36-.23-.58s.08-.42,.23-.58c.15-.16,.34-.24,.58-.24s.44,.08,.59,.24Zm0,4.84c.15,.16,.23,.35,.23,.58s-.08,.42-.23,.58c-.15,.16-.35,.25-.59,.25s-.43-.08-.58-.25c-.15-.16-.23-.36-.23-.58s.08-.42,.23-.58c.15-.16,.34-.24,.58-.24s.44,.08,.59,.24Z"/>
    <path class="cls-5" d="M297.32,277.9c.35,.14,.69,.37,1.03,.67l-.62,.73c-.25-.22-.5-.38-.75-.48s-.52-.16-.81-.16c-.68,0-1.21,.29-1.61,.86-.4,.58-.6,1.51-.6,2.79s.2,2.17,.6,2.76c.4,.59,.94,.89,1.61,.89,.34,0,.63-.06,.87-.18,.24-.12,.51-.3,.79-.53l.61,.71c-.65,.67-1.43,1-2.34,1-.67,0-1.26-.17-1.77-.52-.52-.35-.92-.87-1.21-1.57-.29-.7-.44-1.55-.44-2.57s.15-1.85,.45-2.55c.3-.69,.71-1.21,1.22-1.56s1.1-.52,1.75-.52c.47,0,.88,.07,1.22,.21Zm.3-2.87l.46,.51-1.57,1.46h-.73l-1.57-1.46,.47-.51,1.47,1.05,1.48-1.05Z"/>
    <path class="cls-5" d="M303.15,277.95c.39,.17,.76,.43,1.11,.78l-.61,.69c-.29-.26-.59-.45-.88-.58s-.6-.19-.94-.19c-.43,0-.78,.12-1.05,.36-.26,.24-.4,.55-.4,.94,0,.26,.05,.48,.16,.67,.1,.19,.28,.36,.53,.51,.25,.15,.61,.31,1.07,.46,.53,.19,.96,.39,1.3,.61,.34,.22,.6,.49,.78,.83,.18,.34,.27,.76,.27,1.27s-.12,.97-.35,1.37c-.23,.4-.57,.72-1.01,.95-.44,.23-.95,.34-1.54,.34-1.08,0-2.01-.39-2.77-1.17l.64-.69c.32,.29,.65,.5,.98,.66,.33,.15,.7,.23,1.11,.23,.51,0,.92-.15,1.23-.44,.31-.29,.46-.69,.46-1.2,0-.44-.12-.79-.37-1.05-.25-.26-.7-.5-1.36-.73-.84-.29-1.44-.64-1.81-1.03-.37-.39-.55-.9-.55-1.52,0-.44,.11-.84,.33-1.2,.22-.36,.53-.64,.93-.84s.85-.3,1.35-.3c.53,0,.99,.09,1.38,.26Z"/>
    <path class="cls-5" d="M309.44,277.95c.39,.17,.76,.43,1.11,.78l-.61,.69c-.29-.26-.59-.45-.88-.58s-.6-.19-.94-.19c-.43,0-.78,.12-1.05,.36-.26,.24-.4,.55-.4,.94,0,.26,.05,.48,.16,.67,.1,.19,.28,.36,.53,.51,.25,.15,.61,.31,1.07,.46,.53,.19,.96,.39,1.3,.61,.34,.22,.6,.49,.78,.83,.18,.34,.27,.76,.27,1.27s-.12,.97-.35,1.37c-.23,.4-.57,.72-1.01,.95-.44,.23-.95,.34-1.54,.34-1.08,0-2.01-.39-2.77-1.17l.64-.69c.32,.29,.65,.5,.98,.66,.33,.15,.7,.23,1.11,.23,.51,0,.92-.15,1.23-.44,.31-.29,.46-.69,.46-1.2,0-.44-.12-.79-.37-1.05-.25-.26-.7-.5-1.36-.73-.84-.29-1.44-.64-1.81-1.03-.37-.39-.55-.9-.55-1.52,0-.44,.11-.84,.33-1.2,.22-.36,.53-.64,.93-.84s.85-.3,1.35-.3c.53,0,.99,.09,1.38,.26Z"/>
    <path class="cls-5" d="M316.77,277.86v.96l-4.03,6.96h4.02l-.13,1.03h-5.21v-.96l4.06-6.98h-3.65v-1h4.95Z"/>
    <path class="cls-5" d="M323.14,276.31v11.82h-1.09v-11.82h1.09Z"/>
    <path class="cls-5" d="M337.52,277.86l-2.47,8.94h-1.44l-2.51-8.94h1.25l2,7.77,1.98-7.77h1.2Z"/>
    <path class="cls-5" d="M339.81,276.96c.14,.15,.21,.33,.21,.55s-.07,.4-.21,.54-.33,.21-.56,.21-.41-.07-.55-.21c-.14-.14-.21-.32-.21-.54s.07-.4,.21-.55c.14-.15,.33-.22,.55-.22s.41,.07,.55,.22Zm.03,3v6.84h-1.17v-6.84h1.17Z"/>
    <path class="cls-5" d="M345.68,279.96v.87l-3.24,5h3.25l-.12,.96h-4.42v-.87l3.24-5h-2.96v-.96h4.25Z"/>
    <path class="cls-5" d="M351.67,286.8h-1.01l-.07-1.03c-.48,.8-1.11,1.2-1.91,1.2-.55,0-.97-.18-1.29-.53-.31-.36-.47-.84-.47-1.44v-5.03h1.17v4.93c0,.4,.08,.69,.23,.88,.15,.19,.38,.28,.68,.28,.58,0,1.08-.38,1.5-1.14v-4.94h1.17v6.84Z"/>
    <path class="cls-5" d="M358.16,285.86c.08,.13,.2,.24,.36,.31l-.25,.79c-.34-.05-.6-.16-.79-.31-.19-.16-.33-.39-.4-.72-.44,.69-1.06,1.04-1.86,1.04-.61,0-1.09-.19-1.44-.57s-.53-.88-.53-1.51c0-.73,.24-1.28,.72-1.66,.48-.38,1.16-.57,2.04-.57h.88v-.58c0-.48-.1-.82-.29-1.03-.19-.21-.51-.32-.96-.32-.48,0-1.03,.12-1.66,.36l-.29-.82c.76-.31,1.47-.47,2.13-.47,1.48,0,2.22,.74,2.22,2.22v3.22c0,.28,.04,.48,.12,.62Zm-1.27-.84v-1.61h-.75c-1.13,0-1.69,.47-1.69,1.42,0,.41,.09,.72,.27,.94,.18,.22,.44,.33,.78,.33,.61,0,1.07-.36,1.39-1.07Z"/>
    <path class="cls-5" d="M360.32,286.59c-.24-.25-.36-.6-.36-1.05v-8.35l1.17-.13v8.44c0,.34,.14,.51,.42,.51,.11,0,.24-.03,.38-.08l.26,.82c-.28,.15-.57,.22-.87,.22-.42,0-.75-.13-.99-.38Z"/>
    <path class="cls-5" d="M364.59,276.96c.14,.15,.21,.33,.21,.55s-.07,.4-.21,.54-.33,.21-.56,.21-.41-.07-.55-.21c-.14-.14-.21-.32-.21-.54s.07-.4,.21-.55c.14-.15,.33-.22,.55-.22s.41,.07,.55,.22Zm.03,3v6.84h-1.17v-6.84h1.17Z"/>
    <path class="cls-5" d="M370.46,279.96v.87l-3.24,5h3.25l-.12,.96h-4.42v-.87l3.24-5h-2.96v-.96h4.25Z"/>
    <path class="cls-5" d="M376.09,285.86c.08,.13,.2,.24,.36,.31l-.25,.79c-.34-.05-.6-.16-.79-.31-.19-.16-.33-.39-.4-.72-.44,.69-1.06,1.04-1.86,1.04-.61,0-1.09-.19-1.44-.57s-.53-.88-.53-1.51c0-.73,.24-1.28,.72-1.66,.48-.38,1.16-.57,2.04-.57h.88v-.58c0-.48-.1-.82-.29-1.03-.19-.21-.51-.32-.96-.32-.48,0-1.03,.12-1.66,.36l-.29-.82c.76-.31,1.47-.47,2.13-.47,1.48,0,2.22,.74,2.22,2.22v3.22c0,.28,.04,.48,.12,.62Zm-1.27-.84v-1.61h-.75c-1.13,0-1.69,.47-1.69,1.42,0,.41,.09,.72,.27,.94,.18,.22,.44,.33,.78,.33,.61,0,1.07-.36,1.39-1.07Z"/>
    <path class="cls-5" d="M381.46,279.98c.3,.12,.59,.31,.87,.56l-.52,.7c-.21-.16-.42-.29-.62-.37-.21-.08-.43-.12-.68-.12-.51,0-.91,.22-1.19,.65-.28,.43-.42,1.11-.42,2.03,0,1.72,.54,2.57,1.61,2.57,.24,0,.46-.04,.66-.12,.2-.08,.41-.21,.64-.37l.55,.71c-.55,.5-1.18,.75-1.88,.75-.88,0-1.56-.3-2.06-.91-.5-.61-.75-1.48-.75-2.63,0-.75,.12-1.39,.34-1.94,.23-.55,.55-.97,.97-1.26,.42-.29,.91-.44,1.48-.44,.36,0,.7,.06,1,.18Z"/>
    <path class="cls-5" d="M388.16,283.79h-3.98c.04,.8,.2,1.37,.48,1.72s.68,.53,1.17,.53c.31,0,.59-.05,.84-.14,.25-.1,.5-.25,.77-.47l.52,.69c-.64,.57-1.37,.86-2.18,.86-.89,0-1.58-.31-2.07-.93-.49-.62-.73-1.49-.73-2.61s.23-2,.7-2.66,1.12-.98,1.95-.98,1.46,.29,1.9,.88c.44,.58,.66,1.42,.66,2.5,0,.18,0,.39-.03,.61Zm-1.11-.96c0-1.43-.47-2.15-1.42-2.15-.43,0-.78,.18-1.03,.54-.25,.36-.39,.94-.43,1.75h2.87v-.14Z"/>
    <path class="cls-5" d="M390.72,280.72c.15,.16,.23,.35,.23,.58s-.08,.42-.23,.58c-.15,.17-.35,.25-.59,.25s-.43-.08-.58-.25c-.15-.16-.23-.36-.23-.58s.08-.42,.23-.58c.15-.16,.34-.24,.58-.24s.44,.08,.59,.24Zm0,4.84c.15,.16,.23,.35,.23,.58s-.08,.42-.23,.58c-.15,.16-.35,.25-.59,.25s-.43-.08-.58-.25c-.15-.16-.23-.36-.23-.58s.08-.42,.23-.58c.15-.16,.34-.24,.58-.24s.44,.08,.59,.24Z"/>
    <path class="cls-5" d="M396.76,276.96c.14,.15,.21,.33,.21,.55s-.07,.4-.21,.54-.33,.21-.56,.21-.41-.07-.55-.21c-.14-.14-.21-.32-.21-.54s.07-.4,.21-.55c.14-.15,.33-.22,.55-.22s.41,.07,.55,.22Zm.03,3v6.84h-1.17v-6.84h1.17Z"/>
    <path class="cls-5" d="M403.35,286.8l-1.92-3.81h-1.26v3.81h-1.21v-8.94h2.09c2.13,0,3.2,.84,3.2,2.52,0,.59-.14,1.09-.43,1.5-.29,.41-.71,.71-1.26,.9l2.13,4.03h-1.34Zm-.82-5.14c.3-.27,.46-.7,.46-1.28,0-.55-.15-.95-.46-1.21-.31-.26-.81-.39-1.5-.39h-.86v3.29h.97c.62,0,1.09-.14,1.39-.41Z"/>
    <path class="cls-5" d="M411.41,278.86c.61,.78,.92,1.94,.92,3.46s-.3,2.65-.91,3.45c-.61,.8-1.45,1.2-2.52,1.2s-1.9-.39-2.52-1.18c-.61-.78-.92-1.94-.92-3.45,0-1,.14-1.84,.42-2.54,.28-.7,.68-1.22,1.2-1.58,.52-.35,1.12-.53,1.81-.53,1.07,0,1.9,.39,2.52,1.18Zm-4.67,3.48c0,2.44,.72,3.65,2.16,3.65,.71,0,1.25-.29,1.61-.87,.36-.58,.55-1.51,.55-2.8s-.18-2.21-.55-2.79-.9-.88-1.61-.88c-1.44,0-2.16,1.23-2.16,3.69Z"/>
    <path class="cls-5" d="M418.34,277.86v.96l-4.03,6.96h4.02l-.13,1.03h-5.21v-.96l4.06-6.98h-3.65v-1h4.95Z"/>
    <path class="cls-5" d="M424.36,286.8v-4.2h-3.25v4.2h-1.21v-8.94h1.21v3.76h3.25v-3.76h1.21v8.94h-1.21Z"/>
    <path class="cls-5" d="M428.98,277.86v7.92h3.26l-.13,1.03h-4.34v-8.94h1.21Z"/>
    <path class="cls-5" d="M437.93,286.8l-.6-2.27h-3l-.6,2.27h-1.21l2.59-8.94h1.48l2.59,8.94h-1.25Zm-3.35-3.22h2.51l-1.25-4.76-1.26,4.76Z"/>
    <path class="cls-5" d="M443.87,277.95c.39,.17,.76,.43,1.11,.78l-.61,.69c-.29-.26-.59-.45-.88-.58s-.6-.19-.94-.19c-.43,0-.78,.12-1.05,.36-.26,.24-.4,.55-.4,.94,0,.26,.05,.48,.16,.67,.1,.19,.28,.36,.53,.51,.25,.15,.61,.31,1.07,.46,.53,.19,.96,.39,1.3,.61,.34,.22,.6,.49,.78,.83,.18,.34,.27,.76,.27,1.27s-.12,.97-.35,1.37c-.23,.4-.57,.72-1.01,.95-.44,.23-.95,.34-1.54,.34-1.08,0-2.01-.39-2.77-1.17l.64-.69c.32,.29,.65,.5,.98,.66,.33,.15,.7,.23,1.11,.23,.51,0,.92-.15,1.23-.44,.31-.29,.46-.69,.46-1.2,0-.44-.12-.79-.37-1.05-.25-.26-.7-.5-1.36-.73-.84-.29-1.44-.64-1.81-1.03-.37-.39-.55-.9-.55-1.52,0-.44,.11-.84,.33-1.2,.22-.36,.53-.64,.93-.84s.85-.3,1.35-.3c.53,0,.99,.09,1.38,.26Z"/>
    <path class="cls-5" d="M447.67,285.56c.15,.16,.23,.35,.23,.58s-.08,.42-.23,.58c-.15,.16-.35,.25-.59,.25s-.43-.08-.58-.25c-.15-.16-.23-.36-.23-.58s.08-.42,.23-.58c.15-.16,.34-.24,.58-.24s.44,.08,.59,.24Z"/>
    <path class="cls-5" d="M452.77,279.98c.3,.12,.59,.31,.87,.56l-.52,.7c-.21-.16-.42-.29-.62-.37-.21-.08-.43-.12-.68-.12-.51,0-.91,.22-1.19,.65-.28,.43-.42,1.11-.42,2.03,0,1.72,.54,2.57,1.61,2.57,.24,0,.46-.04,.66-.12,.2-.08,.41-.21,.64-.37l.55,.71c-.55,.5-1.18,.75-1.88,.75-.88,0-1.56-.3-2.06-.91-.5-.61-.75-1.48-.75-2.63,0-.75,.12-1.39,.34-1.94,.23-.55,.55-.97,.97-1.26,.42-.29,.91-.44,1.48-.44,.36,0,.7,.06,1,.18Z"/>
    <path class="cls-5" d="M458.69,279.96v.87l-3.24,5h3.25l-.12,.96h-4.42v-.87l3.24-5h-2.96v-.96h4.25Z"/>
    <path class="cls-5" d="M460.96,285.55c.15,.16,.22,.35,.22,.57,0,.12-.02,.25-.06,.38-.04,.13-.1,.32-.19,.56l-.72,1.83h-.73l.48-2.07c-.25-.16-.38-.39-.38-.69,0-.23,.08-.43,.23-.58,.15-.16,.34-.23,.58-.23s.41,.08,.56,.23Z"/>
    <path class="cls-5" d="M467.12,277.86v8.94h-1.21v-8.94h1.21Zm4.39,0l-3.03,4.08,3.24,4.86h-1.39l-3.16-4.78,3.05-4.16h1.29Z"/>
    <path class="cls-5" d="M476.13,279.89l-.2,1.13c-.17-.05-.34-.08-.53-.08-.38,0-.69,.15-.93,.45-.24,.3-.43,.77-.57,1.39v4.02h-1.17v-6.84h1.01l.09,1.35c.34-1.01,.91-1.51,1.7-1.51,.22,0,.42,.03,.58,.08Z"/>
    <path class="cls-5" d="M478.41,276.96c.14,.15,.21,.33,.21,.55s-.07,.4-.21,.54-.33,.21-.56,.21-.41-.07-.55-.21c-.14-.14-.21-.32-.21-.54s.07-.4,.21-.55c.14-.15,.33-.22,.55-.22s.41,.07,.55,.22Zm.03,3v6.84h-1.17v-6.84h1.17Z"/>
    <path class="cls-5" d="M484.43,280.57l-.49,.69c-.28-.19-.54-.33-.78-.43-.24-.1-.5-.14-.77-.14-.36,0-.63,.08-.84,.25-.2,.17-.31,.4-.31,.7s.1,.51,.29,.68c.2,.16,.57,.33,1.11,.51,.68,.22,1.18,.48,1.49,.79,.31,.31,.47,.74,.47,1.29,0,.64-.23,1.15-.7,1.51-.47,.37-1.05,.55-1.75,.55-.93,0-1.71-.31-2.35-.92l.6-.65c.55,.44,1.12,.66,1.73,.66,.38,0,.69-.1,.92-.29,.23-.19,.35-.46,.35-.79,0-.24-.04-.44-.12-.58s-.23-.28-.44-.4c-.21-.12-.52-.24-.93-.37-.65-.22-1.12-.48-1.4-.78-.29-.3-.43-.69-.43-1.16,0-.36,.09-.69,.29-.98,.19-.29,.46-.51,.79-.68s.73-.25,1.17-.25c.79,0,1.49,.26,2.11,.78Z"/>
    <path class="cls-5" d="M489.34,286.5c-.43,.31-.91,.47-1.44,.47s-.98-.16-1.28-.48-.45-.77-.45-1.35v-4.29h-.98v-.88h.98v-1.57l1.17-.14v1.72h1.51l-.13,.88h-1.38v4.28c0,.59,.25,.88,.74,.88,.15,0,.28-.02,.41-.06s.27-.11,.42-.2l.43,.75Z"/>
    <path class="cls-5" d="M491.8,276.44l.49,.94-2.5,1.13-.34-.6,2.34-1.47Zm-.27,3.52v6.84h-1.17v-6.84h1.17Z"/>
    <path class="cls-5" d="M497.97,280.33c.31,.36,.46,.86,.46,1.49v4.98h-1.17v-4.84c0-.44-.07-.76-.22-.96s-.37-.29-.68-.29c-.57,0-1.09,.41-1.56,1.22v4.86h-1.17v-6.84h1.01l.09,1.01c.53-.79,1.18-1.18,1.95-1.18,.55,0,.97,.18,1.28,.54Z"/>
    <path class="cls-5" d="M504.86,285.86c.08,.13,.2,.24,.36,.31l-.25,.79c-.34-.05-.6-.16-.79-.31-.19-.16-.33-.39-.4-.72-.44,.69-1.06,1.04-1.86,1.04-.61,0-1.09-.19-1.44-.57s-.53-.88-.53-1.51c0-.73,.24-1.28,.72-1.66,.48-.38,1.16-.57,2.04-.57h.88v-.58c0-.48-.1-.82-.29-1.03-.19-.21-.51-.32-.96-.32-.48,0-1.03,.12-1.66,.36l-.29-.82c.76-.31,1.47-.47,2.13-.47,1.48,0,2.22,.74,2.22,2.22v3.22c0,.28,.04,.48,.12,.62Zm-1.27-.84v-1.61h-.75c-1.13,0-1.69,.47-1.69,1.42,0,.41,.09,.72,.27,.94,.18,.22,.44,.33,.78,.33,.61,0,1.07-.36,1.39-1.07Z"/>
    <path class="cls-5" d="M514.44,278.55c.56,.46,.84,1.15,.84,2.07,0,.97-.29,1.69-.86,2.16s-1.38,.71-2.4,.71h-.86v3.31h-1.21v-8.94h2.03c1.08,0,1.89,.23,2.46,.69Zm-.92,3.57c.34-.29,.51-.78,.51-1.49,0-.65-.17-1.12-.5-1.41-.33-.29-.84-.44-1.53-.44h-.83v3.77h.82c.68,0,1.2-.14,1.53-.43Z"/>
    <path class="cls-5" d="M520.23,280.57l-.49,.69c-.28-.19-.54-.33-.78-.43-.24-.1-.5-.14-.77-.14-.36,0-.63,.08-.84,.25-.2,.17-.31,.4-.31,.7s.1,.51,.29,.68c.2,.16,.57,.33,1.11,.51,.68,.22,1.18,.48,1.49,.79,.31,.31,.47,.74,.47,1.29,0,.64-.23,1.15-.7,1.51-.47,.37-1.05,.55-1.75,.55-.93,0-1.71-.31-2.35-.92l.6-.65c.55,.44,1.12,.66,1.73,.66,.38,0,.69-.1,.92-.29,.23-.19,.35-.46,.35-.79,0-.24-.04-.44-.12-.58s-.23-.28-.44-.4c-.21-.12-.52-.24-.93-.37-.65-.22-1.12-.48-1.4-.78-.29-.3-.43-.69-.43-1.16,0-.36,.09-.69,.29-.98,.19-.29,.46-.51,.79-.68s.73-.25,1.17-.25c.79,0,1.49,.26,2.11,.78Zm-.58-3.95l.46,.52-1.57,1.51h-.73l-1.57-1.51,.46-.52,1.48,1.14,1.48-1.14Z"/>
    <path class="cls-5" d="M526.32,280.72c.49,.62,.73,1.5,.73,2.65s-.25,1.99-.74,2.63-1.17,.97-2.04,.97-1.56-.32-2.05-.95c-.49-.63-.73-1.51-.73-2.64s.25-2.02,.74-2.65,1.18-.94,2.05-.94,1.56,.31,2.04,.92Zm-3.21,.66c-.27,.43-.4,1.1-.4,2.01,0,1.78,.52,2.67,1.56,2.67s1.56-.89,1.56-2.68c0-.91-.13-1.58-.39-2-.26-.42-.65-.64-1.16-.64s-.9,.21-1.17,.64Z"/>
    <path class="cls-5" d="M532.14,279.89l-.2,1.13c-.17-.05-.34-.08-.53-.08-.38,0-.69,.15-.93,.45-.24,.3-.43,.77-.57,1.39v4.02h-1.17v-6.84h1.01l.09,1.35c.34-1.01,.91-1.51,1.7-1.51,.22,0,.42,.03,.58,.08Z"/>
    <path class="cls-5" d="M537.62,280.33c.31,.36,.46,.86,.46,1.49v4.98h-1.17v-4.84c0-.44-.07-.76-.22-.96s-.37-.29-.68-.29c-.57,0-1.09,.41-1.56,1.22v4.86h-1.17v-6.84h1.01l.09,1.01c.53-.79,1.18-1.18,1.95-1.18,.55,0,.97,.18,1.28,.54Z"/>
    <path class="cls-5" d="M547.81,277.86v.96l-4.03,6.96h4.02l-.13,1.03h-5.21v-.96l4.06-6.98h-3.65v-1h4.95Z"/>
    <path class="cls-5" d="M553.51,285.86c.08,.13,.2,.24,.36,.31l-.25,.79c-.34-.05-.6-.16-.79-.31-.19-.16-.33-.39-.4-.72-.44,.69-1.06,1.04-1.86,1.04-.61,0-1.09-.19-1.44-.57s-.53-.88-.53-1.51c0-.73,.24-1.28,.72-1.66,.48-.38,1.16-.57,2.04-.57h.88v-.58c0-.48-.1-.82-.29-1.03-.19-.21-.51-.32-.96-.32-.48,0-1.03,.12-1.66,.36l-.29-.82c.76-.31,1.47-.47,2.13-.47,1.48,0,2.22,.74,2.22,2.22v3.22c0,.28,.04,.48,.12,.62Zm-1.49-9.42l.49,.94-2.5,1.13-.34-.6,2.34-1.47Zm.22,8.58v-1.61h-.75c-1.13,0-1.69,.47-1.69,1.42,0,.41,.09,.72,.27,.94,.18,.22,.44,.33,.78,.33,.61,0,1.07-.36,1.39-1.07Z"/>
    <path class="cls-5" d="M556.67,277.06v9.74h-1.17v-9.61l1.17-.13Zm3.6,2.9l-2.31,3.04,2.54,3.8h-1.3l-2.46-3.74,2.31-3.09h1.22Z"/>
    <path class="cls-5" d="M565.86,280.72c.49,.62,.73,1.5,.73,2.65s-.25,1.99-.74,2.63-1.17,.97-2.04,.97-1.56-.32-2.05-.95c-.49-.63-.73-1.51-.73-2.64s.25-2.02,.74-2.65,1.18-.94,2.05-.94,1.56,.31,2.04,.92Zm-3.21,.66c-.27,.43-.4,1.1-.4,2.01,0,1.78,.52,2.67,1.56,2.67s1.56-.89,1.56-2.68c0-.91-.13-1.58-.39-2-.26-.42-.65-.64-1.16-.64s-.9,.21-1.17,.64Z"/>
    <path class="cls-5" d="M572.91,280.72c.38,.62,.57,1.5,.57,2.64s-.21,1.99-.63,2.64c-.42,.65-1.01,.98-1.76,.98-.68,0-1.22-.27-1.64-.82v3.25l-1.17,.14v-9.58h1.03l.06,.92c.47-.73,1.09-1.09,1.86-1.09s1.31,.31,1.68,.92Zm-.66,2.65c0-.93-.11-1.6-.33-2.02-.22-.42-.56-.63-1.01-.63-.3,0-.57,.09-.81,.27-.23,.18-.46,.43-.66,.74v3.46c.36,.56,.81,.84,1.37,.84,.96,0,1.44-.89,1.44-2.67Z"/>
    <path class="cls-5" d="M578.57,279.98c.3,.12,.59,.31,.87,.56l-.52,.7c-.21-.16-.42-.29-.62-.37-.21-.08-.43-.12-.68-.12-.51,0-.91,.22-1.19,.65-.28,.43-.42,1.11-.42,2.03,0,1.72,.54,2.57,1.61,2.57,.24,0,.46-.04,.66-.12,.2-.08,.41-.21,.64-.37l.55,.71c-.55,.5-1.18,.75-1.88,.75-.88,0-1.56-.3-2.06-.91-.5-.61-.75-1.48-.75-2.63,0-.75,.12-1.39,.34-1.94,.23-.55,.55-.97,.97-1.26,.42-.29,.91-.44,1.48-.44,.36,0,.7,.06,1,.18Zm.47-3.35l.46,.52-1.57,1.51h-.73l-1.57-1.51,.45-.52,1.48,1.14,1.48-1.14Z"/>
    <path class="cls-5" d="M585.01,285.86c.08,.13,.2,.24,.36,.31l-.25,.79c-.34-.05-.6-.16-.79-.31-.19-.16-.33-.39-.4-.72-.44,.69-1.06,1.04-1.86,1.04-.61,0-1.09-.19-1.44-.57s-.53-.88-.53-1.51c0-.73,.24-1.28,.72-1.66,.48-.38,1.16-.57,2.04-.57h.88v-.58c0-.48-.1-.82-.29-1.03-.19-.21-.51-.32-.96-.32-.48,0-1.03,.12-1.66,.36l-.29-.82c.76-.31,1.47-.47,2.13-.47,1.48,0,2.22,.74,2.22,2.22v3.22c0,.28,.04,.48,.12,.62Zm-1.27-.84v-1.61h-.75c-1.13,0-1.69,.47-1.69,1.42,0,.41,.09,.72,.27,.94,.18,.22,.44,.33,.78,.33,.61,0,1.07-.36,1.39-1.07Z"/>
    <path class="cls-5" d="M591.33,280.33c.31,.36,.46,.86,.46,1.49v4.98h-1.17v-4.84c0-.44-.07-.76-.22-.96s-.37-.29-.68-.29c-.57,0-1.09,.41-1.56,1.22v4.86h-1.17v-6.84h1.01l.09,1.01c.53-.79,1.18-1.18,1.95-1.18,.55,0,.97,.18,1.28,.54Z"/>
    <path class="cls-5" d="M598.27,280.72c.49,.62,.73,1.5,.73,2.65s-.25,1.99-.74,2.63-1.17,.97-2.04,.97-1.56-.32-2.05-.95c-.49-.63-.73-1.51-.73-2.64s.25-2.02,.74-2.65,1.18-.94,2.05-.94,1.56,.31,2.04,.92Zm-3.21,.66c-.27,.43-.4,1.1-.4,2.01,0,1.78,.52,2.67,1.56,2.67s1.56-.89,1.56-2.68c0-.91-.13-1.58-.39-2-.26-.42-.65-.64-1.16-.64s-.9,.21-1.17,.64Z"/>
    <path class="cls-5" d="M605.25,279.96l-2.04,6.84h-1.4l-2.11-6.84h1.22l1.59,5.85,1.57-5.85h1.17Z"/>
    <path class="cls-5" d="M610.62,285.86c.08,.13,.2,.24,.36,.31l-.25,.79c-.34-.05-.6-.16-.79-.31-.19-.16-.33-.39-.4-.72-.44,.69-1.06,1.04-1.86,1.04-.61,0-1.09-.19-1.44-.57s-.53-.88-.53-1.51c0-.73,.24-1.28,.72-1.66,.48-.38,1.16-.57,2.04-.57h.88v-.58c0-.48-.1-.82-.29-1.03-.19-.21-.51-.32-.96-.32-.48,0-1.03,.12-1.66,.36l-.29-.82c.76-.31,1.47-.47,2.13-.47,1.48,0,2.22,.74,2.22,2.22v3.22c0,.28,.04,.48,.12,.62Zm-1.49-9.42l.49,.94-2.5,1.13-.34-.6,2.34-1.47Zm.22,8.58v-1.61h-.75c-1.13,0-1.69,.47-1.69,1.42,0,.41,.09,.72,.27,.94,.18,.22,.44,.33,.78,.33,.61,0,1.07-.36,1.39-1.07Z"/>
  </g>
  <rect class="cls-8" x="132.36" y="87.15" width="344.75" height="24"/>
  <g>
    <path class="cls-6" d="M60.28,94.95v9.67h-1.83v-9.67h1.83Z"/>
    <path class="cls-6" d="M67.91,97.6c.37,.4,.55,.95,.55,1.66v5.36h-1.77v-5.08c0-.44-.08-.75-.23-.92s-.38-.27-.67-.27-.58,.1-.83,.29c-.24,.19-.48,.47-.71,.83v5.15h-1.77v-7.41h1.54l.14,.97c.6-.78,1.34-1.18,2.23-1.18,.66,0,1.17,.2,1.53,.6Z"/>
    <path class="cls-6" d="M76.33,97.21l-2.38,7.41h-2.12l-2.43-7.41h1.93l1.57,5.96,1.61-5.96h1.83Z"/>
    <path class="cls-6" d="M82.71,103.3c.09,.14,.23,.24,.42,.32l-.37,1.19c-.42-.04-.76-.14-1.02-.31-.26-.17-.46-.42-.6-.77-.25,.37-.56,.65-.94,.83s-.79,.27-1.25,.27c-.73,0-1.31-.21-1.73-.63-.43-.42-.64-.97-.64-1.65,0-.8,.29-1.42,.87-1.84,.58-.42,1.4-.64,2.47-.64h.92v-.42c0-.48-.11-.81-.33-1-.22-.19-.57-.29-1.05-.29-.54,0-1.18,.13-1.94,.39l-.42-1.22c.92-.35,1.8-.53,2.66-.53,1.88,0,2.81,.85,2.81,2.55v3.11c0,.29,.04,.5,.13,.64Zm-1.88-.68v-1.5h-.73c-1.15,0-1.72,.43-1.72,1.29,0,.35,.09,.63,.26,.83,.18,.2,.43,.29,.78,.29,.6,0,1.07-.3,1.41-.91Z"/>
    <path class="cls-6" d="M85,104.33c-.32-.33-.48-.8-.48-1.41v-8.68l1.77-.2v8.82c0,.35,.14,.52,.42,.52,.14,0,.28-.02,.42-.07l.37,1.26c-.37,.17-.76,.25-1.18,.25-.56,0-1-.17-1.32-.5Z"/>
    <path class="cls-6" d="M90.36,93.78c.21,.21,.31,.47,.31,.78s-.1,.56-.31,.77-.48,.31-.81,.31-.59-.1-.8-.31-.31-.46-.31-.77,.1-.57,.31-.78c.21-.21,.47-.32,.8-.32s.6,.1,.81,.32Zm.09,3.44v7.41h-1.77v-7.41h1.77Z"/>
    <path class="cls-6" d="M98.75,94.25v10.37h-1.57l-.12-.94c-.23,.35-.52,.63-.88,.84-.36,.21-.76,.31-1.21,.31-.9,0-1.58-.35-2.07-1.05-.48-.7-.72-1.65-.72-2.86,0-.76,.12-1.43,.36-2.02,.24-.59,.58-1.06,1.03-1.39,.45-.34,.97-.5,1.56-.5,.7,0,1.32,.27,1.84,.8v-3.75l1.77,.2Zm-2.45,9c.24-.15,.47-.39,.68-.72v-3.39c-.21-.26-.43-.46-.64-.59-.22-.13-.47-.2-.76-.2-.47,0-.84,.21-1.12,.64s-.41,1.07-.41,1.92c0,.91,.12,1.57,.36,1.97,.24,.4,.59,.6,1.05,.6,.31,0,.59-.08,.83-.23Z"/>
    <path class="cls-6" d="M102.57,93.78c.21,.21,.31,.47,.31,.78s-.1,.56-.31,.77-.48,.31-.81,.31-.59-.1-.8-.31-.31-.46-.31-.77,.1-.57,.31-.78c.21-.21,.47-.32,.8-.32s.6,.1,.81,.32Zm.09,3.44v7.41h-1.77v-7.41h1.77Z"/>
    <path class="cls-6" d="M109,104.27c-.26,.19-.55,.33-.87,.42-.32,.09-.64,.14-.98,.14-.72,0-1.27-.22-1.64-.62-.37-.41-.56-1.01-.56-1.8v-3.91h-1.15v-1.29h1.15v-1.64l1.77-.21v1.85h1.7l-.18,1.29h-1.52v3.86c0,.36,.06,.63,.19,.78,.12,.16,.32,.24,.59,.24s.56-.09,.87-.27l.62,1.15Z"/>
    <path class="cls-6" d="M115.41,103.3c.09,.14,.23,.24,.42,.32l-.37,1.19c-.42-.04-.76-.14-1.02-.31-.26-.17-.46-.42-.6-.77-.25,.37-.56,.65-.94,.83s-.79,.27-1.25,.27c-.73,0-1.31-.21-1.73-.63-.43-.42-.64-.97-.64-1.65,0-.8,.29-1.42,.87-1.84,.58-.42,1.4-.64,2.47-.64h.92v-.42c0-.48-.11-.81-.33-1-.22-.19-.57-.29-1.05-.29-.54,0-1.18,.13-1.94,.39l-.42-1.22c.92-.35,1.8-.53,2.66-.53,1.88,0,2.81,.85,2.81,2.55v3.11c0,.29,.04,.5,.13,.64Zm-1.88-.68v-1.5h-.73c-1.15,0-1.72,.43-1.72,1.29,0,.35,.09,.63,.26,.83,.18,.2,.43,.29,.78,.29,.6,0,1.07-.3,1.41-.91Z"/>
  </g>
  <g>
    <path class="cls-7" d="M492.37,98.75c.4,.24,.72,.59,.95,1.05,.23,.46,.35,1.02,.35,1.66s-.13,1.24-.4,1.76c-.27,.52-.64,.92-1.13,1.22-.49,.29-1.04,.44-1.66,.44-1.15,0-1.99-.41-2.54-1.22s-.82-1.93-.82-3.35c0-1.05,.15-1.96,.46-2.75s.75-1.4,1.33-1.83c.58-.43,1.25-.65,2.03-.65s1.45,.2,2.04,.6l-.67,1.11c-.42-.25-.87-.38-1.34-.38-.59,0-1.06,.27-1.42,.8-.36,.54-.56,1.28-.6,2.22,.56-.69,1.26-1.04,2.09-1.04,.49,0,.94,.12,1.34,.36Zm-.85,4.24c.24-.37,.35-.87,.35-1.51s-.11-1.1-.33-1.38c-.22-.27-.53-.41-.95-.41-.31,0-.61,.09-.89,.26-.28,.17-.53,.41-.76,.71,.02,1.02,.15,1.75,.38,2.21,.24,.45,.62,.68,1.14,.68,.46,0,.81-.18,1.05-.55Z"/>
    <path class="cls-7" d="M500.56,96.34c.57,.84,.85,2.05,.85,3.63s-.28,2.8-.85,3.65c-.57,.84-1.4,1.27-2.49,1.27s-1.92-.42-2.49-1.27c-.57-.84-.85-2.06-.85-3.65s.28-2.79,.85-3.63c.57-.84,1.4-1.26,2.49-1.26s1.92,.42,2.49,1.26Zm-3.64,.9c-.24,.54-.36,1.44-.36,2.72s.12,2.2,.36,2.74c.24,.54,.62,.81,1.15,.81s.91-.27,1.15-.81c.24-.54,.36-1.45,.36-2.75s-.12-2.2-.36-2.73c-.24-.53-.62-.8-1.15-.8s-.91,.27-1.15,.81Z"/>
    <path class="cls-6" d="M512.7,94.32v10.35h-1.12l-.12-1.02c-.24,.37-.54,.67-.9,.88s-.76,.31-1.21,.31c-.87,0-1.54-.35-2.03-1.04-.49-.69-.73-1.62-.73-2.79,0-.76,.12-1.43,.35-2.02,.23-.59,.56-1.05,1-1.38,.43-.33,.94-.5,1.52-.5,.75,0,1.4,.3,1.97,.91v-3.86l1.28,.15Zm-2.08,9.22c.28-.18,.54-.46,.8-.82v-3.61c-.24-.32-.5-.56-.77-.72-.27-.16-.58-.25-.92-.25-.56,0-1,.24-1.31,.71s-.46,1.19-.46,2.13,.14,1.66,.43,2.13c.29,.47,.7,.7,1.23,.7,.39,0,.72-.09,1-.27Z"/>
    <path class="cls-6" d="M520.33,97.72c.37,.4,.56,.95,.56,1.65v5.29h-1.28v-5.11c0-.52-.1-.89-.29-1.11-.19-.21-.48-.32-.86-.32s-.73,.11-1.03,.34c-.3,.22-.57,.55-.83,.97v5.24h-1.28v-7.38h1.1l.11,1.09c.26-.39,.58-.7,.96-.92,.38-.22,.81-.34,1.27-.34,.67,0,1.19,.2,1.56,.6Z"/>
    <path class="cls-6" d="M525.18,93.45l.57,1.08-2.94,1.2-.39-.69,2.76-1.6Zm-.46,3.84v7.38h-1.28v-7.38h1.28Z"/>
  </g>
  <rect class="cls-8" x="132.36" y="132.3" width="293.04" height="24"/>
  <g>
    <path class="cls-6" d="M12.77,139.07v1.43l-4.42,6.73h4.46l-.19,1.51H6.21v-1.41l4.5-6.79H6.67v-1.47h6.1Z"/>
    <path class="cls-6" d="M20.04,141.33l-2.38,7.41h-2.12l-2.43-7.41h1.93l1.57,5.96,1.61-5.96h1.83Z"/>
    <path class="cls-6" d="M21.55,148.45c-.32-.33-.48-.8-.48-1.41v-8.68l1.77-.2v8.82c0,.35,.14,.52,.42,.52,.14,0,.28-.02,.42-.07l.37,1.26c-.37,.17-.76,.25-1.18,.25-.56,0-1-.17-1.32-.5Z"/>
    <path class="cls-6" d="M30.71,147.42c.09,.14,.23,.24,.42,.32l-.37,1.19c-.42-.04-.76-.14-1.02-.31-.26-.17-.46-.42-.6-.77-.25,.37-.56,.65-.94,.83s-.79,.27-1.25,.27c-.73,0-1.31-.21-1.73-.63-.43-.42-.64-.97-.64-1.65,0-.8,.29-1.42,.87-1.84,.58-.42,1.4-.64,2.47-.64h.92v-.42c0-.48-.11-.81-.33-1-.22-.19-.57-.29-1.05-.29-.54,0-1.18,.13-1.94,.39l-.42-1.22c.92-.35,1.8-.53,2.66-.53,1.88,0,2.81,.85,2.81,2.55v3.11c0,.29,.04,.5,.13,.64Zm-1.88-10.16l.72,1.4-3.13,1.26-.5-.91,2.91-1.75Zm0,9.48v-1.5h-.73c-1.15,0-1.72,.43-1.72,1.29,0,.35,.09,.63,.26,.83,.18,.2,.43,.29,.78,.29,.6,0,1.07-.3,1.41-.91Z"/>
    <path class="cls-6" d="M37.51,142.01l-.69,1.05c-.63-.4-1.24-.6-1.84-.6-.35,0-.62,.07-.82,.2-.19,.14-.29,.31-.29,.54,0,.17,.04,.31,.12,.42s.23,.22,.45,.31c.22,.1,.54,.21,.96,.33,.79,.21,1.38,.5,1.77,.85,.38,.35,.57,.85,.57,1.48,0,.74-.29,1.31-.89,1.73-.59,.42-1.33,.62-2.2,.62-.6,0-1.15-.09-1.64-.28-.5-.19-.92-.44-1.28-.77l.89-1.01c.64,.49,1.3,.73,2,.73,.4,0,.71-.08,.95-.24s.35-.38,.35-.66c0-.21-.04-.38-.13-.51s-.25-.24-.47-.34c-.23-.1-.58-.22-1.06-.36-.75-.21-1.3-.49-1.65-.86-.35-.37-.53-.83-.53-1.38,0-.41,.12-.78,.35-1.11,.24-.33,.57-.58,1-.77,.43-.19,.92-.28,1.48-.28,.99,0,1.86,.29,2.61,.88Zm-.76-4.47l.68,.78-1.93,1.75h-1.11l-1.93-1.75,.68-.78,1.8,1.23,1.8-1.23Z"/>
    <path class="cls-6" d="M43.38,148.39c-.26,.19-.55,.33-.87,.42-.32,.09-.64,.14-.98,.14-.72,0-1.27-.22-1.64-.62-.37-.41-.56-1.01-.56-1.8v-3.91h-1.15v-1.29h1.15v-1.64l1.77-.21v1.85h1.7l-.18,1.29h-1.52v3.86c0,.36,.06,.63,.19,.78,.12,.16,.32,.24,.59,.24s.56-.09,.87-.27l.62,1.15Z"/>
    <path class="cls-6" d="M49.82,141.72c.37,.4,.55,.95,.55,1.66v5.36h-1.77v-5.08c0-.44-.08-.75-.23-.92s-.38-.27-.67-.27-.58,.1-.83,.29c-.24,.19-.48,.47-.71,.83v5.15h-1.77v-7.41h1.54l.14,.97c.6-.78,1.34-1.18,2.23-1.18,.66,0,1.17,.2,1.53,.6Z"/>
    <path class="cls-6" d="M54.37,137.26l.72,1.4-3.13,1.26-.5-.91,2.91-1.75Zm-.17,4.07v7.41h-1.77v-7.41h1.77Z"/>
    <path class="cls-6" d="M65.66,142.15c.44,.68,.67,1.64,.67,2.87,0,.77-.11,1.44-.34,2.04-.23,.59-.56,1.06-1,1.39-.44,.34-.96,.5-1.56,.5-.78,0-1.39-.27-1.84-.81v3.46l-1.77,.2v-10.46h1.55l.1,.91c.29-.37,.61-.65,.98-.84,.37-.19,.76-.28,1.17-.28,.92,0,1.61,.34,2.05,1.02Zm-1.19,2.88c0-.91-.12-1.56-.35-1.96-.23-.4-.58-.6-1.04-.6-.3,0-.57,.09-.83,.27s-.48,.43-.67,.73v3.33c.34,.51,.79,.77,1.34,.77,1.03,0,1.54-.85,1.54-2.55Z"/>
    <path class="cls-6" d="M73.59,142.17c.6,.7,.91,1.65,.91,2.86,0,.77-.14,1.46-.42,2.05-.28,.59-.67,1.05-1.19,1.38-.52,.33-1.13,.49-1.84,.49-1.08,0-1.93-.35-2.54-1.04s-.92-1.65-.92-2.88c0-.77,.14-1.46,.42-2.04s.68-1.05,1.2-1.37c.52-.33,1.14-.49,1.85-.49,1.08,0,1.92,.35,2.53,1.04Zm-4.12,2.86c0,.88,.13,1.52,.4,1.94,.26,.42,.66,.62,1.18,.62s.92-.21,1.19-.63c.26-.42,.39-1.06,.39-1.93s-.13-1.51-.39-1.92c-.26-.42-.65-.62-1.17-.62-1.06,0-1.59,.85-1.59,2.55Z"/>
    <path class="cls-6" d="M85.35,141.73c.35,.41,.53,.95,.53,1.65v5.36h-1.77v-5.08c0-.79-.27-1.19-.8-1.19-.29,0-.53,.09-.74,.27s-.42,.46-.64,.85v5.15h-1.77v-5.08c0-.79-.27-1.19-.8-1.19-.3,0-.55,.09-.76,.27-.21,.18-.42,.46-.64,.85v5.15h-1.77v-7.41h1.54l.14,.97c.55-.78,1.26-1.18,2.12-1.18,.42,0,.79,.11,1.1,.33,.31,.22,.53,.52,.67,.92,.3-.4,.62-.71,.98-.92s.76-.32,1.23-.32c.59,0,1.06,.2,1.41,.61Z"/>
    <path class="cls-6" d="M93.81,148.74h-1.54l-.1-1.04c-.27,.42-.58,.73-.95,.94-.36,.21-.8,.31-1.3,.31-.66,0-1.16-.2-1.52-.61-.36-.41-.53-.97-.53-1.69v-5.32h1.77v5.1c0,.42,.07,.72,.21,.9,.14,.18,.37,.27,.69,.27,.56,0,1.06-.35,1.48-1.05v-5.21h1.77v7.41Zm-1.69-11.46c.32,.32,.49,.72,.49,1.2s-.17,.86-.49,1.19c-.33,.33-.75,.49-1.27,.49s-.95-.16-1.28-.49-.49-.72-.49-1.19,.16-.88,.49-1.2,.76-.48,1.28-.48,.95,.16,1.28,.48Zm-1.77,.65c-.12,.13-.18,.31-.18,.55s.06,.41,.18,.54,.29,.19,.5,.19,.37-.06,.49-.19,.18-.31,.18-.54-.06-.42-.18-.55c-.12-.13-.28-.2-.49-.2s-.38,.07-.5,.2Z"/>
    <path class="cls-6" d="M100.19,141.33c.38,.14,.75,.36,1.09,.66l-.79,1.08c-.25-.19-.49-.32-.72-.41-.23-.08-.49-.13-.76-.13-1.1,0-1.65,.84-1.65,2.53,0,.86,.14,1.48,.43,1.85,.29,.38,.69,.57,1.22,.57,.26,0,.5-.04,.71-.13,.22-.08,.47-.22,.77-.41l.79,1.13c-.69,.57-1.48,.85-2.37,.85-.7,0-1.31-.16-1.83-.47-.52-.31-.92-.76-1.19-1.34-.28-.58-.42-1.26-.42-2.04s.14-1.48,.42-2.08c.28-.6,.67-1.07,1.19-1.4,.52-.33,1.12-.5,1.82-.5,.48,0,.91,.07,1.3,.21Z"/>
    <path class="cls-6" d="M104.34,138.17v10.57h-1.77v-10.37l1.77-.2Zm4.39,3.16l-2.44,3.26,2.67,4.14h-2.04l-2.52-4.05,2.45-3.36h1.87Z"/>
    <path class="cls-6" d="M113.51,148.77c-.3,.91-.74,1.63-1.34,2.14-.6,.51-1.42,.8-2.47,.89l-.18-1.3c.48-.07,.87-.18,1.16-.31s.52-.31,.7-.54c.18-.22,.34-.52,.49-.9h-.61l-2.33-7.41h1.89l1.59,6.22,1.66-6.22h1.83l-2.38,7.43Z"/>
  </g>
  <g>
    <path class="cls-7" d="M441.22,141.73h-3.49v2.34c.46-.23,.93-.35,1.41-.35,.52,0,.98,.12,1.39,.36,.41,.24,.72,.59,.95,1.05,.23,.46,.34,1,.34,1.62s-.14,1.21-.43,1.71c-.29,.49-.69,.88-1.22,1.15-.53,.28-1.14,.41-1.83,.41-.62,0-1.17-.11-1.64-.34-.48-.23-.91-.56-1.3-.99l1.01-.95c.54,.6,1.16,.9,1.88,.9,.53,0,.94-.16,1.24-.49,.3-.33,.45-.79,.45-1.4,0-1.17-.5-1.75-1.5-1.75-.21,0-.41,.03-.6,.08s-.39,.13-.61,.24h-1.26v-4.93h5.41l-.21,1.33Z"/>
    <path class="cls-7" d="M446.52,140.4v9.42h-1.75v-7.62l-2.08,1.27-.78-1.2,3.04-1.88h1.57Z"/>
    <path class="cls-6" d="M458.27,139.47v10.35h-1.12l-.12-1.02c-.24,.37-.54,.67-.9,.88s-.76,.31-1.21,.31c-.87,0-1.54-.35-2.03-1.04-.49-.69-.73-1.62-.73-2.79,0-.76,.12-1.43,.35-2.02,.23-.59,.56-1.05,1-1.38,.43-.33,.94-.5,1.52-.5,.75,0,1.4,.3,1.97,.91v-3.86l1.28,.15Zm-2.08,9.22c.28-.18,.54-.46,.8-.82v-3.61c-.24-.32-.5-.56-.77-.72-.27-.16-.58-.25-.92-.25-.56,0-1,.24-1.31,.71s-.46,1.19-.46,2.13,.14,1.66,.43,2.13c.29,.47,.7,.7,1.23,.7,.39,0,.72-.09,1-.27Z"/>
    <path class="cls-6" d="M465.9,142.88c.37,.4,.56,.95,.56,1.65v5.29h-1.28v-5.11c0-.52-.1-.89-.29-1.11-.19-.21-.48-.32-.86-.32s-.73,.11-1.03,.34c-.3,.22-.57,.55-.83,.97v5.24h-1.28v-7.38h1.1l.11,1.09c.26-.39,.58-.7,.96-.92,.38-.22,.81-.34,1.27-.34,.67,0,1.19,.2,1.56,.6Z"/>
    <path class="cls-6" d="M470.76,138.6l.57,1.08-2.94,1.2-.39-.69,2.76-1.6Zm-.46,3.84v7.38h-1.28v-7.38h1.28Z"/>
  </g>
  <rect class="cls-8" x="132.36" y="177.45" width="310.28" height="24"/>
  <g>
    <path class="cls-6" d="M52.34,186.41c.68,.51,1.02,1.28,1.02,2.31s-.34,1.88-1.03,2.42c-.68,.54-1.59,.81-2.73,.81h-1.12v3.37h-1.83v-9.67h2.83c1.23,0,2.18,.26,2.86,.77Zm-1.39,3.73c.33-.28,.5-.75,.5-1.42,0-1.15-.66-1.72-1.98-1.72h-.98v3.56h.98c.66,0,1.15-.14,1.48-.41Z"/>
    <path class="cls-6" d="M58.86,187.81l-.3,1.74c-.22-.06-.44-.08-.65-.08-.43,0-.78,.16-1.03,.47-.25,.31-.45,.79-.6,1.43v3.95h-1.77v-7.41h1.54l.17,1.46c.17-.53,.43-.94,.76-1.22s.72-.43,1.15-.43c.27,0,.51,.03,.73,.1Z"/>
    <path class="cls-6" d="M65.84,195.31h-1.54l-.1-1.04c-.27,.42-.58,.73-.95,.94-.36,.21-.8,.31-1.3,.31-.66,0-1.16-.2-1.52-.61-.36-.41-.53-.97-.53-1.69v-5.32h1.77v5.1c0,.42,.07,.72,.21,.9,.14,.18,.37,.27,.69,.27,.56,0,1.06-.35,1.48-1.05v-5.21h1.77v7.41Zm-1.69-11.46c.32,.32,.49,.72,.49,1.2s-.17,.86-.49,1.19c-.33,.33-.75,.49-1.27,.49s-.95-.16-1.28-.49-.49-.72-.49-1.19,.16-.88,.49-1.2,.76-.48,1.28-.48,.95,.16,1.28,.48Zm-1.77,.65c-.12,.13-.18,.31-.18,.55s.06,.41,.18,.54,.29,.19,.5,.19,.37-.06,.49-.19,.18-.31,.18-.54-.06-.42-.18-.55c-.12-.13-.28-.2-.49-.2s-.38,.07-.5,.2Z"/>
    <path class="cls-6" d="M69.74,184.74v10.57h-1.77v-10.37l1.77-.2Zm4.39,3.16l-2.44,3.26,2.67,4.14h-2.04l-2.52-4.05,2.45-3.36h1.87Z"/>
    <path class="cls-6" d="M80.72,193.99c.09,.14,.23,.24,.42,.32l-.37,1.19c-.42-.04-.76-.14-1.02-.31-.26-.17-.46-.42-.6-.77-.25,.37-.56,.65-.94,.83s-.79,.27-1.25,.27c-.73,0-1.31-.21-1.73-.63-.43-.42-.64-.97-.64-1.65,0-.8,.29-1.42,.87-1.84,.58-.42,1.4-.64,2.47-.64h.92v-.42c0-.48-.11-.81-.33-1-.22-.19-.57-.29-1.05-.29-.54,0-1.18,.13-1.94,.39l-.42-1.22c.92-.35,1.8-.53,2.66-.53,1.88,0,2.81,.85,2.81,2.55v3.11c0,.29,.04,.5,.13,.64Zm-1.88-.68v-1.5h-.73c-1.15,0-1.72,.43-1.72,1.29,0,.35,.09,.63,.26,.83,.18,.2,.43,.29,.78,.29,.6,0,1.07-.3,1.41-.91Z"/>
    <path class="cls-6" d="M87.5,187.91v1.29l-3.55,4.72h3.62l-.18,1.4h-5.48v-1.29l3.56-4.72h-3.26v-1.4h5.28Z"/>
    <path class="cls-6" d="M98.38,186.02c.63,.39,1.11,.97,1.45,1.72,.34,.76,.51,1.67,.51,2.73s-.17,1.96-.51,2.72-.83,1.33-1.46,1.74c-.63,.4-1.37,.6-2.22,.6s-1.6-.2-2.23-.59c-.63-.39-1.11-.97-1.46-1.72s-.51-1.67-.51-2.73,.17-1.95,.51-2.71,.83-1.34,1.46-1.74c.63-.4,1.37-.6,2.22-.6s1.6,.2,2.23,.59Zm-3.92,1.7c-.39,.58-.58,1.51-.58,2.77,0,2.42,.76,3.63,2.27,3.63,.74,0,1.3-.29,1.68-.87s.58-1.5,.58-2.77-.19-2.18-.58-2.76c-.38-.58-.94-.87-1.68-.87s-1.3,.29-1.69,.88Z"/>
    <path class="cls-6" d="M107.46,185.64v1.43l-4.42,6.73h4.46l-.19,1.51h-6.4v-1.41l4.5-6.79h-4.05v-1.47h6.1Z"/>
    <path class="cls-6" d="M114.8,186.41c.68,.51,1.02,1.28,1.02,2.31s-.34,1.88-1.03,2.42c-.68,.54-1.59,.81-2.73,.81h-1.12v3.37h-1.83v-9.67h2.83c1.23,0,2.18,.26,2.86,.77Zm-1.39,3.73c.33-.28,.5-.75,.5-1.42,0-1.15-.66-1.72-1.98-1.72h-.98v3.56h.98c.66,0,1.15-.14,1.48-.41Z"/>
  </g>
  <g>
    <path class="cls-7" d="M458.46,186.88h-3.49v2.34c.46-.23,.93-.35,1.41-.35,.52,0,.98,.12,1.39,.36,.41,.24,.72,.59,.95,1.05,.23,.46,.34,1,.34,1.62s-.14,1.21-.43,1.71c-.29,.49-.69,.88-1.22,1.15-.53,.28-1.14,.41-1.83,.41-.62,0-1.17-.11-1.64-.34-.48-.23-.91-.56-1.3-.99l1.01-.95c.54,.6,1.16,.9,1.88,.9,.53,0,.94-.16,1.24-.49,.3-.33,.45-.79,.45-1.4,0-1.17-.5-1.75-1.5-1.75-.21,0-.41,.03-.6,.08s-.39,.13-.61,.24h-1.26v-4.93h5.41l-.21,1.33Z"/>
    <path class="cls-7" d="M466.86,191.44v1.37h-1.12v2.16h-1.73v-2.16h-3.96v-1.23l2.72-6.22,1.51,.57-2.38,5.5h2.13l.18-2.37h1.54v2.37h1.12Z"/>
    <path class="cls-6" d="M477.64,184.62v10.35h-1.12l-.12-1.02c-.24,.37-.54,.67-.9,.88s-.76,.31-1.21,.31c-.87,0-1.54-.35-2.03-1.04-.49-.69-.73-1.62-.73-2.79,0-.76,.12-1.43,.35-2.02,.23-.59,.56-1.05,1-1.38,.43-.33,.94-.5,1.52-.5,.75,0,1.4,.3,1.97,.91v-3.86l1.28,.15Zm-2.08,9.22c.28-.18,.54-.46,.8-.82v-3.61c-.24-.32-.5-.56-.77-.72-.27-.16-.58-.25-.92-.25-.56,0-1,.24-1.31,.71s-.46,1.19-.46,2.13,.14,1.66,.43,2.13c.29,.47,.7,.7,1.23,.7,.39,0,.72-.09,1-.27Z"/>
    <path class="cls-6" d="M485.27,188.02c.37,.4,.56,.95,.56,1.65v5.29h-1.28v-5.11c0-.52-.1-.89-.29-1.11-.19-.21-.48-.32-.86-.32s-.73,.11-1.03,.34c-.3,.22-.57,.55-.83,.97v5.24h-1.28v-7.38h1.1l.11,1.09c.26-.39,.58-.7,.96-.92,.38-.22,.81-.34,1.27-.34,.67,0,1.19,.2,1.56,.6Z"/>
    <path class="cls-6" d="M490.13,183.75l.57,1.08-2.94,1.2-.39-.69,2.76-1.6Zm-.46,3.84v7.38h-1.28v-7.38h1.28Z"/>
  </g>
  <rect class="cls-8" x="132.36" y="222.6" width="316.02" height="24"/>
  <g>
    <path class="cls-6" d="M12.91,229.91c.68,.51,1.02,1.28,1.02,2.31s-.34,1.88-1.03,2.42c-.68,.54-1.59,.81-2.73,.81h-1.12v3.37h-1.83v-9.67h2.83c1.23,0,2.18,.26,2.86,.77Zm-1.39,3.73c.33-.28,.5-.75,.5-1.42,0-1.15-.66-1.72-1.98-1.72h-.98v3.56h.98c.66,0,1.15-.14,1.48-.41Z"/>
    <path class="cls-6" d="M19.09,227.61l.68,.78-1.93,1.75h-1.11l-1.93-1.75,.68-.78,1.8,1.23,1.8-1.23Zm.35,3.7l-.3,1.74c-.22-.06-.44-.08-.65-.08-.43,0-.78,.16-1.03,.47-.25,.31-.45,.79-.6,1.43v3.95h-1.77v-7.41h1.54l.17,1.46c.17-.53,.43-.94,.76-1.22s.72-.43,1.15-.43c.27,0,.51,.03,.73,.1Z"/>
    <path class="cls-6" d="M22.48,227.33l.72,1.4-3.13,1.26-.5-.91,2.91-1.75Zm-.17,4.07v7.41h-1.77v-7.41h1.77Z"/>
    <path class="cls-6" d="M29.37,232.08l-.69,1.05c-.63-.4-1.24-.6-1.84-.6-.35,0-.62,.07-.82,.2-.19,.14-.29,.31-.29,.54,0,.17,.04,.31,.12,.42s.23,.22,.45,.31c.22,.1,.54,.21,.96,.33,.79,.21,1.38,.5,1.77,.85,.38,.35,.57,.85,.57,1.48,0,.74-.29,1.31-.89,1.73-.59,.42-1.33,.62-2.2,.62-.6,0-1.15-.09-1.64-.28-.5-.19-.92-.44-1.28-.77l.89-1.01c.64,.49,1.3,.73,2,.73,.4,0,.71-.08,.95-.24s.35-.38,.35-.66c0-.21-.04-.38-.13-.51s-.25-.24-.47-.34c-.23-.1-.58-.22-1.06-.36-.75-.21-1.3-.49-1.65-.86-.35-.37-.53-.83-.53-1.38,0-.41,.12-.78,.35-1.11,.24-.33,.57-.58,1-.77,.43-.19,.92-.28,1.48-.28,.99,0,1.86,.29,2.61,.88Z"/>
    <path class="cls-6" d="M36.9,232.22c.44,.68,.67,1.64,.67,2.87,0,.77-.11,1.44-.34,2.04-.23,.59-.56,1.06-1,1.39-.44,.34-.96,.5-1.56,.5-.78,0-1.39-.27-1.84-.81v3.46l-1.77,.2v-10.46h1.55l.1,.91c.29-.37,.61-.65,.98-.84,.37-.19,.76-.28,1.17-.28,.92,0,1.61,.34,2.05,1.02Zm-1.19,2.88c0-.91-.12-1.56-.35-1.96-.23-.4-.58-.6-1.04-.6-.3,0-.57,.09-.83,.27s-.48,.43-.67,.73v3.33c.34,.51,.79,.77,1.34,.77,1.03,0,1.54-.85,1.54-2.55Z"/>
    <path class="cls-6" d="M45.28,235.66h-4.6c.06,.72,.24,1.23,.55,1.54,.31,.31,.73,.46,1.25,.46,.32,0,.63-.05,.92-.16,.29-.11,.59-.27,.91-.5l.74,1.02c-.81,.66-1.72,.99-2.72,.99-1.12,0-1.98-.35-2.58-1.04-.61-.69-.91-1.63-.91-2.83,0-.76,.13-1.44,.39-2.04,.26-.6,.63-1.07,1.12-1.41,.49-.34,1.07-.51,1.75-.51,1.03,0,1.82,.33,2.38,.99,.56,.66,.84,1.57,.84,2.75,0,.09-.01,.34-.04,.73Zm-1.34-8.05l.68,.78-1.93,1.75h-1.11l-1.93-1.75,.68-.78,1.8,1.23,1.8-1.23Zm-.37,6.8c0-1.3-.48-1.95-1.43-1.95-.43,0-.77,.16-1.02,.48-.25,.32-.39,.84-.44,1.55h2.88v-.08Z"/>
    <path class="cls-6" d="M52.72,231.4l-2.38,7.41h-2.12l-2.43-7.41h1.93l1.57,5.96,1.61-5.96h1.83Z"/>
    <path class="cls-6" d="M59.71,235.66h-4.6c.06,.72,.24,1.23,.55,1.54,.31,.31,.73,.46,1.25,.46,.32,0,.63-.05,.92-.16,.29-.11,.59-.27,.91-.5l.74,1.02c-.81,.66-1.72,.99-2.72,.99-1.12,0-1.98-.35-2.58-1.04-.61-.69-.91-1.63-.91-2.83,0-.76,.13-1.44,.39-2.04,.26-.6,.63-1.07,1.12-1.41,.49-.34,1.07-.51,1.75-.51,1.03,0,1.82,.33,2.38,.99,.56,.66,.84,1.57,.84,2.75,0,.09-.01,.34-.04,.73Zm-1.34-8.05l.68,.78-1.93,1.75h-1.11l-1.93-1.75,.68-.78,1.8,1.23,1.8-1.23Zm-.37,6.8c0-1.3-.48-1.95-1.43-1.95-.43,0-.77,.16-1.02,.48-.25,.32-.39,.84-.44,1.55h2.88v-.08Z"/>
    <path class="cls-6" d="M63.12,228.24v10.57h-1.77v-10.37l1.77-.2Zm4.39,3.16l-2.44,3.26,2.67,4.14h-2.04l-2.52-4.05,2.45-3.36h1.87Z"/>
    <path class="cls-6" d="M77.65,231.79c.37,.4,.55,.95,.55,1.66v5.36h-1.77v-5.08c0-.44-.08-.75-.23-.92s-.38-.27-.67-.27-.58,.1-.83,.29c-.24,.19-.48,.47-.71,.83v5.15h-1.77v-7.41h1.54l.14,.97c.6-.78,1.34-1.18,2.23-1.18,.66,0,1.17,.2,1.53,.6Z"/>
    <path class="cls-6" d="M85.81,237.49c.09,.14,.23,.24,.42,.32l-.37,1.19c-.42-.04-.76-.14-1.02-.31-.26-.17-.46-.42-.6-.77-.25,.37-.56,.65-.94,.83s-.79,.27-1.25,.27c-.73,0-1.31-.21-1.73-.63-.43-.42-.64-.97-.64-1.65,0-.8,.29-1.42,.87-1.84,.58-.42,1.4-.64,2.47-.64h.92v-.42c0-.48-.11-.81-.33-1-.22-.19-.57-.29-1.05-.29-.54,0-1.18,.13-1.94,.39l-.42-1.22c.92-.35,1.8-.53,2.66-.53,1.88,0,2.81,.85,2.81,2.55v3.11c0,.29,.04,.5,.13,.64Zm-1.88-.68v-1.5h-.73c-1.15,0-1.72,.43-1.72,1.29,0,.35,.09,.63,.26,.83,.18,.2,.43,.29,.78,.29,.6,0,1.07-.3,1.41-.91Z"/>
    <path class="cls-6" d="M97.14,232.22c.44,.68,.67,1.64,.67,2.87,0,.77-.11,1.44-.34,2.04-.23,.59-.56,1.06-1,1.39-.44,.34-.96,.5-1.56,.5-.78,0-1.39-.27-1.84-.81v3.46l-1.77,.2v-10.46h1.55l.1,.91c.29-.37,.61-.65,.98-.84,.37-.19,.76-.28,1.17-.28,.92,0,1.61,.34,2.05,1.02Zm-1.19,2.88c0-.91-.12-1.56-.35-1.96-.23-.4-.58-.6-1.04-.6-.3,0-.57,.09-.83,.27s-.48,.43-.67,.73v3.33c.34,.51,.79,.77,1.34,.77,1.03,0,1.54-.85,1.54-2.55Z"/>
    <path class="cls-6" d="M105.53,235.66h-4.6c.06,.72,.24,1.23,.55,1.54,.31,.31,.73,.46,1.25,.46,.32,0,.63-.05,.92-.16,.29-.11,.59-.27,.91-.5l.74,1.02c-.81,.66-1.72,.99-2.72,.99-1.12,0-1.98-.35-2.58-1.04-.61-.69-.91-1.63-.91-2.83,0-.76,.13-1.44,.39-2.04,.26-.6,.63-1.07,1.12-1.41,.49-.34,1.07-.51,1.75-.51,1.03,0,1.82,.33,2.38,.99,.56,.66,.84,1.57,.84,2.75,0,.09-.01,.34-.04,.73Zm-2.09-8.33l.72,1.4-3.13,1.26-.5-.91,2.91-1.75Zm.37,7.08c0-1.3-.48-1.95-1.43-1.95-.43,0-.77,.16-1.02,.48-.25,.32-.39,.84-.44,1.55h2.88v-.08Z"/>
    <path class="cls-6" d="M111.41,231.4c.38,.14,.75,.36,1.09,.66l-.79,1.08c-.25-.19-.49-.32-.72-.41-.23-.08-.49-.13-.76-.13-1.1,0-1.65,.84-1.65,2.53,0,.86,.14,1.48,.43,1.85,.29,.38,.69,.57,1.22,.57,.26,0,.5-.04,.71-.13,.22-.08,.47-.22,.77-.41l.79,1.13c-.69,.57-1.48,.85-2.37,.85-.7,0-1.31-.16-1.83-.47-.52-.31-.92-.76-1.19-1.34-.28-.58-.42-1.26-.42-2.04s.14-1.48,.42-2.08c.28-.6,.67-1.07,1.19-1.4,.52-.33,1.12-.5,1.82-.5,.48,0,.91,.07,1.3,.21Zm.51-3.79l.68,.78-1.93,1.75h-1.11l-1.93-1.75,.68-.78,1.8,1.23,1.8-1.23Z"/>
    <path class="cls-6" d="M115.47,227.97c.21,.21,.31,.47,.31,.78s-.1,.56-.31,.77-.48,.31-.81,.31-.59-.1-.8-.31-.31-.46-.31-.77,.1-.57,.31-.78c.21-.21,.47-.32,.8-.32s.6,.1,.81,.32Zm.09,3.44v7.41h-1.77v-7.41h1.77Z"/>
  </g>
  <g>
    <path class="cls-7" d="M464.21,232.03h-3.49v2.34c.46-.23,.93-.35,1.41-.35,.52,0,.98,.12,1.39,.36,.41,.24,.72,.59,.95,1.05,.23,.46,.34,1,.34,1.62s-.14,1.21-.43,1.71c-.29,.49-.69,.88-1.22,1.15-.53,.28-1.14,.41-1.83,.41-.62,0-1.17-.11-1.64-.34-.48-.23-.91-.56-1.3-.99l1.01-.95c.54,.6,1.16,.9,1.88,.9,.53,0,.94-.16,1.24-.49,.3-.33,.45-.79,.45-1.4,0-1.17-.5-1.75-1.5-1.75-.21,0-.41,.03-.6,.08s-.39,.13-.61,.24h-1.26v-4.93h5.41l-.21,1.33Z"/>
    <path class="cls-7" d="M471.34,232.03h-3.49v2.34c.46-.23,.93-.35,1.41-.35,.52,0,.98,.12,1.39,.36,.41,.24,.72,.59,.95,1.05,.23,.46,.34,1,.34,1.62s-.14,1.21-.43,1.71c-.29,.49-.69,.88-1.22,1.15-.53,.28-1.14,.41-1.83,.41-.62,0-1.17-.11-1.64-.34-.48-.23-.91-.56-1.3-.99l1.01-.95c.54,.6,1.16,.9,1.88,.9,.53,0,.94-.16,1.24-.49,.3-.33,.45-.79,.45-1.4,0-1.17-.5-1.75-1.5-1.75-.21,0-.41,.03-.6,.08s-.39,.13-.61,.24h-1.26v-4.93h5.41l-.21,1.33Z"/>
    <path class="cls-6" d="M482.9,229.77v10.35h-1.12l-.12-1.02c-.24,.37-.54,.67-.9,.88s-.76,.31-1.21,.31c-.87,0-1.54-.35-2.03-1.04-.49-.69-.73-1.62-.73-2.79,0-.76,.12-1.43,.35-2.02,.23-.59,.56-1.05,1-1.38,.43-.33,.94-.5,1.52-.5,.75,0,1.4,.3,1.97,.91v-3.86l1.28,.15Zm-2.08,9.22c.28-.18,.54-.46,.8-.82v-3.61c-.24-.32-.5-.56-.77-.72-.27-.16-.58-.25-.92-.25-.56,0-1,.24-1.31,.71s-.46,1.19-.46,2.13,.14,1.66,.43,2.13c.29,.47,.7,.7,1.23,.7,.39,0,.72-.09,1-.27Z"/>
    <path class="cls-6" d="M490.53,233.18c.37,.4,.56,.95,.56,1.65v5.29h-1.28v-5.11c0-.52-.1-.89-.29-1.11-.19-.21-.48-.32-.86-.32s-.73,.11-1.03,.34c-.3,.22-.57,.55-.83,.97v5.24h-1.28v-7.38h1.1l.11,1.09c.26-.39,.58-.7,.96-.92,.38-.22,.81-.34,1.27-.34,.67,0,1.19,.2,1.56,.6Z"/>
    <path class="cls-6" d="M495.39,228.91l.57,1.08-2.94,1.2-.39-.69,2.76-1.6Zm-.46,3.84v7.38h-1.28v-7.38h1.28Z"/>
  </g>
</svg>