<?xml version="1.0" encoding="UTF-8"?>
<svg id="Layer_1" data-name="Layer 1" xmlns="http://www.w3.org/2000/svg" xmlns:xlink="http://www.w3.org/1999/xlink" viewBox="0 0 403 221.42">
  <defs>
    <style>
      .cls-1, .cls-2 {
        fill: none;
      }

      .cls-3 {
        clip-path: url(#clippath);
      }

      .cls-4 {
        fill: #fff;
      }

      .cls-5 {
        fill: #999;
      }

      .cls-6 {
        fill: #333;
      }

      .cls-7 {
        fill: #108aa0;
      }

      .cls-8 {
        fill: url(#New_Pattern_6);
      }

      .cls-8, .cls-9, .cls-10, .cls-11 {
        stroke: #108aa0;
      }

      .cls-8, .cls-9, .cls-10, .cls-11, .cls-2 {
        stroke-miterlimit: 10;
      }

      .cls-9 {
        fill: url(#New_Pattern_6-4);
      }

      .cls-10 {
        fill: url(#New_Pattern_6-2);
      }

      .cls-11 {
        fill: url(#New_Pattern_6-3);
      }

      .cls-2 {
        stroke: #64b3c1;
        stroke-width: 2px;
      }
    </style>
    <clipPath id="clippath">
      <rect class="cls-1" x="0" y="0" width="32" height="32"/>
    </clipPath>
    <pattern id="New_Pattern_6" data-name="New Pattern 6" x="0" y="0" width="32" height="32" patternTransform="translate(-7298.12 -853.18) scale(.78 .87)" patternUnits="userSpaceOnUse" viewBox="0 0 32 32">
      <g>
        <rect class="cls-1" width="32" height="32"/>
        <g class="cls-3">
          <g>
            <line class="cls-2" x1="75.83" y1="-11.83" x2="18.95" y2="45.05"/>
            <line class="cls-2" x1="67.83" y1="-11.83" x2="10.95" y2="45.05"/>
            <line class="cls-2" x1="59.83" y1="-11.83" x2="2.95" y2="45.05"/>
            <line class="cls-2" x1="51.83" y1="-11.83" x2="-5.05" y2="45.05"/>
            <line class="cls-2" x1="43.83" y1="-11.83" x2="-13.05" y2="45.05"/>
            <line class="cls-2" x1="35.83" y1="-11.83" x2="-21.05" y2="45.05"/>
            <line class="cls-2" x1="27.83" y1="-11.83" x2="-29.05" y2="45.05"/>
            <line class="cls-2" x1="19.83" y1="-11.83" x2="-37.05" y2="45.05"/>
            <line class="cls-2" x1="11.83" y1="-11.83" x2="-45.05" y2="45.05"/>
          </g>
        </g>
      </g>
    </pattern>
    <pattern id="New_Pattern_6-2" data-name="New Pattern 6" patternTransform="translate(-7298.12 -863.18) scale(.78 .87)" xlink:href="#New_Pattern_6"/>
    <pattern id="New_Pattern_6-3" data-name="New Pattern 6" patternTransform="translate(-7298.12 -873.18) scale(.78 .87)" xlink:href="#New_Pattern_6"/>
    <pattern id="New_Pattern_6-4" data-name="New Pattern 6" patternTransform="translate(-7298.12 -883.18) scale(.78 .87)" xlink:href="#New_Pattern_6"/>
  </defs>
  <rect class="cls-4" x="-756.04" y="-624.41" width="2187.59" height="1119.12"/>
  <g>
    <path d="M3.76,15.31c0,1.18-.28,2.08-.84,2.68-.56,.6-1.36,1.08-2.41,1.42L-.05,17.89c.47-.18,.82-.39,1.06-.62,.24-.23,.4-.5,.49-.82,.09-.31,.13-.72,.13-1.22V5.87H3.76V15.31Z"/>
    <path d="M12.63,15.41c.1,.16,.26,.28,.49,.36l-.43,1.36c-.48-.04-.87-.16-1.18-.35-.3-.19-.54-.49-.7-.88-.29,.43-.65,.74-1.08,.95s-.91,.31-1.45,.31c-.84,0-1.51-.24-2-.72-.49-.48-.74-1.11-.74-1.89,0-.92,.33-1.62,1-2.1,.67-.48,1.62-.73,2.86-.73h1.06v-.48c0-.54-.12-.92-.38-1.14-.25-.22-.65-.33-1.21-.33-.62,0-1.37,.15-2.24,.45l-.48-1.39c1.06-.41,2.08-.61,3.07-.61,2.17,0,3.25,.97,3.25,2.91v3.55c0,.33,.05,.57,.15,.73Zm-2.17-.78v-1.71h-.85c-1.32,0-1.98,.49-1.98,1.47,0,.41,.1,.72,.3,.94,.2,.22,.5,.34,.89,.34,.69,0,1.24-.35,1.63-1.04Z"/>
    <path d="M17.01,4.85v12.08h-2.05V5.07l2.05-.22Zm5.07,3.62l-2.82,3.73,3.09,4.74h-2.35l-2.91-4.62,2.83-3.84h2.16Z"/>
    <path d="M34.62,5.07v11.86h-1.81l-.14-1.07c-.27,.41-.61,.73-1.02,.96s-.88,.35-1.4,.35c-1.04,0-1.83-.4-2.38-1.2s-.83-1.89-.83-3.26c0-.86,.14-1.63,.42-2.31s.68-1.21,1.19-1.59c.52-.38,1.12-.58,1.8-.58,.81,0,1.52,.3,2.13,.91V4.85l2.05,.22Zm-2.83,10.28c.28-.18,.54-.45,.79-.82v-3.87c-.25-.3-.49-.52-.74-.67s-.54-.22-.87-.22c-.54,0-.97,.24-1.29,.73s-.47,1.22-.47,2.2c0,1.05,.14,1.79,.42,2.25s.68,.68,1.22,.68c.36,0,.68-.09,.96-.26Z"/>
    <path d="M37.56,16.6c-.37-.38-.55-.92-.55-1.61V5.07l2.05-.22V14.93c0,.39,.16,.59,.48,.59,.16,0,.32-.03,.48-.08l.43,1.44c-.43,.19-.88,.29-1.36,.29-.65,0-1.16-.19-1.53-.57Z"/>
    <path d="M48.1,9.41c.7,.79,1.05,1.89,1.05,3.27,0,.89-.16,1.67-.48,2.34-.32,.68-.78,1.2-1.38,1.58s-1.31,.56-2.13,.56c-1.25,0-2.22-.4-2.93-1.19-.7-.79-1.05-1.89-1.05-3.29,0-.89,.16-1.66,.48-2.34s.78-1.19,1.38-1.57c.6-.37,1.31-.56,2.14-.56,1.25,0,2.22,.4,2.92,1.19Zm-4.76,3.27c0,1,.15,1.74,.46,2.22s.76,.71,1.37,.71,1.06-.24,1.37-.72c.3-.48,.46-1.22,.46-2.21s-.15-1.73-.46-2.2c-.3-.47-.76-.71-1.35-.71-1.23,0-1.84,.97-1.84,2.91Z"/>
    <path d="M57.84,16.93h-1.78l-.11-1.18c-.31,.48-.68,.84-1.1,1.07-.42,.23-.92,.35-1.5,.35-.76,0-1.34-.23-1.75-.7-.41-.46-.62-1.11-.62-1.93v-6.08h2.05v5.82c0,.48,.08,.82,.25,1.02,.16,.2,.43,.3,.79,.3,.65,0,1.22-.4,1.71-1.2v-5.95h2.05v8.46Z"/>
    <path d="M66.58,8.91c.43,.46,.64,1.09,.64,1.89v6.13h-2.05v-5.81c0-.5-.09-.85-.26-1.06-.18-.2-.44-.3-.78-.3s-.65,.11-.94,.33c-.29,.22-.56,.53-.83,.94v5.9h-2.05V5.09l2.05-.21v4.59c.68-.83,1.5-1.25,2.46-1.25,.75,0,1.33,.23,1.76,.69Z"/>
    <path d="M75.98,9.41c.7,.79,1.05,1.89,1.05,3.27,0,.89-.16,1.67-.48,2.34-.32,.68-.78,1.2-1.38,1.58s-1.31,.56-2.13,.56c-1.25,0-2.22-.4-2.93-1.19-.71-.79-1.06-1.89-1.06-3.29,0-.89,.16-1.66,.48-2.34s.78-1.19,1.38-1.57c.6-.37,1.31-.56,2.14-.56,1.25,0,2.22,.4,2.92,1.19Zm-4.76,3.27c0,1,.15,1.74,.46,2.22,.3,.47,.76,.71,1.37,.71s1.06-.24,1.37-.72c.3-.48,.46-1.22,.46-2.21s-.15-1.73-.46-2.2c-.3-.47-.75-.71-1.35-.71-1.23,0-1.84,.97-1.84,2.91Z"/>
    <path d="M87.79,16.53c-.3,.21-.63,.37-1,.48-.37,.11-.74,.16-1.13,.16-.83-.01-1.46-.25-1.9-.71-.43-.46-.65-1.15-.65-2.06v-4.46h-1.33v-1.47h1.33v-1.87l2.05-.24v2.11h1.97l-.21,1.47h-1.76v4.42c0,.42,.07,.71,.22,.9,.14,.18,.37,.27,.68,.27s.64-.1,1.01-.3l.72,1.31Z"/>
    <path d="M93.97,8.35l-.35,1.98c-.26-.06-.51-.1-.75-.1-.5,0-.9,.18-1.19,.54-.29,.36-.52,.9-.69,1.64v4.51h-2.05V8.46h1.78l.19,1.66c.2-.61,.5-1.08,.88-1.4,.38-.33,.83-.49,1.33-.49,.31,0,.59,.04,.85,.11Z"/>
    <path d="M102.05,8.46l-2.75,8.46h-2.45l-2.8-8.46h2.22l1.81,6.82,1.86-6.82h2.11Z"/>
    <path d="M109.42,15.41c.1,.16,.26,.28,.49,.36l-.43,1.36c-.48-.04-.87-.16-1.18-.35-.3-.19-.54-.49-.7-.88-.29,.43-.65,.74-1.08,.95s-.91,.31-1.45,.31c-.84,0-1.51-.24-2-.72-.49-.48-.74-1.11-.74-1.89,0-.92,.33-1.62,1-2.1,.67-.48,1.62-.73,2.86-.73h1.06v-.48c0-.54-.12-.92-.38-1.14-.25-.22-.65-.33-1.21-.33-.62,0-1.37,.15-2.24,.45l-.48-1.39c1.06-.41,2.08-.61,3.07-.61,2.17,0,3.25,.97,3.25,2.91v3.55c0,.33,.05,.57,.15,.73Zm-2.17-.78v-1.71h-.85c-1.32,0-1.98,.49-1.98,1.47,0,.41,.1,.72,.3,.94,.2,.22,.5,.34,.89,.34,.69,0,1.24-.35,1.63-1.04Z"/>
    <path d="M113.61,16.17c0,.83-.12,1.51-.36,2.04-.24,.53-.58,.95-1.02,1.27-.44,.32-1.01,.62-1.71,.91l-.66-1.49c.42-.19,.74-.38,.98-.57s.41-.44,.54-.76c.12-.32,.18-.75,.18-1.28v-7.84h2.05v7.71Zm-.1-11.64c.24,.24,.36,.54,.36,.89s-.12,.65-.36,.88-.55,.35-.94,.35-.68-.12-.92-.35-.36-.53-.36-.88,.12-.65,.36-.89c.24-.24,.55-.36,.92-.36s.7,.12,.94,.36Z"/>
    <path d="M118.58,3.81l.83,1.6-3.62,1.44-.58-1.04,3.36-2Zm-.19,4.66v8.46h-2.05V8.46h2.05Z"/>
    <path d="M131.6,9.39c.51,.78,.77,1.87,.77,3.28,0,.87-.13,1.65-.39,2.33-.26,.68-.65,1.21-1.15,1.59-.51,.38-1.11,.58-1.8,.58-.9,0-1.61-.31-2.13-.93v3.95l-2.05,.22V8.46h1.79l.11,1.04c.33-.43,.71-.75,1.14-.96,.43-.21,.87-.32,1.34-.32,1.07,0,1.86,.39,2.37,1.17Zm-1.38,3.3c0-1.03-.13-1.78-.4-2.24-.27-.46-.67-.69-1.2-.69-.34,0-.66,.1-.96,.31s-.55,.49-.77,.84v3.81c.39,.59,.91,.88,1.55,.88,1.18,0,1.78-.97,1.78-2.91Z"/>
    <path d="M140.76,9.41c.7,.79,1.05,1.89,1.05,3.27,0,.89-.16,1.67-.48,2.34-.32,.68-.78,1.2-1.38,1.58s-1.31,.56-2.13,.56c-1.25,0-2.22-.4-2.93-1.19-.71-.79-1.06-1.89-1.06-3.29,0-.89,.16-1.66,.48-2.34s.78-1.19,1.38-1.57c.6-.37,1.31-.56,2.14-.56,1.25,0,2.22,.4,2.92,1.19Zm-4.76,3.27c0,1,.15,1.74,.46,2.22,.3,.47,.76,.71,1.37,.71s1.06-.24,1.37-.72c.3-.48,.46-1.22,.46-2.21s-.15-1.73-.46-2.2c-.3-.47-.75-.71-1.35-.71-1.23,0-1.84,.97-1.84,2.91Z"/>
    <path d="M149.41,9.23l-.8,1.2c-.72-.46-1.43-.69-2.13-.69-.41,0-.72,.08-.95,.23-.22,.15-.34,.36-.34,.62,0,.19,.05,.35,.14,.48s.27,.25,.52,.36,.62,.24,1.11,.38c.92,.25,1.6,.57,2.04,.98,.44,.41,.66,.97,.66,1.7,0,.84-.34,1.5-1.02,1.98-.68,.47-1.53,.71-2.54,.71-.69,0-1.33-.11-1.9-.32-.57-.21-1.06-.51-1.48-.88l1.02-1.15c.74,.55,1.5,.83,2.3,.83,.46,0,.82-.09,1.1-.27,.27-.18,.41-.43,.41-.75,0-.25-.05-.44-.15-.58-.1-.14-.28-.27-.54-.38-.26-.11-.67-.25-1.22-.41-.87-.23-1.5-.56-1.9-.98-.41-.42-.61-.95-.61-1.58,0-.47,.14-.89,.41-1.26,.27-.37,.66-.67,1.15-.88,.5-.21,1.06-.32,1.71-.32,1.14,0,2.14,.34,3.01,1.01Z"/>
    <path d="M158.11,16.93h-1.78l-.11-1.18c-.31,.48-.68,.84-1.1,1.07-.42,.23-.92,.35-1.5,.35-.76,0-1.34-.23-1.75-.7-.41-.46-.62-1.11-.62-1.93v-6.08h2.05v5.82c0,.48,.08,.82,.25,1.02,.16,.2,.43,.3,.79,.3,.65,0,1.22-.4,1.71-1.2v-5.95h2.05v8.46Z"/>
    <path d="M167.69,5.07v11.86h-1.81l-.14-1.07c-.27,.41-.61,.73-1.02,.96-.41,.23-.88,.35-1.4,.35-1.04,0-1.83-.4-2.38-1.2s-.83-1.89-.83-3.26c0-.86,.14-1.63,.42-2.31s.67-1.21,1.19-1.59c.52-.38,1.12-.58,1.8-.58,.81,0,1.52,.3,2.13,.91V4.85l2.05,.22Zm-2.83,10.28c.28-.18,.54-.45,.78-.82v-3.87c-.24-.3-.49-.52-.74-.67-.25-.15-.54-.22-.87-.22-.54,0-.97,.24-1.29,.73-.32,.49-.47,1.22-.47,2.2,0,1.05,.14,1.79,.42,2.25s.68,.68,1.21,.68c.36,0,.68-.09,.96-.26Z"/>
    <path d="M172.21,4.85v12.08h-2.05V5.07l2.05-.22Zm5.07,3.62l-2.82,3.73,3.09,4.74h-2.35l-2.91-4.62,2.83-3.84h2.16Z"/>
    <path d="M184.9,9.41c.7,.79,1.05,1.89,1.05,3.27,0,.89-.16,1.67-.48,2.34-.32,.68-.78,1.2-1.38,1.58s-1.31,.56-2.13,.56c-1.25,0-2.22-.4-2.93-1.19-.7-.79-1.05-1.89-1.05-3.29,0-.89,.16-1.66,.48-2.34s.78-1.19,1.38-1.57c.6-.37,1.31-.56,2.14-.56,1.25,0,2.22,.4,2.92,1.19Zm-4.76,3.27c0,1,.15,1.74,.46,2.22s.76,.71,1.37,.71,1.06-.24,1.37-.72c.3-.48,.46-1.22,.46-2.21s-.15-1.73-.46-2.2c-.3-.47-.76-.71-1.35-.71-1.23,0-1.84,.97-1.84,2.91Z"/>
    <path d="M194.58,8.46l-2.75,8.46h-2.45l-2.8-8.46h2.22l1.81,6.82,1.86-6.82h2.11Z"/>
    <path d="M201.94,15.41c.1,.16,.27,.28,.49,.36l-.43,1.36c-.48-.04-.87-.16-1.18-.35-.3-.19-.54-.49-.7-.88-.29,.43-.65,.74-1.08,.95-.43,.21-.92,.31-1.45,.31-.84,0-1.51-.24-2-.72-.49-.48-.74-1.11-.74-1.89,0-.92,.33-1.62,1-2.1,.67-.48,1.62-.73,2.86-.73h1.05v-.48c0-.54-.12-.92-.38-1.14s-.65-.33-1.21-.33c-.62,0-1.37,.15-2.24,.45l-.48-1.39c1.05-.41,2.08-.61,3.07-.61,2.16,0,3.25,.97,3.25,2.91v3.55c0,.33,.05,.57,.15,.73Zm-2.17-11.61l.83,1.6-3.62,1.44-.58-1.04,3.36-2Zm0,10.83v-1.71h-.85c-1.32,0-1.98,.49-1.98,1.47,0,.41,.1,.72,.3,.94,.2,.22,.5,.34,.9,.34,.69,0,1.24-.35,1.63-1.04Z"/>
    <path d="M212.9,4.13l.78,.9-2.22,2h-1.28l-2.22-2,.79-.9,2.08,1.41,2.08-1.41Zm.4,4.22l-.35,1.98c-.26-.06-.51-.1-.75-.1-.5,0-.9,.18-1.18,.54-.29,.36-.52,.9-.69,1.64v4.51h-2.05V8.46h1.78l.19,1.66c.2-.61,.5-1.08,.88-1.4,.38-.33,.83-.49,1.33-.49,.31,0,.59,.04,.85,.11Z"/>
    <path d="M216.81,3.81l.83,1.6-3.62,1.44-.58-1.04,3.36-2Zm-.19,4.66v8.46h-2.05V8.46h2.05Z"/>
    <path d="M224.59,8.46v1.47l-4.1,5.39h4.18l-.21,1.6h-6.32v-1.47l4.11-5.39h-3.76v-1.6h6.1Z"/>
    <path d="M233.04,13.33h-5.31c.06,.82,.28,1.41,.64,1.76,.36,.35,.84,.53,1.44,.53,.37,0,.72-.06,1.05-.18s.68-.31,1.06-.57l.85,1.17c-.94,.76-1.98,1.14-3.14,1.14-1.29,0-2.29-.39-2.98-1.18-.7-.79-1.05-1.87-1.05-3.23,0-.86,.15-1.64,.45-2.33,.3-.69,.73-1.23,1.3-1.62,.56-.39,1.24-.58,2.02-.58,1.18,0,2.1,.38,2.75,1.13s.98,1.8,.98,3.14c0,.11-.02,.38-.05,.83Zm-1.98-1.42c0-1.48-.55-2.22-1.65-2.22-.5,0-.89,.18-1.18,.55-.28,.37-.45,.96-.5,1.77h3.33v-.1Z"/>
    <path d="M241.21,8.9c.42,.45,.63,1.09,.63,1.9v6.13h-2.05v-5.81c0-.5-.09-.85-.26-1.06-.18-.2-.44-.3-.78-.3s-.67,.11-.95,.33-.56,.54-.82,.95v5.89h-2.05V8.46h1.78l.16,1.1c.69-.9,1.55-1.34,2.58-1.34,.76,0,1.35,.23,1.77,.68Z"/>
    <path d="M246.46,3.81l.83,1.6-3.62,1.44-.58-1.04,3.36-2Zm-.19,4.66v8.46h-2.05V8.46h2.05Z"/>
  </g>
  <g>
    <path d="M5.22,30.91c.51,.39,.76,.97,.76,1.74,0,.82-.27,1.43-.8,1.83s-1.24,.6-2.11,.6h-.95v2.76H1.09v-7.51h1.97c.93,0,1.65,.2,2.16,.58Zm-.81,3c.32-.23,.47-.65,.47-1.25,0-.54-.16-.93-.47-1.17-.32-.24-.77-.36-1.36-.36h-.93v3.13h.9c.6,0,1.06-.12,1.38-.35Z"/>
    <path d="M10.21,32.03l-.19,.98c-.17-.04-.34-.07-.5-.07-.36,0-.64,.13-.86,.39s-.39,.67-.51,1.22v3.28h-1v-5.74h.86l.1,1.17c.15-.43,.36-.75,.62-.97,.26-.22,.57-.33,.92-.33,.2,0,.39,.02,.57,.07Z"/>
    <path d="M15.63,37.84h-.86l-.08-.89c-.22,.36-.47,.62-.75,.78-.28,.16-.63,.25-1.04,.25-.5,0-.89-.15-1.18-.46-.28-.31-.42-.74-.42-1.3v-4.12h1v4.01c0,.39,.07,.67,.21,.83,.14,.16,.36,.25,.68,.25,.56,0,1.04-.33,1.44-.99v-4.1h1v5.74Zm-1.26-8.78c.23,.22,.35,.5,.35,.82s-.12,.6-.35,.82c-.23,.22-.53,.33-.89,.33s-.66-.11-.89-.33c-.23-.22-.35-.5-.35-.82s.12-.6,.35-.82c.23-.22,.53-.33,.89-.33s.66,.11,.89,.33Zm-1.32,.38c-.1,.11-.15,.26-.15,.45s.05,.34,.15,.45c.1,.11,.24,.16,.43,.16s.31-.05,.42-.16c.11-.11,.16-.26,.16-.45s-.05-.34-.15-.45c-.1-.11-.24-.16-.42-.16s-.32,.05-.43,.16Z"/>
    <path d="M24.6,32.43c.28,.32,.42,.74,.42,1.28v4.12h-1v-3.98c0-.74-.27-1.11-.81-1.11-.28,0-.52,.08-.72,.25-.2,.16-.41,.42-.63,.77v4.08h-1v-3.98c0-.74-.27-1.11-.81-1.11-.29,0-.53,.08-.73,.25-.2,.17-.4,.42-.62,.76v4.08h-1v-5.74h.86l.09,.84c.43-.65,.98-.97,1.66-.97,.36,0,.66,.09,.91,.27s.43,.44,.54,.76c.23-.33,.47-.59,.75-.77,.27-.18,.59-.27,.96-.27,.47,0,.85,.16,1.13,.47Z"/>
    <path d="M31.36,35.31h-3.66c.04,.63,.2,1.1,.48,1.4s.63,.45,1.07,.45c.28,0,.53-.04,.76-.12s.48-.21,.73-.38l.44,.6c-.61,.48-1.28,.72-2.01,.72-.8,0-1.42-.26-1.87-.79-.45-.52-.67-1.24-.67-2.16,0-.6,.1-1.12,.29-1.59,.19-.46,.47-.82,.83-1.08,.36-.26,.78-.39,1.27-.39,.76,0,1.35,.25,1.75,.75,.41,.5,.61,1.2,.61,2.08,0,.17,0,.34-.02,.51Zm-.93-6.03l.42,.49-1.47,1.23h-.67l-1.48-1.23,.44-.49,1.37,.92,1.38-.92Zm-.04,5.22c0-.57-.11-1-.34-1.3s-.56-.45-1.01-.45c-.82,0-1.27,.6-1.34,1.81h2.69v-.07Z"/>
    <path d="M36.05,32.03l-.19,.98c-.17-.04-.34-.07-.5-.07-.36,0-.64,.13-.86,.39s-.39,.67-.51,1.22v3.28h-1v-5.74h.86l.1,1.17c.15-.43,.36-.75,.62-.97,.26-.22,.57-.33,.92-.33,.2,0,.39,.02,.57,.07Z"/>
    <path d="M41.12,32.43c.29,.31,.44,.74,.44,1.29v4.12h-1v-3.98c0-.41-.08-.69-.23-.86s-.38-.25-.68-.25-.57,.09-.81,.26c-.23,.17-.45,.42-.65,.75v4.08h-1v-5.74h.86l.09,.85c.2-.3,.46-.54,.76-.72,.3-.17,.63-.26,1-.26,.52,0,.93,.16,1.23,.47Z"/>
    <path d="M47.57,37.01c.08,.11,.2,.2,.36,.26l-.23,.7c-.3-.04-.54-.12-.72-.25s-.32-.33-.4-.61c-.39,.57-.96,.86-1.71,.86-.57,0-1.01-.16-1.34-.48-.33-.32-.49-.74-.49-1.25,0-.61,.22-1.08,.66-1.41,.44-.33,1.06-.49,1.87-.49h.88v-.42c0-.41-.1-.7-.29-.87-.2-.17-.5-.26-.9-.26s-.94,.1-1.55,.3l-.25-.73c.71-.26,1.37-.39,1.98-.39,.68,0,1.18,.17,1.51,.5,.33,.33,.5,.8,.5,1.41v2.63c0,.23,.04,.41,.12,.52Zm-1.32-7.91l.45,.84-2.31,.94-.3-.53,2.17-1.24Zm.2,7.22v-1.32h-.75c-1.06,0-1.59,.39-1.59,1.18,0,.34,.08,.6,.25,.77,.17,.17,.41,.26,.74,.26,.57,0,1.02-.3,1.35-.89Z"/>
    <path d="M56.84,29.78v8.06h-.88l-.1-.8c-.19,.29-.43,.52-.71,.68-.28,.16-.6,.25-.95,.25-.68,0-1.21-.27-1.6-.81-.38-.54-.57-1.26-.57-2.17,0-.59,.09-1.11,.27-1.57,.18-.46,.44-.82,.79-1.07,.34-.26,.74-.39,1.2-.39,.59,0,1.1,.24,1.55,.71v-3.01l1,.12Zm-1.63,7.18c.22-.14,.43-.35,.63-.64v-2.81c-.19-.25-.39-.43-.6-.56-.21-.13-.46-.19-.72-.19-.44,0-.79,.19-1.03,.56-.24,.37-.37,.92-.37,1.66s.11,1.29,.34,1.66,.55,.54,.97,.54c.31,0,.57-.07,.79-.21Z"/>
    <path d="M62.95,32.77c.45,.54,.67,1.27,.67,2.19,0,.6-.1,1.12-.3,1.58-.2,.45-.5,.81-.88,1.06-.39,.25-.84,.38-1.37,.38-.81,0-1.43-.27-1.89-.81-.45-.54-.68-1.27-.68-2.19,0-.6,.1-1.12,.31-1.58,.2-.45,.5-.81,.88-1.06,.38-.25,.85-.38,1.38-.38,.81,0,1.43,.27,1.88,.81Zm-3.37,2.2c0,1.46,.49,2.19,1.48,2.19s1.48-.73,1.48-2.2-.49-2.19-1.47-2.19-1.49,.73-1.49,2.2Z"/>
    <path d="M69.46,32.75c.39,.53,.58,1.26,.58,2.21,0,.6-.09,1.12-.27,1.58s-.44,.81-.79,1.06c-.34,.25-.74,.38-1.2,.38-.6,0-1.11-.25-1.53-.76l-.1,.63h-.88v-8.06l1-.12v3.15c.41-.57,.96-.85,1.62-.85s1.17,.26,1.56,.79Zm-.88,3.88c.25-.36,.38-.92,.38-1.67s-.12-1.34-.35-1.68c-.23-.35-.56-.52-.99-.52-.51,0-.96,.3-1.34,.89v2.75c.15,.24,.34,.43,.56,.57s.46,.21,.7,.21c.44,0,.79-.18,1.04-.54Z"/>
    <path d="M75.63,37.01c.08,.11,.2,.2,.36,.26l-.23,.7c-.3-.04-.54-.12-.72-.25s-.32-.33-.4-.61c-.39,.57-.96,.86-1.71,.86-.57,0-1.01-.16-1.34-.48-.33-.32-.49-.74-.49-1.25,0-.61,.22-1.08,.66-1.41,.44-.33,1.06-.49,1.87-.49h.88v-.42c0-.41-.1-.7-.29-.87-.2-.17-.5-.26-.9-.26s-.94,.1-1.55,.3l-.25-.73c.71-.26,1.37-.39,1.98-.39,.68,0,1.18,.17,1.51,.5,.33,.33,.5,.8,.5,1.41v2.63c0,.23,.04,.41,.12,.52Zm-1.12-.69v-1.32h-.75c-1.06,0-1.59,.39-1.59,1.18,0,.34,.08,.6,.25,.77,.17,.17,.41,.26,.74,.26,.57,0,1.02-.3,1.35-.89Z"/>
    <path d="M84.68,32.09l-1.95,5.74h-1.21l-1.98-5.74h1.09l1.5,4.85,1.49-4.85h1.06Z"/>
    <path d="M88.12,37.87c-.22,.67-.54,1.2-.94,1.59s-.98,.62-1.73,.7l-.11-.78c.38-.07,.68-.16,.91-.28,.22-.12,.4-.28,.54-.47s.26-.45,.38-.78h-.34l-1.93-5.74h1.07l1.54,5.01,1.5-5.01h1.04l-1.92,5.78Z"/>
    <path d="M94.13,29.28l.42,.49-1.47,1.23h-.66l-1.48-1.23,.44-.49,1.37,.92,1.38-.92Zm.12,2.75l-.19,.98c-.17-.04-.34-.07-.5-.07-.36,0-.64,.13-.86,.39s-.39,.67-.51,1.22v3.28h-1v-5.74h.86l.1,1.17c.15-.43,.36-.75,.62-.97,.26-.22,.57-.33,.92-.33,.2,0,.39,.02,.57,.07Z"/>
    <path d="M96.76,29.1l.45,.84-2.31,.94-.31-.53,2.17-1.24Zm-.36,2.99v5.74h-1v-5.74h1Z"/>
    <path d="M101.84,32.09v.76l-3,4.14h3.03l-.12,.84h-4.04v-.75l2.99-4.14h-2.74v-.85h3.88Z"/>
    <path d="M107.47,35.31h-3.66c.04,.63,.2,1.1,.48,1.4s.63,.45,1.07,.45c.28,0,.53-.04,.76-.12s.48-.21,.73-.38l.44,.6c-.61,.48-1.28,.72-2.01,.72-.8,0-1.42-.26-1.87-.79-.45-.52-.67-1.24-.67-2.16,0-.6,.1-1.12,.29-1.59,.19-.46,.47-.82,.83-1.08,.36-.26,.78-.39,1.27-.39,.76,0,1.35,.25,1.75,.75,.41,.5,.61,1.2,.61,2.08,0,.17,0,.34-.02,.51Zm-.97-.81c0-.57-.11-1-.34-1.3s-.56-.45-1.01-.45c-.82,0-1.27,.6-1.34,1.81h2.69v-.07Z"/>
    <path d="M113.03,32.43c.29,.31,.44,.74,.44,1.29v4.12h-1v-3.98c0-.41-.08-.69-.23-.86s-.38-.25-.68-.25-.57,.09-.81,.26c-.23,.17-.45,.42-.65,.75v4.08h-1v-5.74h.86l.09,.85c.2-.3,.46-.54,.76-.72,.3-.17,.63-.26,1-.26,.52,0,.93,.16,1.23,.47Z"/>
    <path d="M116.85,29.1l.45,.84-2.31,.94-.31-.53,2.17-1.24Zm-.36,2.99v5.74h-1v-5.74h1Z"/>
    <path d="M124.81,32.09v.76l-3,4.14h3.03l-.12,.84h-4.04v-.75l2.99-4.14h-2.74v-.85h3.88Zm-.63-2.81l.42,.49-1.47,1.23h-.66l-1.48-1.23,.44-.49,1.37,.92,1.38-.92Z"/>
    <path d="M130.03,37.01c.08,.11,.2,.2,.36,.26l-.23,.7c-.3-.04-.54-.12-.72-.25s-.32-.33-.4-.61c-.39,.57-.96,.86-1.71,.86-.57,0-1.01-.16-1.34-.48-.33-.32-.49-.74-.49-1.25,0-.61,.22-1.08,.66-1.41,.44-.33,1.06-.49,1.87-.49h.88v-.42c0-.41-.1-.7-.29-.87-.2-.17-.5-.26-.9-.26s-.94,.1-1.55,.3l-.25-.73c.71-.26,1.37-.39,1.98-.39,.68,0,1.18,.17,1.51,.5,.33,.33,.5,.8,.5,1.41v2.63c0,.23,.04,.41,.12,.52Zm-1.32-7.91l.45,.84-2.31,.94-.3-.53,2.17-1.24Zm.2,7.22v-1.32h-.75c-1.06,0-1.59,.39-1.59,1.18,0,.34,.08,.6,.25,.77,.17,.17,.41,.26,.74,.26,.57,0,1.02-.3,1.35-.89Z"/>
    <path d="M136.42,29.78v8.06h-.88l-.1-.8c-.19,.29-.43,.52-.71,.68-.28,.16-.6,.25-.95,.25-.68,0-1.21-.27-1.6-.81-.38-.54-.57-1.26-.57-2.17,0-.59,.09-1.11,.27-1.57,.18-.46,.44-.82,.79-1.07,.34-.26,.74-.39,1.2-.39,.59,0,1.1,.24,1.55,.71v-3.01l1,.12Zm-1.63,7.18c.22-.14,.43-.35,.63-.64v-2.81c-.19-.25-.39-.43-.6-.56-.21-.13-.46-.19-.72-.19-.44,0-.79,.19-1.03,.56-.24,.37-.37,.92-.37,1.66s.11,1.29,.34,1.66,.55,.54,.97,.54c.31,0,.57-.07,.79-.21Z"/>
    <path d="M142.53,32.77c.45,.54,.67,1.27,.67,2.19,0,.6-.1,1.12-.3,1.58-.2,.45-.5,.81-.88,1.06-.39,.25-.84,.38-1.37,.38-.81,0-1.43-.27-1.89-.81-.45-.54-.68-1.27-.68-2.19,0-.6,.1-1.12,.31-1.58,.2-.45,.5-.81,.88-1.06,.38-.25,.85-.38,1.38-.38,.81,0,1.43,.27,1.88,.81Zm-3.37,2.2c0,1.46,.49,2.19,1.48,2.19s1.48-.73,1.48-2.2-.49-2.19-1.47-2.19-1.49,.73-1.49,2.2Z"/>
    <path d="M147.47,32.12c.31,.11,.61,.27,.89,.49l-.42,.63c-.26-.17-.51-.29-.75-.37-.24-.08-.49-.12-.75-.12-.33,0-.58,.07-.77,.2-.19,.13-.28,.32-.28,.55s.09,.41,.27,.54c.18,.13,.5,.26,.96,.38,.64,.16,1.12,.38,1.43,.65,.32,.28,.47,.65,.47,1.13,0,.57-.22,1-.66,1.3-.44,.3-.98,.45-1.61,.45-.87,0-1.59-.25-2.17-.75l.53-.61c.49,.37,1.02,.56,1.61,.56,.38,0,.68-.08,.9-.23s.33-.37,.33-.64c0-.2-.04-.35-.12-.47s-.22-.22-.41-.32-.48-.19-.86-.29c-.61-.16-1.05-.37-1.32-.64-.27-.27-.41-.61-.41-1.02,0-.3,.09-.57,.27-.81,.18-.24,.43-.43,.74-.57,.32-.13,.67-.2,1.06-.2s.75,.05,1.06,.16Z"/>
    <path d="M152.85,37.57c-.38,.26-.81,.39-1.29,.39s-.87-.14-1.14-.42c-.27-.28-.41-.68-.41-1.22v-3.47h-1v-.77h1v-1.3l1-.12v1.42h1.36l-.11,.77h-1.25v3.42c0,.3,.05,.51,.16,.65s.28,.2,.53,.2c.23,0,.48-.08,.76-.23l.38,.67Z"/>
    <path d="M155.25,29.1l.45,.84-2.31,.94-.31-.53,2.17-1.24Zm-.36,2.99v5.74h-1v-5.74h1Z"/>
    <path d="M164.06,32.09l-1.95,5.74h-1.21l-1.98-5.74h1.09l1.5,4.85,1.49-4.85h1.06Z"/>
    <path d="M168.36,37.63c-.21-.22-.32-.53-.32-.93v-6.92l1-.12v7.02c0,.16,.03,.28,.08,.35,.05,.07,.15,.11,.28,.11,.14,0,.26-.02,.37-.07l.26,.7c-.24,.13-.5,.2-.8,.2-.37,0-.66-.11-.88-.33Z"/>
    <path d="M175.55,35.31h-3.66c.04,.63,.2,1.1,.48,1.4s.63,.45,1.07,.45c.28,0,.53-.04,.76-.12s.48-.21,.73-.38l.44,.6c-.61,.48-1.28,.72-2.01,.72-.8,0-1.42-.26-1.87-.79-.45-.52-.67-1.24-.67-2.16,0-.6,.1-1.12,.29-1.59,.19-.46,.47-.82,.83-1.08,.36-.26,.78-.39,1.27-.39,.76,0,1.35,.25,1.75,.75,.41,.5,.61,1.2,.61,2.08,0,.17,0,.34-.02,.51Zm-.97-.81c0-.57-.11-1-.34-1.3s-.56-.45-1.01-.45c-.82,0-1.27,.6-1.34,1.81h2.69v-.07Z"/>
    <path d="M180.08,37.57c-.38,.26-.81,.39-1.29,.39s-.87-.14-1.14-.42c-.27-.28-.41-.68-.41-1.22v-3.47h-1v-.77h1v-1.3l1-.12v1.42h1.36l-.11,.77h-1.25v3.42c0,.3,.05,.51,.16,.65s.28,.2,.53,.2c.23,0,.48-.08,.76-.23l.38,.67Z"/>
    <path d="M185.26,35.31h-3.66c.04,.63,.2,1.1,.48,1.4s.63,.45,1.07,.45c.28,0,.53-.04,.76-.12s.48-.21,.73-.38l.44,.6c-.61,.48-1.28,.72-2.01,.72-.8,0-1.42-.26-1.87-.79-.45-.52-.67-1.24-.67-2.16,0-.6,.1-1.12,.29-1.59,.19-.46,.47-.82,.83-1.08,.36-.26,.78-.39,1.27-.39,.76,0,1.35,.25,1.75,.75,.41,.5,.61,1.2,.61,2.08,0,.17,0,.34-.02,.51Zm-.97-.81c0-.57-.11-1-.34-1.3s-.56-.45-1.01-.45c-.82,0-1.27,.6-1.34,1.81h2.69v-.07Z"/>
    <path d="M189.92,32.11c.28,.1,.56,.26,.82,.47l-.48,.63c-.2-.15-.4-.25-.59-.32s-.41-.1-.64-.1c-.46,0-.83,.19-1.08,.56-.26,.37-.39,.92-.39,1.65s.13,1.26,.38,1.61c.25,.34,.62,.52,1.09,.52,.23,0,.43-.03,.62-.1,.19-.07,.4-.18,.63-.33l.46,.65c-.52,.42-1.11,.63-1.75,.63-.78,0-1.39-.26-1.84-.79-.45-.52-.67-1.25-.67-2.17,0-.61,.1-1.14,.31-1.6,.2-.46,.49-.81,.87-1.07,.37-.25,.82-.38,1.33-.38,.34,0,.65,.05,.94,.15Z"/>
    <path d="M196.03,32.43c.29,.31,.44,.74,.44,1.29v4.12h-1v-3.98c0-.41-.08-.69-.23-.86s-.38-.25-.68-.25-.56,.09-.8,.26c-.23,.17-.45,.42-.65,.74v4.09h-1v-8.04l1-.11v3.2c.45-.62,1.02-.93,1.7-.93,.52,0,.93,.16,1.23,.47Z"/>
    <path d="M203.97,30.7c.33,.17,.59,.41,.77,.71s.27,.64,.27,1.02c0,.44-.1,.87-.3,1.28-.2,.41-.51,.85-.92,1.32s-1.04,1.13-1.89,1.97h3.28l-.12,.84h-4.31v-.8c.97-1.01,1.66-1.75,2.07-2.22s.7-.88,.87-1.23,.26-.72,.26-1.12c0-.38-.11-.67-.33-.89-.22-.21-.51-.32-.87-.32-.3,0-.56,.06-.79,.19-.22,.12-.46,.33-.72,.61l-.65-.52c.3-.37,.63-.65,.99-.83s.77-.27,1.22-.27,.82,.09,1.15,.26Z"/>
    <path d="M210.6,31.4c.41,.64,.62,1.58,.62,2.8s-.21,2.15-.62,2.8c-.41,.65-1.02,.97-1.83,.97s-1.42-.32-1.83-.97c-.41-.65-.62-1.58-.62-2.8s.21-2.15,.62-2.8c.41-.64,1.02-.96,1.83-.96s1.42,.32,1.83,.96Zm-2.88,.53c-.23,.46-.34,1.22-.34,2.27s.12,1.8,.34,2.27,.58,.7,1.05,.7,.81-.23,1.05-.7c.23-.47,.35-1.23,.35-2.27s-.12-1.79-.35-2.26c-.23-.47-.58-.7-1.05-.7s-.82,.23-1.05,.7Z"/>
    <path d="M215.06,30.54v7.29h-1v-6.22l-1.7,1.04-.44-.71,2.26-1.39h.88Z"/>
    <path d="M220.78,30.54v.75l-2.72,6.65-.92-.3,2.63-6.28h-3.23v-.82h4.24Z"/>
    <path d="M221.76,34.85v-.85h3.08v.85h-3.08Z"/>
    <path d="M228.47,30.7c.33,.17,.59,.41,.77,.71s.27,.64,.27,1.02c0,.44-.1,.87-.3,1.28-.2,.41-.51,.85-.92,1.32s-1.04,1.13-1.89,1.97h3.28l-.12,.84h-4.31v-.8c.97-1.01,1.66-1.75,2.07-2.22s.7-.88,.87-1.23,.26-.72,.26-1.12c0-.38-.11-.67-.33-.89-.22-.21-.51-.32-.87-.32-.3,0-.56,.06-.79,.19-.22,.12-.46,.33-.72,.61l-.65-.52c.3-.37,.63-.65,.99-.83s.77-.27,1.22-.27,.82,.09,1.15,.26Z"/>
    <path d="M235.09,31.4c.41,.64,.62,1.58,.62,2.8s-.21,2.15-.62,2.8c-.41,.65-1.02,.97-1.83,.97s-1.42-.32-1.83-.97c-.41-.65-.62-1.58-.62-2.8s.21-2.15,.62-2.8c.41-.64,1.02-.96,1.83-.96s1.42,.32,1.83,.96Zm-2.88,.53c-.23,.46-.34,1.22-.34,2.27s.12,1.8,.34,2.27,.58,.7,1.05,.7,.81-.23,1.05-.7c.23-.47,.35-1.23,.35-2.27s-.12-1.79-.35-2.26c-.23-.47-.58-.7-1.05-.7s-.82,.23-1.05,.7Z"/>
    <path d="M239.81,30.7c.33,.17,.59,.41,.77,.71s.27,.64,.27,1.02c0,.44-.1,.87-.3,1.28-.2,.41-.51,.85-.92,1.32s-1.04,1.13-1.89,1.97h3.28l-.12,.84h-4.31v-.8c.97-1.01,1.66-1.75,2.07-2.22s.7-.88,.87-1.23,.26-.72,.26-1.12c0-.38-.11-.67-.33-.89-.22-.21-.51-.32-.87-.32-.3,0-.56,.06-.79,.19-.22,.12-.46,.33-.72,.61l-.65-.52c.3-.37,.63-.65,.99-.83s.77-.27,1.22-.27,.82,.09,1.15,.26Z"/>
    <path d="M244.82,30.54v7.29h-1v-6.22l-1.7,1.04-.44-.71,2.26-1.39h.88Z"/>
    <path d="M247.86,36.67c.15,.15,.22,.32,.22,.53s-.07,.39-.22,.54c-.15,.15-.33,.22-.54,.22s-.39-.08-.53-.22c-.15-.15-.22-.33-.22-.54s.07-.39,.22-.53c.15-.14,.32-.22,.53-.22s.4,.07,.54,.22Z"/>
    <path d="M253.65,30.33v6.61h3.08l-.12,.91h-4v-7.51h1.04Z"/>
    <path d="M261.81,32.43c.29,.31,.44,.74,.44,1.29v4.12h-1v-3.98c0-.41-.08-.69-.23-.86s-.38-.25-.68-.25-.56,.09-.8,.26c-.23,.17-.45,.42-.65,.74v4.09h-1v-8.04l1-.11v3.2c.45-.62,1.02-.93,1.7-.93,.52,0,.93,.16,1.23,.47Z"/>
    <path d="M268.54,37.84h-.86l-.08-.89c-.22,.36-.47,.62-.75,.78-.28,.16-.63,.25-1.04,.25-.5,0-.89-.15-1.18-.46-.28-.31-.42-.74-.42-1.3v-4.12h1v4.01c0,.39,.07,.67,.21,.83,.14,.16,.36,.25,.68,.25,.56,0,1.04-.33,1.44-.99v-4.1h1v5.74Zm-1.26-8.78c.23,.22,.35,.5,.35,.82s-.12,.6-.35,.82c-.23,.22-.53,.33-.89,.33s-.66-.11-.89-.33c-.23-.22-.35-.5-.35-.82s.12-.6,.35-.82c.23-.22,.53-.33,.89-.33s.66,.11,.89,.33Zm-1.32,.38c-.1,.11-.15,.26-.15,.45s.05,.34,.15,.45c.1,.11,.24,.16,.43,.16s.31-.05,.42-.16c.11-.11,.16-.26,.16-.45s-.05-.34-.15-.45c-.1-.11-.24-.16-.42-.16s-.32,.05-.43,.16Z"/>
    <path d="M273.51,37.57c-.38,.26-.81,.39-1.29,.39s-.87-.14-1.14-.42c-.27-.28-.41-.68-.41-1.22v-3.47h-1v-.77h1v-1.3l1-.12v1.42h1.36l-.11,.77h-1.25v3.42c0,.3,.05,.51,.16,.65s.28,.2,.53,.2c.23,0,.48-.08,.76-.23l.38,.67Z"/>
    <path d="M278.46,37.01c.08,.11,.2,.2,.36,.26l-.23,.7c-.3-.04-.54-.12-.72-.25s-.32-.33-.4-.61c-.39,.57-.96,.86-1.71,.86-.57,0-1.01-.16-1.34-.48-.33-.32-.49-.74-.49-1.25,0-.61,.22-1.08,.66-1.41,.44-.33,1.06-.49,1.87-.49h.88v-.42c0-.41-.1-.7-.29-.87-.2-.17-.5-.26-.9-.26s-.94,.1-1.55,.3l-.25-.73c.71-.26,1.37-.39,1.98-.39,.68,0,1.18,.17,1.51,.5,.33,.33,.5,.8,.5,1.41v2.63c0,.23,.04,.41,.12,.52Zm-1.12-.69v-1.32h-.75c-1.06,0-1.59,.39-1.59,1.18,0,.34,.08,.6,.25,.77,.17,.17,.41,.26,.74,.26,.57,0,1.02-.3,1.35-.89Z"/>
    <path d="M287.73,29.78v8.06h-.88l-.1-.8c-.19,.29-.43,.52-.71,.68-.28,.16-.6,.25-.95,.25-.68,0-1.21-.27-1.6-.81-.38-.54-.57-1.26-.57-2.17,0-.59,.09-1.11,.27-1.57,.18-.46,.44-.82,.79-1.07,.34-.26,.74-.39,1.2-.39,.59,0,1.1,.24,1.55,.71v-3.01l1,.12Zm-1.63,7.18c.22-.14,.43-.35,.63-.64v-2.81c-.19-.25-.39-.43-.6-.56-.21-.13-.46-.19-.72-.19-.44,0-.79,.19-1.03,.56-.24,.37-.37,.92-.37,1.66s.11,1.29,.34,1.66,.55,.54,.97,.54c.31,0,.57-.07,.79-.21Z"/>
    <path d="M293.79,37.01c.08,.11,.2,.2,.36,.26l-.23,.7c-.3-.04-.54-.12-.72-.25s-.32-.33-.4-.61c-.39,.57-.96,.86-1.71,.86-.57,0-1.01-.16-1.34-.48-.33-.32-.49-.74-.49-1.25,0-.61,.22-1.08,.66-1.41,.44-.33,1.06-.49,1.87-.49h.88v-.42c0-.41-.1-.7-.29-.87-.2-.17-.5-.26-.9-.26s-.94,.1-1.55,.3l-.25-.73c.71-.26,1.37-.39,1.98-.39,.68,0,1.18,.17,1.51,.5,.33,.33,.5,.8,.5,1.41v2.63c0,.23,.04,.41,.12,.52Zm-1.12-.69v-1.32h-.75c-1.06,0-1.59,.39-1.59,1.18,0,.34,.08,.6,.25,.77,.17,.17,.41,.26,.74,.26,.57,0,1.02-.3,1.35-.89Z"/>
    <path d="M299.66,32.43c.29,.31,.44,.74,.44,1.29v4.12h-1v-3.98c0-.41-.08-.69-.23-.86s-.38-.25-.68-.25-.57,.09-.81,.26c-.23,.17-.45,.42-.65,.75v4.08h-1v-5.74h.86l.09,.85c.2-.3,.46-.54,.76-.72,.3-.17,.63-.26,1-.26,.52,0,.93,.16,1.23,.47Z"/>
    <path d="M306.11,37.01c.08,.11,.2,.2,.36,.26l-.23,.7c-.3-.04-.54-.12-.72-.25s-.32-.33-.4-.61c-.39,.57-.96,.86-1.71,.86-.57,0-1.01-.16-1.34-.48-.33-.32-.49-.74-.49-1.25,0-.61,.22-1.08,.66-1.41,.44-.33,1.06-.49,1.87-.49h.88v-.42c0-.41-.1-.7-.29-.87-.2-.17-.5-.26-.9-.26s-.94,.1-1.55,.3l-.25-.73c.71-.26,1.37-.39,1.98-.39,.68,0,1.18,.17,1.51,.5,.33,.33,.5,.8,.5,1.41v2.63c0,.23,.04,.41,.12,.52Zm-1.32-7.91l.45,.84-2.31,.94-.3-.53,2.17-1.24Zm.2,7.22v-1.32h-.75c-1.06,0-1.59,.39-1.59,1.18,0,.34,.08,.6,.25,.77,.17,.17,.41,.26,.74,.26,.57,0,1.02-.3,1.35-.89Z"/>
    <path d="M314.31,32.09v.76l-3,4.14h3.03l-.12,.84h-4.04v-.75l2.99-4.14h-2.74v-.85h3.88Z"/>
    <path d="M319.53,37.01c.08,.11,.2,.2,.36,.26l-.23,.7c-.3-.04-.54-.12-.72-.25s-.32-.33-.4-.61c-.39,.57-.96,.86-1.71,.86-.57,0-1.01-.16-1.34-.48-.33-.32-.49-.74-.49-1.25,0-.61,.22-1.08,.66-1.41,.44-.33,1.06-.49,1.87-.49h.88v-.42c0-.41-.1-.7-.29-.87-.2-.17-.5-.26-.9-.26s-.94,.1-1.55,.3l-.25-.73c.71-.26,1.37-.39,1.98-.39,.68,0,1.18,.17,1.51,.5,.33,.33,.5,.8,.5,1.41v2.63c0,.23,.04,.41,.12,.52Zm-1.32-7.91l.45,.84-2.31,.94-.3-.53,2.17-1.24Zm.2,7.22v-1.32h-.75c-1.06,0-1.59,.39-1.59,1.18,0,.34,.08,.6,.25,.77,.17,.17,.41,.26,.74,.26,.57,0,1.02-.3,1.35-.89Z"/>
    <path d="M322.47,29.66v8.17h-1v-8.06l1-.12Zm3.3,2.43l-2.11,2.54,2.35,3.21h-1.2l-2.28-3.14,2.12-2.6h1.12Z"/>
    <path d="M330.99,32.77c.45,.54,.67,1.27,.67,2.19,0,.6-.1,1.12-.3,1.58-.2,.45-.5,.81-.88,1.06-.39,.25-.84,.38-1.37,.38-.81,0-1.43-.27-1.89-.81-.45-.54-.68-1.27-.68-2.19,0-.6,.1-1.12,.31-1.58,.2-.45,.5-.81,.88-1.06,.38-.25,.85-.38,1.38-.38,.81,0,1.43,.27,1.88,.81Zm-3.37,2.2c0,1.46,.49,2.19,1.48,2.19s1.48-.73,1.48-2.2-.49-2.19-1.47-2.19-1.49,.73-1.49,2.2Z"/>
    <path d="M337.25,32.43c.29,.31,.44,.74,.44,1.29v4.12h-1v-3.98c0-.41-.08-.69-.23-.86s-.38-.25-.68-.25-.57,.09-.81,.26c-.23,.17-.45,.42-.65,.75v4.08h-1v-5.74h.86l.09,.85c.2-.3,.46-.54,.76-.72,.3-.17,.63-.26,1-.26,.52,0,.93,.16,1.23,.47Z"/>
    <path d="M344.02,35.31h-3.66c.04,.63,.2,1.1,.48,1.4s.63,.45,1.07,.45c.28,0,.53-.04,.76-.12s.48-.21,.73-.38l.44,.6c-.61,.48-1.28,.72-2.01,.72-.8,0-1.42-.26-1.87-.79-.45-.52-.67-1.24-.67-2.16,0-.6,.1-1.12,.29-1.59,.19-.46,.47-.82,.83-1.08,.36-.26,.78-.39,1.27-.39,.76,0,1.35,.25,1.75,.75,.41,.5,.61,1.2,.61,2.08,0,.17,0,.34-.02,.51Zm-.97-.81c0-.57-.11-1-.34-1.3s-.56-.45-1.01-.45c-.82,0-1.27,.6-1.34,1.81h2.69v-.07Z"/>
    <path d="M352.55,32.43c.28,.32,.42,.74,.42,1.28v4.12h-1v-3.98c0-.74-.27-1.11-.81-1.11-.28,0-.52,.08-.72,.25-.2,.16-.41,.42-.63,.77v4.08h-1v-3.98c0-.74-.27-1.11-.81-1.11-.29,0-.53,.08-.73,.25-.2,.17-.4,.42-.62,.76v4.08h-1v-5.74h.86l.09,.84c.43-.65,.98-.97,1.66-.97,.36,0,.66,.09,.91,.27s.43,.44,.54,.76c.23-.33,.47-.59,.75-.77,.27-.18,.59-.27,.96-.27,.47,0,.85,.16,1.13,.47Z"/>
    <path d="M358.86,37.49c0,.53-.07,.96-.2,1.27-.13,.32-.32,.58-.57,.78-.25,.2-.6,.4-1.05,.6l-.29-.73c.28-.13,.5-.26,.65-.39,.15-.13,.27-.31,.34-.53s.11-.54,.11-.94v-5.46h1v5.4Zm.01-7.96c.13,.13,.2,.29,.2,.49s-.07,.36-.2,.49c-.13,.13-.3,.19-.51,.19s-.37-.06-.5-.19c-.13-.13-.2-.29-.2-.49s.07-.36,.2-.49,.3-.2,.5-.2,.38,.07,.51,.2Z"/>
    <path d="M365.24,35.31h-3.66c.04,.63,.2,1.1,.48,1.4s.63,.45,1.07,.45c.28,0,.53-.04,.76-.12s.48-.21,.73-.38l.44,.6c-.61,.48-1.28,.72-2.01,.72-.8,0-1.42-.26-1.87-.79-.45-.52-.67-1.24-.67-2.16,0-.6,.1-1.12,.29-1.59,.19-.46,.47-.82,.83-1.08,.36-.26,.78-.39,1.27-.39,.76,0,1.35,.25,1.75,.75,.41,.5,.61,1.2,.61,2.08,0,.17,0,.34-.02,.51Zm-.97-.81c0-.57-.11-1-.34-1.3s-.56-.45-1.01-.45c-.82,0-1.27,.6-1.34,1.81h2.69v-.07Z"/>
    <path d="M374.19,35.24v.8h-.95v1.8h-.97v-1.8h-3.12v-.72l2.19-4.88,.84,.35-1.97,4.46h2.07l.09-1.96h.87v1.96h.95Z"/>
    <path d="M378.99,31.33h-2.84v2.15c.37-.19,.76-.28,1.17-.28,.62,0,1.13,.21,1.5,.62,.38,.41,.57,.98,.57,1.69,0,.48-.11,.91-.32,1.28-.21,.37-.51,.67-.89,.87-.38,.21-.82,.31-1.32,.31-.44,0-.84-.08-1.19-.23-.35-.16-.67-.39-.97-.69l.59-.58c.23,.23,.47,.41,.72,.52,.25,.11,.53,.17,.84,.17,.46,0,.83-.15,1.1-.44,.26-.29,.4-.7,.4-1.23s-.12-.92-.36-1.16-.56-.36-.97-.36c-.19,0-.36,.02-.52,.06-.16,.04-.33,.1-.51,.19h-.79v-3.67h3.95l-.14,.78Z"/>
    <path d="M388.24,29.78v8.06h-.88l-.1-.8c-.19,.29-.43,.52-.71,.68-.28,.16-.6,.25-.95,.25-.68,0-1.21-.27-1.6-.81-.38-.54-.57-1.26-.57-2.17,0-.59,.09-1.11,.27-1.57,.18-.46,.44-.82,.79-1.07,.34-.26,.74-.39,1.2-.39,.59,0,1.1,.24,1.55,.71v-3.01l1,.12Zm-1.63,7.18c.22-.14,.43-.35,.63-.64v-2.81c-.19-.25-.39-.43-.6-.56-.21-.13-.46-.19-.72-.19-.44,0-.79,.19-1.03,.56-.24,.37-.37,.92-.37,1.66s.11,1.29,.34,1.66,.55,.54,.97,.54c.31,0,.57-.07,.79-.21Z"/>
    <path d="M394.24,32.43c.29,.31,.44,.74,.44,1.29v4.12h-1v-3.98c0-.41-.08-.69-.23-.86s-.38-.25-.68-.25-.57,.09-.81,.26c-.23,.17-.45,.42-.65,.75v4.08h-1v-5.74h.86l.09,.85c.2-.3,.46-.54,.76-.72,.3-.17,.63-.26,1-.26,.52,0,.93,.16,1.23,.47Z"/>
    <path d="M398.06,29.1l.45,.84-2.31,.94-.31-.53,2.17-1.24Zm-.36,2.99v5.74h-1v-5.74h1Z"/>
    <path d="M400.58,36.67c.15,.15,.22,.32,.22,.53s-.07,.39-.22,.54c-.15,.15-.33,.22-.54,.22s-.39-.08-.53-.22c-.15-.15-.22-.33-.22-.54s.07-.39,.22-.53c.15-.14,.32-.22,.53-.22s.4,.07,.54,.22Z"/>
  </g>
  <g>
    <path class="cls-5" d="M60.2,199.97v.89l-3.72,6.42h3.71l-.12,.95h-4.81v-.89l3.74-6.44h-3.37v-.92h4.57Z"/>
    <path class="cls-5" d="M65.82,199.35v8.87h-.96l-.07-.83c-.41,.66-.96,.98-1.64,.98s-1.22-.29-1.6-.88c-.38-.58-.57-1.39-.57-2.41,0-.66,.09-1.25,.28-1.75,.19-.5,.45-.89,.8-1.17,.34-.28,.74-.41,1.19-.41,.6,0,1.1,.25,1.5,.76v-3.28l1.08,.12Zm-1.67,7.93c.21-.16,.41-.4,.59-.71v-3.17c-.36-.54-.78-.8-1.26-.8-.42,0-.76,.2-1.01,.61-.25,.41-.37,1.02-.36,1.85,0,.84,.11,1.46,.34,1.86s.54,.6,.95,.6c.29,0,.54-.08,.75-.24Z"/>
    <path class="cls-5" d="M70.89,201.84l-.18,1.04c-.15-.05-.32-.07-.49-.07-.35,0-.64,.14-.86,.42-.22,.28-.39,.71-.52,1.28v3.71h-1.08v-6.31h.94l.08,1.25c.31-.93,.84-1.39,1.57-1.39,.21,0,.39,.02,.54,.07Z"/>
    <path class="cls-5" d="M75.69,202.61c.45,.57,.67,1.38,.67,2.45s-.23,1.83-.68,2.43c-.46,.6-1.08,.89-1.88,.89s-1.44-.29-1.89-.88c-.45-.58-.68-1.4-.68-2.44s.23-1.86,.68-2.44c.46-.58,1.09-.87,1.9-.87s1.44,.28,1.88,.85Zm-2.96,.61c-.25,.4-.37,1.01-.37,1.85,0,1.64,.48,2.46,1.44,2.46s1.44-.82,1.44-2.47c0-.84-.12-1.46-.36-1.85-.24-.39-.6-.59-1.07-.59s-.83,.2-1.08,.59Z"/>
    <path class="cls-5" d="M79.01,207.97c0,.54-.07,.97-.21,1.31-.14,.34-.34,.62-.6,.83-.26,.21-.61,.42-1.05,.63l-.34-.78c.28-.14,.5-.29,.65-.43s.27-.34,.35-.58c.08-.24,.12-.56,.12-.96v-6.08h1.08v6.06Zm-.03-8.83c.13,.14,.2,.3,.2,.5s-.06,.37-.19,.5-.3,.2-.52,.2-.38-.07-.51-.2-.2-.3-.2-.5,.07-.37,.2-.5c.13-.14,.3-.2,.51-.2s.38,.07,.51,.2Z"/>
    <path class="cls-5" d="M88.26,199.35v8.87h-.96l-.07-.83c-.41,.66-.96,.98-1.64,.98s-1.22-.29-1.6-.88c-.38-.58-.57-1.39-.57-2.41,0-.66,.09-1.25,.28-1.75,.19-.5,.45-.89,.8-1.17,.34-.28,.74-.41,1.19-.41,.6,0,1.1,.25,1.5,.76v-3.28l1.08,.12Zm-1.67,7.93c.21-.16,.41-.4,.59-.71v-3.17c-.36-.54-.78-.8-1.26-.8-.42,0-.76,.2-1.01,.61-.25,.41-.37,1.02-.36,1.85,0,.84,.11,1.46,.34,1.86s.54,.6,.95,.6c.29,0,.54-.08,.75-.24Z"/>
    <path class="cls-5" d="M94.24,207.35c.07,.12,.18,.22,.34,.28l-.23,.73c-.31-.05-.56-.14-.73-.29-.18-.14-.3-.36-.37-.66-.41,.64-.98,.96-1.72,.96-.56,0-1-.17-1.33-.52-.33-.35-.49-.81-.49-1.4,0-.67,.22-1.18,.66-1.54,.44-.35,1.07-.53,1.88-.53h.82v-.54c0-.44-.09-.76-.27-.95-.18-.2-.47-.29-.88-.29-.44,0-.95,.11-1.54,.34l-.26-.76c.7-.29,1.36-.43,1.97-.43,1.37,0,2.05,.68,2.05,2.05v2.98c0,.26,.04,.45,.11,.57Zm-1.18-.77v-1.49h-.7c-1.04,0-1.56,.44-1.56,1.31,0,.38,.08,.66,.25,.86,.17,.2,.41,.3,.72,.3,.56,0,.99-.33,1.28-.98Z"/>
    <path class="cls-5" d="M99.07,207.95c-.4,.29-.84,.43-1.33,.43s-.91-.15-1.18-.44c-.28-.3-.41-.71-.41-1.25v-3.96h-.9v-.82h.9v-1.45l1.08-.13v1.58h1.39l-.12,.82h-1.27v3.95c0,.54,.23,.82,.68,.82,.14,0,.26-.02,.38-.06s.25-.1,.39-.18l.4,.7Z"/>
    <path class="cls-5" d="M100.89,202.61c.14,.15,.21,.33,.21,.53s-.07,.39-.21,.54c-.14,.15-.32,.23-.55,.23s-.39-.08-.53-.23c-.14-.15-.21-.33-.21-.54s.07-.39,.21-.53c.14-.15,.32-.22,.53-.22s.41,.07,.55,.22Zm0,4.46c.14,.15,.21,.33,.21,.53s-.07,.39-.21,.54c-.14,.15-.32,.23-.55,.23s-.39-.08-.53-.23c-.14-.15-.21-.33-.21-.54s.07-.39,.21-.53c.14-.15,.32-.22,.53-.22s.41,.07,.55,.22Z"/>
    <path class="cls-5" d="M109.33,200.01c.32,.13,.64,.34,.95,.62l-.58,.67c-.23-.2-.46-.35-.69-.44-.23-.1-.48-.14-.75-.14-.62,0-1.12,.27-1.49,.8s-.55,1.39-.55,2.57,.18,2,.55,2.55,.86,.82,1.49,.82c.31,0,.58-.06,.8-.17s.47-.28,.73-.49l.56,.66c-.6,.62-1.32,.92-2.16,.92-.62,0-1.16-.16-1.64-.48-.48-.32-.85-.8-1.12-1.45-.27-.64-.4-1.43-.4-2.37s.14-1.71,.41-2.35c.28-.64,.65-1.12,1.13-1.44,.48-.32,1.01-.48,1.61-.48,.43,0,.81,.07,1.13,.2Zm.28-2.65l.42,.47-1.45,1.34h-.67l-1.45-1.34,.43-.47,1.36,.97,1.37-.97Z"/>
    <path class="cls-5" d="M114.71,200.05c.36,.16,.71,.4,1.03,.72l-.56,.64c-.27-.24-.54-.42-.81-.53-.27-.12-.56-.17-.87-.17-.4,0-.72,.11-.97,.33-.24,.22-.37,.51-.37,.87,0,.24,.05,.45,.14,.62,.1,.17,.26,.33,.49,.47,.23,.14,.56,.28,.98,.43,.49,.18,.89,.36,1.2,.56,.31,.2,.55,.46,.72,.77s.25,.7,.25,1.18-.11,.89-.32,1.27-.53,.66-.93,.88c-.4,.21-.88,.32-1.42,.32-1,0-1.85-.36-2.56-1.08l.59-.64c.3,.26,.6,.47,.91,.61,.31,.14,.65,.21,1.03,.21,.47,0,.85-.13,1.13-.4s.43-.64,.43-1.11c0-.41-.11-.73-.34-.97-.23-.24-.65-.46-1.25-.67-.78-.27-1.33-.59-1.67-.95-.34-.36-.51-.83-.51-1.4,0-.41,.1-.78,.31-1.11s.49-.59,.86-.77c.37-.18,.78-.28,1.25-.28,.49,0,.91,.08,1.28,.24Z"/>
    <path class="cls-5" d="M120.52,200.05c.36,.16,.71,.4,1.03,.72l-.56,.64c-.27-.24-.54-.42-.81-.53-.27-.12-.56-.17-.87-.17-.4,0-.72,.11-.97,.33-.24,.22-.37,.51-.37,.87,0,.24,.05,.45,.14,.62,.1,.17,.26,.33,.49,.47,.23,.14,.56,.28,.98,.43,.49,.18,.89,.36,1.2,.56,.31,.2,.55,.46,.72,.77s.25,.7,.25,1.18-.11,.89-.32,1.27-.53,.66-.93,.88c-.4,.21-.88,.32-1.42,.32-1,0-1.85-.36-2.56-1.08l.59-.64c.3,.26,.6,.47,.91,.61,.31,.14,.65,.21,1.03,.21,.47,0,.85-.13,1.13-.4s.43-.64,.43-1.11c0-.41-.11-.73-.34-.97-.23-.24-.65-.46-1.25-.67-.78-.27-1.33-.59-1.67-.95-.34-.36-.51-.83-.51-1.4,0-.41,.1-.78,.31-1.11s.49-.59,.86-.77c.37-.18,.78-.28,1.25-.28,.49,0,.91,.08,1.28,.24Z"/>
    <path class="cls-5" d="M127.28,199.97v.89l-3.72,6.42h3.71l-.12,.95h-4.81v-.89l3.74-6.44h-3.37v-.92h4.57Z"/>
    <path class="cls-5" d="M133.16,198.54v10.91h-1.01v-10.91h1.01Z"/>
    <path class="cls-5" d="M146.43,199.97l-2.28,8.26h-1.33l-2.32-8.26h1.15l1.85,7.18,1.82-7.18h1.1Z"/>
    <path class="cls-5" d="M148.55,199.14c.13,.14,.2,.3,.2,.5s-.06,.37-.19,.5-.3,.2-.52,.2-.38-.07-.51-.2-.2-.3-.2-.5,.07-.37,.2-.5c.13-.14,.3-.2,.51-.2s.38,.07,.51,.2Zm.03,2.77v6.31h-1.08v-6.31h1.08Z"/>
    <path class="cls-5" d="M153.97,201.91v.8l-2.99,4.62h3l-.11,.89h-4.08v-.8l2.99-4.62h-2.74v-.89h3.92Z"/>
    <path class="cls-5" d="M159.5,208.22h-.94l-.06-.95c-.44,.74-1.03,1.1-1.76,1.1-.5,0-.9-.16-1.19-.49-.29-.33-.43-.77-.43-1.33v-4.64h1.08v4.55c0,.37,.07,.64,.21,.81,.14,.17,.35,.26,.63,.26,.54,0,1-.35,1.38-1.06v-4.56h1.08v6.31Z"/>
    <path class="cls-5" d="M165.49,207.35c.07,.12,.18,.22,.34,.28l-.23,.73c-.31-.05-.56-.14-.73-.29-.18-.14-.3-.36-.37-.66-.41,.64-.98,.96-1.72,.96-.56,0-1-.17-1.33-.52-.33-.35-.49-.81-.49-1.4,0-.67,.22-1.18,.66-1.54,.44-.35,1.07-.53,1.88-.53h.82v-.54c0-.44-.09-.76-.27-.95-.18-.2-.47-.29-.88-.29-.44,0-.95,.11-1.54,.34l-.26-.76c.7-.29,1.36-.43,1.97-.43,1.37,0,2.05,.68,2.05,2.05v2.98c0,.26,.04,.45,.11,.57Zm-1.18-.77v-1.49h-.7c-1.04,0-1.56,.44-1.56,1.31,0,.38,.08,.66,.25,.86,.17,.2,.41,.3,.72,.3,.56,0,.99-.33,1.28-.98Z"/>
    <path class="cls-5" d="M167.48,208.03c-.22-.23-.34-.56-.34-.97v-7.7l1.08-.12v7.79c0,.31,.13,.47,.38,.47,.1,0,.22-.02,.35-.07l.24,.76c-.26,.14-.52,.2-.8,.2-.38,0-.69-.12-.91-.35Z"/>
    <path class="cls-5" d="M171.42,199.14c.13,.14,.2,.3,.2,.5s-.06,.37-.19,.5-.3,.2-.52,.2-.38-.07-.51-.2-.2-.3-.2-.5,.07-.37,.2-.5c.13-.14,.3-.2,.51-.2s.38,.07,.51,.2Zm.03,2.77v6.31h-1.08v-6.31h1.08Z"/>
    <path class="cls-5" d="M176.84,201.91v.8l-2.99,4.62h3l-.11,.89h-4.08v-.8l2.99-4.62h-2.74v-.89h3.92Z"/>
    <path class="cls-5" d="M182.03,207.35c.07,.12,.18,.22,.34,.28l-.23,.73c-.31-.05-.56-.14-.73-.29-.18-.14-.3-.36-.37-.66-.41,.64-.98,.96-1.72,.96-.56,0-1-.17-1.33-.52-.33-.35-.49-.81-.49-1.4,0-.67,.22-1.18,.66-1.54,.44-.35,1.07-.53,1.88-.53h.82v-.54c0-.44-.09-.76-.27-.95-.18-.2-.47-.29-.88-.29-.44,0-.95,.11-1.54,.34l-.26-.76c.7-.29,1.36-.43,1.97-.43,1.37,0,2.05,.68,2.05,2.05v2.98c0,.26,.04,.45,.11,.57Zm-1.18-.77v-1.49h-.7c-1.04,0-1.56,.44-1.56,1.31,0,.38,.08,.66,.25,.86,.17,.2,.41,.3,.72,.3,.56,0,.99-.33,1.28-.98Z"/>
    <path class="cls-5" d="M186.99,201.92c.28,.11,.55,.28,.8,.52l-.48,.65c-.19-.15-.38-.27-.58-.34-.19-.08-.4-.11-.62-.11-.47,0-.84,.2-1.1,.6-.26,.4-.39,1.02-.39,1.87,0,1.58,.5,2.38,1.49,2.38,.22,0,.43-.04,.61-.11,.18-.08,.38-.19,.59-.34l.5,.66c-.51,.46-1.09,.7-1.74,.7-.81,0-1.44-.28-1.9-.84-.46-.56-.69-1.37-.69-2.42,0-.69,.11-1.28,.32-1.79s.51-.89,.9-1.16c.39-.27,.84-.41,1.36-.41,.34,0,.64,.06,.92,.17Z"/>
    <path class="cls-5" d="M193.18,205.44h-3.67c.03,.74,.18,1.27,.44,1.59,.26,.32,.62,.49,1.08,.49,.29,0,.55-.04,.77-.13,.23-.09,.47-.23,.71-.43l.48,.64c-.59,.53-1.26,.79-2.02,.79-.82,0-1.46-.29-1.91-.86-.45-.57-.68-1.37-.68-2.41s.22-1.85,.65-2.45c.43-.6,1.03-.91,1.8-.91s1.34,.27,1.75,.81,.61,1.31,.61,2.31c0,.17,0,.36-.02,.56Zm-1.02-.89c0-1.32-.44-1.98-1.31-1.98-.4,0-.72,.17-.95,.5-.23,.33-.36,.87-.4,1.61h2.65v-.13Z"/>
    <path class="cls-5" d="M195.54,202.61c.14,.15,.21,.33,.21,.53s-.07,.39-.21,.54c-.14,.15-.32,.23-.55,.23s-.39-.08-.53-.23c-.14-.15-.21-.33-.21-.54s.07-.39,.21-.53c.14-.15,.32-.22,.53-.22s.41,.07,.55,.22Zm0,4.46c.14,.15,.21,.33,.21,.53s-.07,.39-.21,.54c-.14,.15-.32,.23-.55,.23s-.39-.08-.53-.23c-.14-.15-.21-.33-.21-.54s.07-.39,.21-.53c.14-.15,.32-.22,.53-.22s.41,.07,.55,.22Z"/>
    <path class="cls-5" d="M201.12,199.14c.13,.14,.2,.3,.2,.5s-.06,.37-.19,.5-.3,.2-.52,.2-.38-.07-.51-.2-.2-.3-.2-.5,.07-.37,.2-.5c.13-.14,.3-.2,.51-.2s.38,.07,.51,.2Zm.03,2.77v6.31h-1.08v-6.31h1.08Z"/>
    <path class="cls-5" d="M207.2,208.22l-1.78-3.52h-1.16v3.52h-1.12v-8.26h1.93c1.97,0,2.95,.78,2.95,2.33,0,.54-.13,1-.4,1.38-.26,.38-.65,.65-1.16,.83l1.97,3.72h-1.24Zm-.76-4.75c.28-.25,.42-.65,.42-1.18,0-.5-.14-.88-.43-1.12-.28-.24-.75-.36-1.39-.36h-.79v3.04h.9c.58,0,1-.13,1.28-.38Z"/>
    <path class="cls-5" d="M214.64,200.9c.56,.72,.85,1.79,.85,3.2s-.28,2.44-.84,3.18c-.56,.74-1.34,1.1-2.33,1.1s-1.76-.36-2.32-1.09c-.56-.72-.85-1.79-.85-3.19,0-.92,.13-1.7,.39-2.35,.26-.64,.63-1.13,1.1-1.46,.48-.33,1.03-.49,1.67-.49,.98,0,1.76,.36,2.32,1.09Zm-4.31,3.21c0,2.25,.66,3.37,1.99,3.37,.66,0,1.15-.27,1.49-.8s.5-1.4,.5-2.58-.17-2.04-.51-2.58-.83-.82-1.48-.82c-1.33,0-1.99,1.14-1.99,3.41Z"/>
    <path class="cls-5" d="M221.03,199.97v.89l-3.72,6.42h3.71l-.12,.95h-4.81v-.89l3.74-6.44h-3.37v-.92h4.57Z"/>
    <path class="cls-5" d="M226.59,208.22v-3.88h-3v3.88h-1.12v-8.26h1.12v3.47h3v-3.47h1.12v8.26h-1.12Z"/>
    <path class="cls-5" d="M230.86,199.97v7.31h3.01l-.12,.95h-4.01v-8.26h1.12Z"/>
    <path class="cls-5" d="M239.12,208.22l-.55-2.1h-2.77l-.55,2.1h-1.12l2.39-8.26h1.37l2.39,8.26h-1.15Zm-3.1-2.98h2.32l-1.15-4.39-1.16,4.39Z"/>
    <path class="cls-5" d="M244.61,200.05c.36,.16,.71,.4,1.03,.72l-.56,.64c-.27-.24-.54-.42-.81-.53-.27-.12-.56-.17-.87-.17-.4,0-.72,.11-.97,.33-.24,.22-.37,.51-.37,.87,0,.24,.05,.45,.14,.62,.1,.17,.26,.33,.49,.47,.23,.14,.56,.28,.98,.43,.49,.18,.89,.36,1.2,.56,.31,.2,.55,.46,.72,.77s.25,.7,.25,1.18-.11,.89-.32,1.27-.53,.66-.93,.88c-.4,.21-.88,.32-1.42,.32-1,0-1.85-.36-2.56-1.08l.59-.64c.3,.26,.6,.47,.91,.61,.31,.14,.65,.21,1.03,.21,.47,0,.85-.13,1.13-.4s.43-.64,.43-1.11c0-.41-.11-.73-.34-.97-.23-.24-.65-.46-1.25-.67-.78-.27-1.33-.59-1.67-.95-.34-.36-.51-.83-.51-1.4,0-.41,.1-.78,.31-1.11s.49-.59,.86-.77c.37-.18,.78-.28,1.25-.28,.49,0,.91,.08,1.28,.24Z"/>
    <path class="cls-5" d="M248.11,207.08c.14,.15,.21,.33,.21,.53s-.07,.39-.21,.54c-.14,.15-.32,.23-.55,.23s-.39-.08-.53-.23c-.14-.15-.21-.33-.21-.54s.07-.39,.21-.53c.14-.15,.32-.22,.53-.22s.41,.07,.55,.22Z"/>
    <path class="cls-5" d="M252.82,201.92c.28,.11,.55,.28,.8,.52l-.48,.65c-.19-.15-.38-.27-.58-.34-.19-.08-.4-.11-.62-.11-.47,0-.84,.2-1.1,.6-.26,.4-.39,1.02-.39,1.87,0,1.58,.5,2.38,1.49,2.38,.22,0,.43-.04,.61-.11,.18-.08,.38-.19,.59-.34l.5,.66c-.51,.46-1.09,.7-1.74,.7-.81,0-1.44-.28-1.9-.84-.46-.56-.69-1.37-.69-2.42,0-.69,.11-1.28,.32-1.79s.51-.89,.9-1.16c.39-.27,.84-.41,1.36-.41,.34,0,.64,.06,.92,.17Z"/>
    <path class="cls-5" d="M258.28,201.91v.8l-2.99,4.62h3l-.11,.89h-4.08v-.8l2.99-4.62h-2.74v-.89h3.92Z"/>
    <path class="cls-5" d="M260.38,207.07c.14,.14,.2,.32,.2,.53,0,.11-.02,.23-.05,.35s-.09,.29-.17,.52l-.66,1.69h-.67l.44-1.91c-.23-.15-.35-.36-.35-.64,0-.22,.07-.4,.21-.54,.14-.14,.32-.22,.53-.22s.38,.07,.52,.22Z"/>
    <path class="cls-5" d="M266.07,199.97v8.26h-1.12v-8.26h1.12Zm4.06,0l-2.8,3.77,2.99,4.49h-1.28l-2.92-4.42,2.82-3.84h1.19Z"/>
    <path class="cls-5" d="M274.39,201.84l-.18,1.04c-.15-.05-.32-.07-.49-.07-.35,0-.64,.14-.86,.42-.22,.28-.39,.71-.52,1.28v3.71h-1.08v-6.31h.94l.08,1.25c.31-.93,.84-1.39,1.57-1.39,.21,0,.39,.02,.54,.07Z"/>
    <path class="cls-5" d="M276.49,199.14c.13,.14,.2,.3,.2,.5s-.06,.37-.19,.5-.3,.2-.52,.2-.38-.07-.51-.2-.2-.3-.2-.5,.07-.37,.2-.5c.13-.14,.3-.2,.51-.2s.38,.07,.51,.2Zm.03,2.77v6.31h-1.08v-6.31h1.08Z"/>
    <path class="cls-5" d="M282.04,202.48l-.46,.64c-.26-.18-.5-.31-.72-.4-.22-.09-.46-.13-.71-.13-.33,0-.59,.08-.77,.23-.19,.16-.28,.37-.28,.64s.09,.47,.27,.62c.18,.15,.52,.31,1.03,.47,.63,.2,1.09,.44,1.38,.73s.43,.68,.43,1.19c0,.59-.22,1.06-.65,1.4-.43,.34-.97,.51-1.62,.51-.86,0-1.58-.28-2.17-.85l.55-.6c.5,.41,1.04,.61,1.6,.61,.35,0,.64-.09,.85-.26,.22-.18,.32-.42,.32-.73,0-.22-.04-.4-.11-.54-.08-.14-.21-.26-.41-.37s-.48-.22-.86-.34c-.6-.2-1.03-.44-1.3-.72-.26-.28-.4-.64-.4-1.07,0-.34,.09-.64,.26-.9,.18-.26,.42-.47,.73-.62,.31-.15,.67-.23,1.08-.23,.73,0,1.38,.24,1.94,.72Z"/>
    <path class="cls-5" d="M286.58,207.95c-.4,.29-.84,.43-1.33,.43s-.91-.15-1.18-.44c-.28-.3-.41-.71-.41-1.25v-3.96h-.9v-.82h.9v-1.45l1.08-.13v1.58h1.39l-.12,.82h-1.27v3.95c0,.54,.23,.82,.68,.82,.14,0,.26-.02,.38-.06s.25-.1,.39-.18l.4,.7Z"/>
    <path class="cls-5" d="M288.85,198.66l.46,.86-2.3,1.04-.31-.55,2.16-1.36Zm-.25,3.25v6.31h-1.08v-6.31h1.08Z"/>
    <path class="cls-5" d="M294.54,202.25c.28,.33,.43,.79,.43,1.37v4.6h-1.08v-4.46c0-.41-.07-.7-.2-.88-.14-.18-.34-.27-.62-.27-.53,0-1.01,.38-1.44,1.13v4.49h-1.08v-6.31h.94l.08,.94c.49-.73,1.09-1.09,1.8-1.09,.5,0,.9,.17,1.18,.5Z"/>
    <path class="cls-5" d="M300.9,207.35c.07,.12,.18,.22,.34,.28l-.23,.73c-.31-.05-.56-.14-.73-.29-.18-.14-.3-.36-.37-.66-.41,.64-.98,.96-1.72,.96-.56,0-1-.17-1.33-.52-.33-.35-.49-.81-.49-1.4,0-.67,.22-1.18,.66-1.54,.44-.35,1.07-.53,1.88-.53h.82v-.54c0-.44-.09-.76-.27-.95-.18-.2-.47-.29-.88-.29-.44,0-.95,.11-1.54,.34l-.26-.76c.7-.29,1.36-.43,1.97-.43,1.37,0,2.05,.68,2.05,2.05v2.98c0,.26,.04,.45,.11,.57Zm-1.18-.77v-1.49h-.7c-1.04,0-1.56,.44-1.56,1.31,0,.38,.08,.66,.25,.86,.17,.2,.41,.3,.72,.3,.56,0,.99-.33,1.28-.98Z"/>
    <path class="cls-5" d="M309.75,200.6c.52,.42,.78,1.06,.78,1.91,0,.9-.27,1.56-.8,2-.53,.44-1.27,.65-2.21,.65h-.79v3.06h-1.12v-8.26h1.87c.99,0,1.75,.21,2.27,.64Zm-.85,3.3c.31-.26,.47-.72,.47-1.38,0-.6-.15-1.03-.46-1.3-.31-.27-.78-.4-1.41-.4h-.77v3.48h.76c.63,0,1.1-.13,1.42-.4Z"/>
    <path class="cls-5" d="M315.09,202.48l-.46,.64c-.26-.18-.5-.31-.72-.4-.22-.09-.46-.13-.71-.13-.33,0-.59,.08-.77,.23-.19,.16-.28,.37-.28,.64s.09,.47,.27,.62c.18,.15,.52,.31,1.03,.47,.63,.2,1.09,.44,1.38,.73s.43,.68,.43,1.19c0,.59-.22,1.06-.65,1.4-.43,.34-.97,.51-1.62,.51-.86,0-1.58-.28-2.17-.85l.55-.6c.5,.41,1.04,.61,1.6,.61,.35,0,.64-.09,.85-.26,.22-.18,.32-.42,.32-.73,0-.22-.04-.4-.11-.54-.08-.14-.21-.26-.41-.37s-.48-.22-.86-.34c-.6-.2-1.03-.44-1.3-.72-.26-.28-.4-.64-.4-1.07,0-.34,.09-.64,.26-.9,.18-.26,.42-.47,.73-.62,.31-.15,.67-.23,1.08-.23,.73,0,1.38,.24,1.94,.72Zm-.54-3.65l.42,.48-1.45,1.39h-.67l-1.45-1.39,.42-.48,1.37,1.06,1.37-1.06Z"/>
    <path class="cls-5" d="M320.72,202.61c.45,.57,.67,1.38,.67,2.45s-.23,1.83-.68,2.43c-.46,.6-1.08,.89-1.88,.89s-1.44-.29-1.89-.88c-.45-.58-.68-1.4-.68-2.44s.23-1.86,.68-2.44c.46-.58,1.09-.87,1.9-.87s1.44,.28,1.88,.85Zm-2.96,.61c-.25,.4-.37,1.01-.37,1.85,0,1.64,.48,2.46,1.44,2.46s1.44-.82,1.44-2.47c0-.84-.12-1.46-.36-1.85-.24-.39-.6-.59-1.07-.59s-.83,.2-1.08,.59Z"/>
    <path class="cls-5" d="M326.08,201.84l-.18,1.04c-.15-.05-.32-.07-.49-.07-.35,0-.64,.14-.86,.42-.22,.28-.39,.71-.52,1.28v3.71h-1.08v-6.31h.94l.08,1.25c.31-.93,.84-1.39,1.57-1.39,.21,0,.39,.02,.54,.07Z"/>
    <path class="cls-5" d="M331.14,202.25c.28,.33,.43,.79,.43,1.37v4.6h-1.08v-4.46c0-.41-.07-.7-.2-.88-.14-.18-.34-.27-.62-.27-.53,0-1.01,.38-1.44,1.13v4.49h-1.08v-6.31h.94l.08,.94c.49-.73,1.09-1.09,1.8-1.09,.5,0,.9,.17,1.18,.5Z"/>
    <path class="cls-5" d="M340.55,199.97v.89l-3.72,6.42h3.71l-.12,.95h-4.81v-.89l3.74-6.44h-3.37v-.92h4.57Z"/>
    <path class="cls-5" d="M345.81,207.35c.07,.12,.18,.22,.34,.28l-.23,.73c-.31-.05-.56-.14-.73-.29-.18-.14-.3-.36-.37-.66-.41,.64-.98,.96-1.72,.96-.56,0-1-.17-1.33-.52-.33-.35-.49-.81-.49-1.4,0-.67,.22-1.18,.66-1.54,.44-.35,1.07-.53,1.88-.53h.82v-.54c0-.44-.09-.76-.27-.95-.18-.2-.47-.29-.88-.29-.44,0-.95,.11-1.54,.34l-.26-.76c.7-.29,1.36-.43,1.97-.43,1.37,0,2.05,.68,2.05,2.05v2.98c0,.26,.04,.45,.11,.57Zm-1.38-8.69l.46,.86-2.3,1.04-.31-.55,2.16-1.36Zm.2,7.92v-1.49h-.7c-1.04,0-1.56,.44-1.56,1.31,0,.38,.08,.66,.25,.86,.17,.2,.41,.3,.72,.3,.56,0,.99-.33,1.28-.98Z"/>
    <path class="cls-5" d="M348.72,199.24v8.99h-1.08v-8.87l1.08-.12Zm3.32,2.68l-2.14,2.81,2.34,3.5h-1.2l-2.27-3.46,2.14-2.86h1.13Z"/>
    <path class="cls-5" d="M357.21,202.61c.45,.57,.67,1.38,.67,2.45s-.23,1.83-.68,2.43c-.46,.6-1.08,.89-1.88,.89s-1.44-.29-1.89-.88c-.45-.58-.68-1.4-.68-2.44s.23-1.86,.68-2.44c.46-.58,1.09-.87,1.9-.87s1.44,.28,1.88,.85Zm-2.96,.61c-.25,.4-.37,1.01-.37,1.85,0,1.64,.48,2.46,1.44,2.46s1.44-.82,1.44-2.47c0-.84-.12-1.46-.36-1.85-.24-.39-.6-.59-1.07-.59s-.83,.2-1.08,.59Z"/>
    <path class="cls-5" d="M363.72,202.61c.35,.57,.52,1.38,.52,2.44s-.19,1.84-.58,2.44c-.39,.6-.93,.9-1.63,.9-.62,0-1.13-.25-1.51-.76v3l-1.08,.13v-8.84h.95l.06,.85c.43-.67,1-1.01,1.72-1.01s1.21,.28,1.55,.85Zm-.61,2.45c0-.86-.1-1.48-.31-1.87-.2-.39-.51-.58-.93-.58-.28,0-.53,.08-.74,.25-.22,.17-.42,.4-.61,.68v3.19c.33,.52,.75,.78,1.26,.78,.89,0,1.33-.82,1.33-2.46Z"/>
    <path class="cls-5" d="M368.94,201.92c.28,.11,.55,.28,.8,.52l-.48,.65c-.19-.15-.38-.27-.58-.34-.19-.08-.4-.11-.62-.11-.47,0-.84,.2-1.1,.6-.26,.4-.39,1.02-.39,1.87,0,1.58,.5,2.38,1.49,2.38,.22,0,.43-.04,.61-.11,.18-.08,.38-.19,.59-.34l.5,.66c-.51,.46-1.09,.7-1.74,.7-.81,0-1.44-.28-1.9-.84-.46-.56-.69-1.37-.69-2.42,0-.69,.11-1.28,.32-1.79s.51-.89,.9-1.16c.39-.27,.84-.41,1.36-.41,.34,0,.64,.06,.92,.17Zm.43-3.1l.42,.48-1.45,1.39h-.67l-1.45-1.39,.42-.48,1.37,1.06,1.37-1.06Z"/>
    <path class="cls-5" d="M374.88,207.35c.07,.12,.18,.22,.34,.28l-.23,.73c-.31-.05-.56-.14-.73-.29-.18-.14-.3-.36-.37-.66-.41,.64-.98,.96-1.72,.96-.56,0-1-.17-1.33-.52-.33-.35-.49-.81-.49-1.4,0-.67,.22-1.18,.66-1.54,.44-.35,1.07-.53,1.88-.53h.82v-.54c0-.44-.09-.76-.27-.95-.18-.2-.47-.29-.88-.29-.44,0-.95,.11-1.54,.34l-.26-.76c.7-.29,1.36-.43,1.97-.43,1.37,0,2.05,.68,2.05,2.05v2.98c0,.26,.04,.45,.11,.57Zm-1.18-.77v-1.49h-.7c-1.04,0-1.56,.44-1.56,1.31,0,.38,.08,.66,.25,.86,.17,.2,.41,.3,.72,.3,.56,0,.99-.33,1.28-.98Z"/>
    <path class="cls-5" d="M380.72,202.25c.28,.33,.43,.79,.43,1.37v4.6h-1.08v-4.46c0-.41-.07-.7-.2-.88-.14-.18-.34-.27-.62-.27-.53,0-1.01,.38-1.44,1.13v4.49h-1.08v-6.31h.94l.08,.94c.49-.73,1.09-1.09,1.8-1.09,.5,0,.9,.17,1.18,.5Z"/>
    <path class="cls-5" d="M387.12,202.61c.45,.57,.67,1.38,.67,2.45s-.23,1.83-.68,2.43c-.46,.6-1.08,.89-1.88,.89s-1.44-.29-1.89-.88c-.45-.58-.68-1.4-.68-2.44s.23-1.86,.68-2.44c.46-.58,1.09-.87,1.9-.87s1.44,.28,1.88,.85Zm-2.96,.61c-.25,.4-.37,1.01-.37,1.85,0,1.64,.48,2.46,1.44,2.46s1.44-.82,1.44-2.47c0-.84-.12-1.46-.36-1.85-.24-.39-.6-.59-1.07-.59s-.83,.2-1.08,.59Z"/>
    <path class="cls-5" d="M393.57,201.91l-1.88,6.31h-1.3l-1.94-6.31h1.13l1.46,5.4,1.45-5.4h1.08Z"/>
    <path class="cls-5" d="M398.52,207.35c.07,.12,.18,.22,.34,.28l-.23,.73c-.31-.05-.56-.14-.73-.29-.18-.14-.3-.36-.37-.66-.41,.64-.98,.96-1.72,.96-.56,0-1-.17-1.33-.52-.33-.35-.49-.81-.49-1.4,0-.67,.22-1.18,.66-1.54,.44-.35,1.07-.53,1.88-.53h.82v-.54c0-.44-.09-.76-.27-.95-.18-.2-.47-.29-.88-.29-.44,0-.95,.11-1.54,.34l-.26-.76c.7-.29,1.36-.43,1.97-.43,1.37,0,2.05,.68,2.05,2.05v2.98c0,.26,.04,.45,.11,.57Zm-1.38-8.69l.46,.86-2.3,1.04-.31-.55,2.16-1.36Zm.2,7.92v-1.49h-.7c-1.04,0-1.56,.44-1.56,1.31,0,.38,.08,.66,.25,.86,.17,.2,.41,.3,.72,.3,.56,0,.99-.33,1.28-.98Z"/>
  </g>
  <rect class="cls-8" x="91.24" y="67.15" width="269.66" height="20.83"/>
  <g>
    <path class="cls-6" d="M43.66,74.71v7.6h-1.44v-7.6h1.44Z"/>
    <path class="cls-6" d="M49.65,76.8c.29,.31,.43,.75,.43,1.3v4.21h-1.39v-3.99c0-.34-.06-.59-.18-.73-.12-.14-.3-.21-.53-.21s-.46,.08-.65,.23c-.19,.15-.38,.37-.56,.65v4.05h-1.39v-5.82h1.21l.11,.76c.47-.62,1.06-.92,1.75-.92,.52,0,.92,.16,1.2,.47Z"/>
    <path class="cls-6" d="M56.27,76.5l-1.87,5.82h-1.67l-1.91-5.82h1.51l1.23,4.69,1.26-4.69h1.44Z"/>
    <path class="cls-6" d="M61.28,81.28c.07,.11,.18,.19,.33,.25l-.29,.94c-.33-.03-.59-.11-.8-.24-.21-.13-.36-.33-.47-.6-.2,.29-.44,.51-.74,.65-.29,.14-.62,.21-.99,.21-.57,0-1.03-.17-1.36-.5s-.5-.76-.5-1.3c0-.63,.23-1.11,.68-1.45,.45-.33,1.1-.5,1.94-.5h.72v-.33c0-.37-.09-.64-.26-.79-.17-.15-.45-.23-.82-.23-.42,0-.93,.1-1.52,.31l-.33-.96c.72-.28,1.42-.42,2.09-.42,1.47,0,2.21,.67,2.21,2v2.44c0,.23,.03,.39,.1,.5Zm-1.48-.53v-1.18h-.58c-.9,0-1.35,.34-1.35,1.01,0,.28,.07,.49,.21,.65,.14,.15,.34,.23,.61,.23,.47,0,.84-.24,1.11-.72Z"/>
    <path class="cls-6" d="M63.08,82.09c-.25-.26-.38-.63-.38-1.11v-6.82l1.39-.15v6.93c0,.27,.11,.41,.33,.41,.11,0,.22-.02,.33-.06l.29,.99c-.29,.13-.6,.2-.92,.2-.44,0-.79-.13-1.04-.39Z"/>
    <path class="cls-6" d="M67.29,73.8c.16,.17,.24,.37,.24,.61s-.08,.44-.24,.6c-.16,.16-.38,.24-.64,.24s-.46-.08-.63-.24c-.16-.16-.25-.36-.25-.6s.08-.45,.25-.61,.37-.25,.63-.25,.47,.08,.64,.25Zm.07,2.7v5.82h-1.39v-5.82h1.39Z"/>
    <path class="cls-6" d="M73.89,74.16v8.15h-1.23l-.1-.74c-.18,.28-.41,.5-.69,.66-.28,.16-.6,.24-.95,.24-.7,0-1.25-.27-1.62-.83-.38-.55-.57-1.3-.57-2.24,0-.59,.09-1.12,.28-1.59,.19-.47,.46-.83,.81-1.09,.35-.26,.76-.4,1.23-.4,.55,0,1.03,.21,1.45,.63v-2.95l1.39,.15Zm-1.93,7.07c.19-.12,.37-.31,.53-.57v-2.66c-.17-.21-.34-.36-.51-.46s-.37-.15-.59-.15c-.37,0-.66,.17-.88,.5-.21,.33-.32,.84-.32,1.51,0,.72,.09,1.23,.28,1.55,.19,.31,.46,.47,.83,.47,.25,0,.46-.06,.65-.18Z"/>
    <path class="cls-6" d="M76.89,73.8c.16,.17,.24,.37,.24,.61s-.08,.44-.24,.6c-.16,.16-.38,.24-.64,.24s-.46-.08-.63-.24c-.16-.16-.25-.36-.25-.6s.08-.45,.25-.61,.37-.25,.63-.25,.47,.08,.64,.25Zm.07,2.7v5.82h-1.39v-5.82h1.39Z"/>
    <path class="cls-6" d="M81.94,82.04c-.2,.15-.43,.26-.68,.33-.25,.07-.51,.11-.77,.11-.57,0-1-.17-1.29-.49-.29-.32-.44-.79-.44-1.41v-3.07h-.9v-1.01h.9v-1.29l1.39-.17v1.45h1.34l-.14,1.01h-1.2v3.04c0,.29,.05,.49,.15,.62,.1,.12,.25,.19,.46,.19s.44-.07,.69-.21l.49,.9Z"/>
    <path class="cls-6" d="M86.97,81.28c.07,.11,.18,.19,.33,.25l-.29,.94c-.33-.03-.59-.11-.8-.24-.21-.13-.36-.33-.47-.6-.2,.29-.44,.51-.74,.65-.29,.14-.62,.21-.99,.21-.57,0-1.03-.17-1.36-.5s-.5-.76-.5-1.3c0-.63,.23-1.11,.68-1.45,.45-.33,1.1-.5,1.94-.5h.72v-.33c0-.37-.09-.64-.26-.79-.17-.15-.45-.23-.82-.23-.42,0-.93,.1-1.52,.31l-.33-.96c.72-.28,1.42-.42,2.09-.42,1.47,0,2.21,.67,2.21,2v2.44c0,.23,.03,.39,.1,.5Zm-1.48-.53v-1.18h-.58c-.9,0-1.35,.34-1.35,1.01,0,.28,.07,.49,.21,.65,.14,.15,.34,.23,.61,.23,.47,0,.84-.24,1.11-.72Z"/>
  </g>
  <g>
    <path class="cls-7" d="M372.89,77.71c.32,.19,.57,.46,.75,.83,.18,.36,.28,.8,.28,1.3s-.11,.97-.32,1.38c-.21,.41-.51,.73-.9,.96s-.82,.35-1.31,.35c-.91,0-1.58-.32-2.02-.96s-.65-1.51-.65-2.63c0-.82,.12-1.54,.37-2.16,.25-.62,.6-1.1,1.06-1.44,.46-.34,1-.51,1.61-.51s1.15,.16,1.62,.47l-.53,.87c-.34-.2-.69-.3-1.07-.3-.47,0-.84,.21-1.13,.63s-.44,1-.48,1.74c.45-.54,1-.81,1.66-.81,.39,0,.74,.09,1.06,.28Zm-.67,3.33c.19-.29,.28-.68,.28-1.18s-.09-.87-.26-1.08c-.17-.22-.42-.32-.75-.32-.25,0-.49,.07-.71,.2-.22,.14-.42,.32-.6,.56,.01,.8,.12,1.38,.3,1.73,.19,.36,.49,.53,.91,.53,.37,0,.64-.15,.83-.43Z"/>
    <path class="cls-7" d="M379.39,75.81c.45,.66,.68,1.61,.68,2.85s-.23,2.2-.68,2.87c-.45,.66-1.11,1-1.97,1s-1.52-.33-1.97-1c-.45-.66-.68-1.62-.68-2.87s.23-2.19,.68-2.85c.45-.66,1.11-.99,1.97-.99s1.52,.33,1.97,.99Zm-2.89,.71c-.19,.42-.29,1.13-.29,2.14s.09,1.73,.29,2.16c.19,.43,.49,.64,.91,.64s.72-.21,.91-.63c.19-.42,.29-1.14,.29-2.16s-.09-1.73-.29-2.15c-.19-.42-.49-.63-.91-.63s-.72,.21-.91,.63Z"/>
    <path class="cls-6" d="M389.02,74.23v8.13h-.89l-.1-.8c-.19,.29-.43,.52-.71,.69-.29,.17-.61,.25-.96,.25-.69,0-1.23-.27-1.61-.81-.39-.54-.58-1.27-.58-2.19,0-.59,.09-1.12,.28-1.58s.45-.82,.79-1.08,.75-.39,1.21-.39c.59,0,1.11,.24,1.56,.72v-3.04l1.01,.12Zm-1.65,7.24c.22-.14,.43-.36,.64-.64v-2.84c-.19-.25-.39-.44-.61-.57-.22-.13-.46-.19-.73-.19-.45,0-.79,.19-1.04,.56-.25,.37-.37,.93-.37,1.67s.11,1.31,.34,1.67c.23,.37,.55,.55,.98,.55,.31,0,.57-.07,.79-.21Z"/>
    <path class="cls-6" d="M395.08,76.9c.3,.32,.45,.75,.45,1.3v4.16h-1.01v-4.02c0-.41-.08-.7-.23-.87-.15-.17-.38-.25-.68-.25s-.58,.09-.81,.26c-.23,.18-.45,.43-.66,.76v4.11h-1.01v-5.8h.87l.09,.86c.21-.31,.46-.55,.76-.73,.3-.18,.64-.26,1.01-.26,.53,0,.94,.16,1.24,.47Z"/>
    <path class="cls-6" d="M398.94,73.55l.45,.85-2.33,.95-.31-.54,2.19-1.25Zm-.36,3.01v5.8h-1.01v-5.8h1.01Z"/>
  </g>
  <rect class="cls-10" x="91.24" y="96.34" width="229.21" height="20.83"/>
  <g>
    <path class="cls-6" d="M6.33,103.02v1.12l-3.47,5.29h3.51l-.15,1.19H1.18v-1.11l3.54-5.33H1.54v-1.16H6.33Z"/>
    <path class="cls-6" d="M12.05,104.8l-1.87,5.82h-1.67l-1.91-5.82h1.51l1.23,4.69,1.26-4.69h1.44Z"/>
    <path class="cls-6" d="M13.23,110.39c-.25-.26-.38-.63-.38-1.11v-6.82l1.39-.15v6.93c0,.27,.11,.41,.33,.41,.11,0,.22-.02,.33-.06l.29,.99c-.29,.13-.6,.2-.92,.2-.44,0-.79-.13-1.04-.39Z"/>
    <path class="cls-6" d="M20.43,109.58c.07,.11,.18,.19,.33,.25l-.29,.94c-.33-.03-.59-.11-.8-.24-.21-.13-.36-.33-.47-.6-.2,.29-.44,.51-.74,.65-.29,.14-.62,.21-.99,.21-.57,0-1.03-.17-1.36-.5s-.5-.76-.5-1.3c0-.63,.23-1.11,.68-1.45,.45-.33,1.1-.5,1.94-.5h.72v-.33c0-.37-.09-.64-.26-.79-.17-.15-.45-.23-.82-.23-.42,0-.93,.1-1.52,.31l-.33-.96c.72-.28,1.42-.42,2.09-.42,1.47,0,2.21,.67,2.21,2v2.44c0,.23,.03,.39,.1,.5Zm-1.48-7.98l.57,1.1-2.46,.99-.39-.71,2.29-1.38Zm0,7.45v-1.18h-.58c-.9,0-1.35,.34-1.35,1.01,0,.28,.07,.49,.21,.65,.14,.15,.34,.23,.61,.23,.47,0,.84-.24,1.11-.72Z"/>
    <path class="cls-6" d="M25.77,105.33l-.54,.83c-.49-.32-.98-.47-1.45-.47-.28,0-.49,.05-.64,.16-.15,.11-.23,.25-.23,.42,0,.13,.03,.24,.1,.33s.18,.17,.35,.25c.17,.08,.42,.16,.76,.26,.62,.17,1.09,.39,1.39,.67,.3,.28,.45,.67,.45,1.17,0,.58-.23,1.03-.7,1.36-.46,.33-1.04,.49-1.73,.49-.47,0-.9-.07-1.29-.22-.39-.15-.72-.35-1.01-.6l.7-.79c.5,.38,1.02,.57,1.57,.57,.31,0,.56-.06,.75-.19,.18-.12,.28-.3,.28-.52,0-.17-.03-.3-.1-.4-.07-.1-.19-.19-.37-.26s-.46-.17-.83-.28c-.59-.16-1.02-.39-1.3-.68-.28-.29-.41-.65-.41-1.08,0-.32,.09-.61,.28-.87,.19-.26,.45-.46,.78-.6,.34-.15,.72-.22,1.16-.22,.78,0,1.46,.23,2.05,.69Zm-.6-3.51l.53,.62-1.51,1.38h-.87l-1.51-1.38,.53-.62,1.42,.97,1.42-.97Z"/>
    <path class="cls-6" d="M30.38,110.34c-.2,.15-.43,.26-.68,.33-.25,.07-.51,.11-.77,.11-.57,0-1-.17-1.29-.49-.29-.32-.44-.79-.44-1.41v-3.07h-.9v-1.01h.9v-1.29l1.39-.17v1.45h1.34l-.14,1.01h-1.2v3.04c0,.29,.05,.49,.15,.62,.1,.12,.25,.19,.46,.19s.44-.07,.69-.21l.49,.9Z"/>
    <path class="cls-6" d="M35.44,105.1c.29,.31,.43,.75,.43,1.3v4.21h-1.39v-3.99c0-.34-.06-.59-.18-.73-.12-.14-.3-.21-.53-.21s-.46,.08-.65,.23c-.19,.15-.38,.37-.56,.65v4.05h-1.39v-5.82h1.21l.11,.76c.47-.62,1.06-.92,1.75-.92,.52,0,.92,.16,1.2,.47Z"/>
    <path class="cls-6" d="M39.02,101.6l.57,1.1-2.46,.99-.39-.71,2.29-1.38Zm-.13,3.2v5.82h-1.39v-5.82h1.39Z"/>
    <path class="cls-6" d="M47.88,105.44c.35,.54,.52,1.29,.52,2.26,0,.6-.09,1.13-.27,1.6-.18,.47-.44,.83-.78,1.09s-.75,.4-1.23,.4c-.61,0-1.09-.21-1.45-.64v2.72l-1.39,.15v-8.22h1.22l.08,.71c.22-.29,.48-.51,.77-.66,.29-.15,.6-.22,.92-.22,.73,0,1.26,.27,1.61,.8Zm-.94,2.27c0-.71-.09-1.22-.27-1.54-.18-.31-.45-.47-.82-.47-.23,0-.45,.07-.65,.21s-.38,.34-.52,.58v2.62c.27,.4,.62,.6,1.06,.6,.81,0,1.21-.67,1.21-2Z"/>
    <path class="cls-6" d="M54.12,105.45c.48,.55,.71,1.3,.71,2.25,0,.61-.11,1.15-.33,1.61-.22,.47-.53,.83-.94,1.08-.41,.26-.89,.39-1.45,.39-.85,0-1.51-.27-1.99-.82-.48-.55-.72-1.3-.72-2.26,0-.61,.11-1.14,.33-1.61s.53-.82,.94-1.08c.41-.26,.89-.38,1.45-.38,.85,0,1.51,.27,1.99,.82Zm-3.24,2.25c0,.69,.1,1.2,.31,1.52,.21,.33,.52,.49,.93,.49s.72-.17,.93-.5,.31-.84,.31-1.52-.1-1.19-.31-1.51c-.21-.33-.51-.49-.92-.49-.83,0-1.25,.67-1.25,2Z"/>
    <path class="cls-6" d="M63.36,105.11c.28,.32,.41,.75,.41,1.29v4.21h-1.39v-3.99c0-.62-.21-.94-.63-.94-.23,0-.42,.07-.58,.21s-.33,.36-.51,.67v4.05h-1.39v-3.99c0-.62-.21-.94-.63-.94-.23,0-.43,.07-.59,.21-.16,.14-.33,.36-.51,.67v4.05h-1.39v-5.82h1.21l.11,.76c.44-.62,.99-.92,1.67-.92,.33,0,.62,.09,.87,.26,.24,.17,.42,.41,.53,.72,.23-.32,.49-.56,.77-.73,.28-.17,.6-.25,.96-.25,.46,0,.83,.16,1.11,.48Z"/>
    <path class="cls-6" d="M70,110.62h-1.21l-.08-.81c-.21,.33-.46,.58-.75,.74s-.63,.24-1.02,.24c-.52,0-.91-.16-1.19-.48s-.42-.76-.42-1.33v-4.18h1.39v4c0,.33,.06,.56,.17,.7s.29,.21,.54,.21c.44,0,.83-.27,1.17-.83v-4.09h1.39v5.82Zm-1.33-9c.25,.25,.38,.57,.38,.94s-.13,.68-.39,.94c-.26,.26-.59,.38-1,.38s-.75-.13-1.01-.38-.39-.57-.39-.94,.13-.69,.39-.94,.59-.38,1.01-.38,.75,.13,1,.38Zm-1.39,.51c-.09,.1-.14,.25-.14,.43s.05,.32,.14,.42c.09,.1,.22,.15,.39,.15s.29-.05,.38-.15c.09-.1,.14-.24,.14-.42s-.05-.33-.14-.43c-.09-.1-.22-.15-.38-.15s-.3,.05-.39,.15Z"/>
    <path class="cls-6" d="M75.02,104.8c.3,.11,.59,.28,.85,.52l-.62,.85c-.2-.15-.38-.25-.57-.32-.18-.07-.38-.1-.6-.1-.86,0-1.3,.66-1.3,1.99,0,.67,.11,1.16,.34,1.46,.22,.3,.54,.45,.96,.45,.2,0,.39-.03,.56-.1,.17-.07,.37-.17,.6-.32l.62,.89c-.54,.45-1.17,.67-1.86,.67-.55,0-1.03-.12-1.44-.37s-.72-.6-.94-1.05-.33-.99-.33-1.61,.11-1.16,.33-1.63c.22-.47,.53-.84,.94-1.1s.88-.39,1.43-.39c.38,0,.72,.05,1.02,.17Z"/>
    <path class="cls-6" d="M78.28,102.31v8.31h-1.39v-8.15l1.39-.15Zm3.45,2.49l-1.92,2.56,2.1,3.26h-1.6l-1.98-3.18,1.93-2.64h1.47Z"/>
    <path class="cls-6" d="M85.49,110.64c-.23,.72-.58,1.28-1.06,1.68-.47,.4-1.12,.63-1.94,.7l-.14-1.02c.38-.06,.68-.14,.91-.25s.41-.25,.55-.42c.14-.18,.26-.41,.38-.7h-.48l-1.83-5.82h1.48l1.25,4.88,1.31-4.88h1.44l-1.87,5.84Z"/>
  </g>
  <g>
    <path class="cls-7" d="M332.89,105.2h-2.77v1.84c.37-.18,.74-.27,1.12-.27,.41,0,.78,.1,1.1,.29,.32,.19,.57,.47,.75,.82s.27,.78,.27,1.28-.11,.95-.34,1.34-.55,.69-.97,.91c-.42,.22-.9,.32-1.45,.32-.49,0-.93-.09-1.3-.27s-.72-.44-1.03-.78l.8-.75c.43,.47,.92,.7,1.5,.7,.42,0,.75-.13,.98-.39,.24-.26,.36-.62,.36-1.1,0-.92-.4-1.38-1.19-1.38-.17,0-.33,.02-.47,.06-.15,.04-.31,.1-.48,.19h-1v-3.87h4.29l-.17,1.04Z"/>
    <path class="cls-7" d="M337.09,104.15v7.4h-1.39v-5.98l-1.65,1-.62-.95,2.41-1.47h1.24Z"/>
    <path class="cls-6" d="M346.42,103.42v8.13h-.89l-.1-.8c-.19,.29-.43,.52-.71,.69-.29,.17-.61,.25-.96,.25-.69,0-1.23-.27-1.61-.81-.39-.54-.58-1.27-.58-2.19,0-.59,.09-1.12,.28-1.58s.45-.82,.79-1.08,.75-.39,1.21-.39c.59,0,1.11,.24,1.56,.72v-3.04l1.01,.12Zm-1.65,7.24c.22-.14,.43-.36,.64-.64v-2.84c-.19-.25-.39-.44-.61-.57-.22-.13-.46-.19-.73-.19-.45,0-.79,.19-1.04,.56-.25,.37-.37,.93-.37,1.67s.11,1.31,.34,1.67c.23,.37,.55,.55,.98,.55,.31,0,.57-.07,.79-.21Z"/>
    <path class="cls-6" d="M352.47,106.1c.3,.32,.45,.75,.45,1.3v4.16h-1.01v-4.02c0-.41-.08-.7-.23-.87-.15-.17-.38-.25-.68-.25s-.58,.09-.81,.26c-.23,.18-.45,.43-.66,.76v4.11h-1.01v-5.8h.87l.09,.86c.21-.31,.46-.55,.76-.73,.3-.18,.64-.26,1.01-.26,.53,0,.94,.16,1.24,.47Z"/>
    <path class="cls-6" d="M356.33,102.74l.45,.85-2.33,.95-.31-.54,2.19-1.25Zm-.36,3.01v5.8h-1.01v-5.8h1.01Z"/>
  </g>
  <rect class="cls-11" x="91.24" y="125.54" width="242.69" height="20.83"/>
  <g>
    <path class="cls-6" d="M37.42,134.05c.53,.4,.8,1.01,.8,1.81s-.27,1.48-.81,1.9c-.54,.42-1.25,.63-2.15,.63h-.88v2.65h-1.44v-7.6h2.22c.97,0,1.71,.2,2.25,.6Zm-1.09,2.93c.26-.22,.39-.59,.39-1.12,0-.9-.52-1.35-1.56-1.35h-.77v2.79h.77c.52,0,.9-.11,1.17-.32Z"/>
    <path class="cls-6" d="M42.55,135.15l-.24,1.36c-.17-.04-.34-.07-.51-.07-.34,0-.61,.12-.81,.37-.2,.25-.35,.62-.47,1.13v3.1h-1.39v-5.82h1.21l.13,1.14c.14-.42,.34-.74,.6-.96,.26-.22,.56-.34,.9-.34,.21,0,.4,.03,.58,.08Z"/>
    <path class="cls-6" d="M48.02,141.05h-1.21l-.08-.81c-.21,.33-.46,.58-.75,.74s-.63,.24-1.02,.24c-.52,0-.91-.16-1.19-.48s-.42-.76-.42-1.33v-4.18h1.39v4c0,.33,.06,.56,.17,.7s.29,.21,.54,.21c.44,0,.83-.27,1.17-.83v-4.09h1.39v5.82Zm-1.33-9c.25,.25,.38,.57,.38,.94s-.13,.68-.39,.94c-.26,.26-.59,.38-1,.38s-.75-.13-1.01-.38-.39-.57-.39-.94,.13-.69,.39-.94,.59-.38,1.01-.38,.75,.13,1,.38Zm-1.39,.51c-.09,.1-.14,.25-.14,.43s.05,.32,.14,.42c.09,.1,.22,.15,.39,.15s.29-.05,.38-.15c.09-.1,.14-.24,.14-.42s-.05-.33-.14-.43c-.09-.1-.22-.15-.38-.15s-.3,.05-.39,.15Z"/>
    <path class="cls-6" d="M51.1,132.74v8.31h-1.39v-8.15l1.39-.15Zm3.45,2.49l-1.92,2.56,2.1,3.26h-1.6l-1.98-3.18,1.93-2.64h1.47Z"/>
    <path class="cls-6" d="M59.72,140.01c.07,.11,.18,.19,.33,.25l-.29,.94c-.33-.03-.59-.11-.8-.24-.21-.13-.36-.33-.47-.6-.2,.29-.44,.51-.74,.65-.29,.14-.62,.21-.99,.21-.57,0-1.03-.17-1.36-.5s-.5-.76-.5-1.3c0-.63,.23-1.11,.68-1.45,.45-.33,1.1-.5,1.94-.5h.72v-.33c0-.37-.09-.64-.26-.79-.17-.15-.45-.23-.82-.23-.42,0-.93,.1-1.52,.31l-.33-.96c.72-.28,1.42-.42,2.09-.42,1.47,0,2.21,.67,2.21,2v2.44c0,.23,.03,.39,.1,.5Zm-1.48-.53v-1.18h-.58c-.9,0-1.35,.34-1.35,1.01,0,.28,.07,.49,.21,.65,.14,.15,.34,.23,.61,.23,.47,0,.84-.24,1.11-.72Z"/>
    <path class="cls-6" d="M65.05,135.23v1.01l-2.79,3.71h2.84l-.14,1.1h-4.3v-1.01l2.8-3.71h-2.56v-1.1h4.15Z"/>
    <path class="cls-6" d="M73.59,133.74c.49,.31,.87,.76,1.14,1.35,.26,.59,.4,1.31,.4,2.15s-.13,1.54-.4,2.13c-.27,.59-.65,1.05-1.14,1.36-.49,.32-1.08,.47-1.74,.47s-1.26-.15-1.75-.46c-.49-.31-.88-.76-1.14-1.35-.27-.59-.4-1.31-.4-2.15s.13-1.53,.4-2.13,.65-1.05,1.15-1.37c.5-.32,1.08-.47,1.75-.47s1.26,.15,1.75,.46Zm-3.08,1.34c-.3,.46-.46,1.18-.46,2.17,0,1.9,.59,2.85,1.79,2.85,.58,0,1.02-.23,1.32-.68,.3-.45,.45-1.18,.45-2.18s-.15-1.71-.45-2.17c-.3-.45-.74-.68-1.32-.68s-1.02,.23-1.33,.69Z"/>
    <path class="cls-6" d="M80.73,133.44v1.12l-3.47,5.29h3.51l-.15,1.19h-5.03v-1.11l3.54-5.33h-3.18v-1.16h4.79Z"/>
    <path class="cls-6" d="M86.49,134.05c.53,.4,.8,1.01,.8,1.81s-.27,1.48-.81,1.9c-.54,.42-1.25,.63-2.15,.63h-.88v2.65h-1.44v-7.6h2.22c.97,0,1.71,.2,2.25,.6Zm-1.09,2.93c.26-.22,.39-.59,.39-1.12,0-.9-.52-1.35-1.56-1.35h-.77v2.79h.77c.52,0,.9-.11,1.17-.32Z"/>
  </g>
  <g>
    <path class="cls-7" d="M346.37,134.39h-2.77v1.84c.37-.18,.74-.27,1.12-.27,.41,0,.78,.1,1.1,.29,.32,.19,.57,.47,.75,.82s.27,.78,.27,1.28-.11,.95-.34,1.34-.55,.69-.97,.91c-.42,.22-.9,.32-1.45,.32-.49,0-.93-.09-1.3-.27s-.72-.44-1.03-.78l.8-.75c.43,.47,.92,.7,1.5,.7,.42,0,.75-.13,.98-.39,.24-.26,.36-.62,.36-1.1,0-.92-.4-1.38-1.19-1.38-.17,0-.33,.02-.47,.06-.15,.04-.31,.1-.48,.19h-1v-3.87h4.29l-.17,1.04Z"/>
    <path class="cls-7" d="M353.04,137.98v1.08h-.89v1.69h-1.38v-1.69h-3.15v-.97l2.16-4.88,1.2,.45-1.89,4.32h1.69l.14-1.86h1.22v1.86h.89Z"/>
    <path class="cls-6" d="M361.59,132.62v8.13h-.89l-.1-.8c-.19,.29-.43,.52-.71,.69-.29,.17-.61,.25-.96,.25-.69,0-1.23-.27-1.61-.81-.39-.54-.58-1.27-.58-2.19,0-.59,.09-1.12,.28-1.58s.45-.82,.79-1.08,.75-.39,1.21-.39c.59,0,1.11,.24,1.56,.72v-3.04l1.01,.12Zm-1.65,7.24c.22-.14,.43-.36,.64-.64v-2.84c-.19-.25-.39-.44-.61-.57-.22-.13-.46-.19-.73-.19-.45,0-.79,.19-1.04,.56-.25,.37-.37,.93-.37,1.67s.11,1.31,.34,1.67c.23,.37,.55,.55,.98,.55,.31,0,.57-.07,.79-.21Z"/>
    <path class="cls-6" d="M367.65,135.29c.3,.32,.45,.75,.45,1.3v4.16h-1.01v-4.02c0-.41-.08-.7-.23-.87-.15-.17-.38-.25-.68-.25s-.58,.09-.81,.26c-.23,.18-.45,.43-.66,.76v4.11h-1.01v-5.8h.87l.09,.86c.21-.31,.46-.55,.76-.73,.3-.18,.64-.26,1.01-.26,.53,0,.94,.16,1.24,.47Z"/>
    <path class="cls-6" d="M371.51,131.94l.45,.85-2.33,.95-.31-.54,2.19-1.25Zm-.36,3.01v5.8h-1.01v-5.8h1.01Z"/>
  </g>
  <rect class="cls-9" x="91.24" y="154.73" width="247.18" height="20.83"/>
  <g>
    <path class="cls-6" d="M6.44,161.81c.53,.4,.8,1.01,.8,1.81s-.27,1.48-.81,1.9c-.54,.42-1.25,.63-2.15,.63h-.88v2.65H1.97v-7.6h2.22c.97,0,1.71,.2,2.25,.6Zm-1.09,2.93c.26-.22,.39-.59,.39-1.12,0-.9-.52-1.35-1.56-1.35h-.77v2.79h.77c.52,0,.9-.11,1.17-.32Z"/>
    <path class="cls-6" d="M11.29,160.01l.53,.62-1.51,1.38h-.87l-1.51-1.38,.53-.62,1.42,.97,1.42-.97Zm.27,2.9l-.24,1.36c-.17-.04-.34-.07-.51-.07-.34,0-.61,.12-.81,.37-.2,.25-.35,.62-.47,1.13v3.1h-1.39v-5.82h1.21l.13,1.14c.14-.42,.34-.74,.6-.96,.26-.22,.56-.34,.9-.34,.21,0,.4,.03,.58,.08Z"/>
    <path class="cls-6" d="M13.96,159.79l.57,1.1-2.46,.99-.39-.71,2.29-1.38Zm-.13,3.2v5.82h-1.39v-5.82h1.39Z"/>
    <path class="cls-6" d="M19.37,163.52l-.54,.83c-.49-.32-.98-.47-1.45-.47-.28,0-.49,.05-.64,.16-.15,.11-.23,.25-.23,.42,0,.13,.03,.24,.1,.33s.18,.17,.35,.25c.17,.08,.42,.16,.76,.26,.62,.17,1.09,.39,1.39,.67,.3,.28,.45,.67,.45,1.17,0,.58-.23,1.03-.7,1.36-.46,.33-1.04,.49-1.73,.49-.47,0-.9-.07-1.29-.22-.39-.15-.72-.35-1.01-.6l.7-.79c.5,.38,1.02,.57,1.57,.57,.31,0,.56-.06,.75-.19,.18-.12,.28-.3,.28-.52,0-.17-.03-.3-.1-.4-.07-.1-.19-.19-.37-.26s-.46-.17-.83-.28c-.59-.16-1.02-.39-1.3-.68-.28-.29-.41-.65-.41-1.08,0-.32,.09-.61,.28-.87,.19-.26,.45-.46,.78-.6,.34-.15,.72-.22,1.16-.22,.78,0,1.46,.23,2.05,.69Z"/>
    <path class="cls-6" d="M25.28,163.63c.35,.54,.52,1.29,.52,2.26,0,.6-.09,1.13-.27,1.6-.18,.47-.44,.83-.78,1.09s-.75,.4-1.23,.4c-.61,0-1.09-.21-1.45-.64v2.72l-1.39,.15v-8.22h1.22l.08,.71c.22-.29,.48-.51,.77-.66,.29-.15,.6-.22,.92-.22,.73,0,1.26,.27,1.61,.8Zm-.94,2.27c0-.71-.09-1.22-.27-1.54-.18-.31-.45-.47-.82-.47-.23,0-.45,.07-.65,.21s-.38,.34-.52,.58v2.62c.27,.4,.62,.6,1.06,.6,.81,0,1.21-.67,1.21-2Z"/>
    <path class="cls-6" d="M31.87,166.33h-3.62c.04,.56,.19,.97,.44,1.21,.25,.24,.57,.36,.98,.36,.25,0,.49-.04,.72-.13,.23-.08,.46-.21,.72-.39l.58,.8c-.64,.52-1.35,.78-2.13,.78-.88,0-1.56-.27-2.03-.81s-.71-1.28-.71-2.22c0-.59,.1-1.13,.3-1.6,.2-.47,.5-.84,.88-1.11s.84-.4,1.37-.4c.81,0,1.43,.26,1.87,.78s.66,1.24,.66,2.16c0,.07-.01,.26-.03,.57Zm-1.06-6.32l.53,.62-1.51,1.38h-.87l-1.51-1.38,.53-.62,1.42,.97,1.42-.97Zm-.29,5.35c0-1.02-.37-1.53-1.12-1.53-.34,0-.61,.13-.8,.38s-.31,.66-.34,1.22h2.26v-.07Z"/>
    <path class="cls-6" d="M37.72,162.99l-1.87,5.82h-1.67l-1.91-5.82h1.51l1.23,4.69,1.26-4.69h1.44Z"/>
    <path class="cls-6" d="M43.21,166.33h-3.62c.04,.56,.19,.97,.44,1.21,.25,.24,.57,.36,.98,.36,.25,0,.49-.04,.72-.13,.23-.08,.46-.21,.72-.39l.58,.8c-.64,.52-1.35,.78-2.13,.78-.88,0-1.56-.27-2.03-.81s-.71-1.28-.71-2.22c0-.59,.1-1.13,.3-1.6,.2-.47,.5-.84,.88-1.11s.84-.4,1.37-.4c.81,0,1.43,.26,1.87,.78s.66,1.24,.66,2.16c0,.07-.01,.26-.03,.57Zm-1.06-6.32l.53,.62-1.51,1.38h-.87l-1.51-1.38,.53-.62,1.42,.97,1.42-.97Zm-.29,5.35c0-1.02-.37-1.53-1.12-1.53-.34,0-.61,.13-.8,.38s-.31,.66-.34,1.22h2.26v-.07Z"/>
    <path class="cls-6" d="M45.89,160.5v8.31h-1.39v-8.15l1.39-.15Zm3.45,2.49l-1.92,2.56,2.1,3.26h-1.6l-1.98-3.18,1.93-2.64h1.47Z"/>
    <path class="cls-6" d="M57.31,163.29c.29,.31,.43,.75,.43,1.3v4.21h-1.39v-3.99c0-.34-.06-.59-.18-.73-.12-.14-.3-.21-.53-.21s-.46,.08-.65,.23c-.19,.15-.38,.37-.56,.65v4.05h-1.39v-5.82h1.21l.11,.76c.47-.62,1.06-.92,1.75-.92,.52,0,.92,.16,1.2,.47Z"/>
    <path class="cls-6" d="M63.72,167.77c.07,.11,.18,.19,.33,.25l-.29,.94c-.33-.03-.59-.11-.8-.24-.21-.13-.36-.33-.47-.6-.2,.29-.44,.51-.74,.65-.29,.14-.62,.21-.99,.21-.57,0-1.03-.17-1.36-.5s-.5-.76-.5-1.3c0-.63,.23-1.11,.68-1.45,.45-.33,1.1-.5,1.94-.5h.72v-.33c0-.37-.09-.64-.26-.79-.17-.15-.45-.23-.82-.23-.42,0-.93,.1-1.52,.31l-.33-.96c.72-.28,1.42-.42,2.09-.42,1.47,0,2.21,.67,2.21,2v2.44c0,.23,.03,.39,.1,.5Zm-1.48-.53v-1.18h-.58c-.9,0-1.35,.34-1.35,1.01,0,.28,.07,.49,.21,.65,.14,.15,.34,.23,.61,.23,.47,0,.84-.24,1.11-.72Z"/>
    <path class="cls-6" d="M72.62,163.63c.35,.54,.52,1.29,.52,2.26,0,.6-.09,1.13-.27,1.6-.18,.47-.44,.83-.78,1.09s-.75,.4-1.23,.4c-.61,0-1.09-.21-1.45-.64v2.72l-1.39,.15v-8.22h1.22l.08,.71c.22-.29,.48-.51,.77-.66,.29-.15,.6-.22,.92-.22,.73,0,1.26,.27,1.61,.8Zm-.94,2.27c0-.71-.09-1.22-.27-1.54-.18-.31-.45-.47-.82-.47-.23,0-.45,.07-.65,.21s-.38,.34-.52,.58v2.62c.27,.4,.62,.6,1.06,.6,.81,0,1.21-.67,1.21-2Z"/>
    <path class="cls-6" d="M79.21,166.33h-3.62c.04,.56,.19,.97,.44,1.21,.25,.24,.57,.36,.98,.36,.25,0,.49-.04,.72-.13,.23-.08,.46-.21,.72-.39l.58,.8c-.64,.52-1.35,.78-2.13,.78-.88,0-1.56-.27-2.03-.81s-.71-1.28-.71-2.22c0-.59,.1-1.13,.3-1.6,.2-.47,.5-.84,.88-1.11s.84-.4,1.37-.4c.81,0,1.43,.26,1.87,.78s.66,1.24,.66,2.16c0,.07-.01,.26-.03,.57Zm-1.64-6.54l.57,1.1-2.46,.99-.39-.71,2.29-1.38Zm.29,5.57c0-1.02-.37-1.53-1.12-1.53-.34,0-.61,.13-.8,.38s-.31,.66-.34,1.22h2.26v-.07Z"/>
    <path class="cls-6" d="M83.83,162.99c.3,.11,.59,.28,.85,.52l-.62,.85c-.2-.15-.38-.25-.57-.32-.18-.07-.38-.1-.6-.1-.86,0-1.3,.66-1.3,1.99,0,.67,.11,1.16,.34,1.46,.22,.3,.54,.45,.96,.45,.2,0,.39-.03,.56-.1,.17-.07,.37-.17,.6-.32l.62,.89c-.54,.45-1.17,.67-1.86,.67-.55,0-1.03-.12-1.44-.37s-.72-.6-.94-1.05-.33-.99-.33-1.61,.11-1.16,.33-1.63c.22-.47,.53-.84,.94-1.1s.88-.39,1.43-.39c.38,0,.72,.05,1.02,.17Zm.4-2.98l.53,.62-1.51,1.38h-.87l-1.51-1.38,.53-.62,1.42,.97,1.42-.97Z"/>
    <path class="cls-6" d="M87.02,160.29c.16,.17,.24,.37,.24,.61s-.08,.44-.24,.6c-.16,.16-.38,.24-.64,.24s-.46-.08-.63-.24c-.16-.16-.25-.36-.25-.6s.08-.45,.25-.61,.37-.25,.63-.25,.47,.08,.64,.25Zm.07,2.7v5.82h-1.39v-5.82h1.39Z"/>
  </g>
  <g>
    <path class="cls-7" d="M350.86,163.59h-2.77v1.84c.37-.18,.74-.27,1.12-.27,.41,0,.78,.1,1.1,.29,.32,.19,.57,.47,.75,.82s.27,.78,.27,1.28-.11,.95-.34,1.34-.55,.69-.97,.91c-.42,.22-.9,.32-1.45,.32-.49,0-.93-.09-1.3-.27s-.72-.44-1.03-.78l.8-.75c.43,.47,.92,.7,1.5,.7,.42,0,.75-.13,.98-.39,.24-.26,.36-.62,.36-1.1,0-.92-.4-1.38-1.19-1.38-.17,0-.33,.02-.47,.06-.15,.04-.31,.1-.48,.19h-1v-3.87h4.29l-.17,1.04Z"/>
    <path class="cls-7" d="M356.53,163.59h-2.77v1.84c.37-.18,.74-.27,1.12-.27,.41,0,.78,.1,1.1,.29,.32,.19,.57,.47,.75,.82s.27,.78,.27,1.28-.11,.95-.34,1.34-.55,.69-.97,.91c-.42,.22-.9,.32-1.45,.32-.49,0-.93-.09-1.3-.27s-.72-.44-1.03-.78l.8-.75c.43,.47,.92,.7,1.5,.7,.42,0,.75-.13,.98-.39,.24-.26,.36-.62,.36-1.1,0-.92-.4-1.38-1.19-1.38-.17,0-.33,.02-.47,.06-.15,.04-.31,.1-.48,.19h-1v-3.87h4.29l-.17,1.04Z"/>
    <path class="cls-6" d="M365.7,161.81v8.13h-.89l-.1-.8c-.19,.29-.43,.52-.71,.69-.29,.17-.61,.25-.96,.25-.69,0-1.23-.27-1.61-.81-.39-.54-.58-1.27-.58-2.19,0-.59,.09-1.12,.28-1.58s.45-.82,.79-1.08,.75-.39,1.21-.39c.59,0,1.11,.24,1.56,.72v-3.04l1.01,.12Zm-1.65,7.24c.22-.14,.43-.36,.64-.64v-2.84c-.19-.25-.39-.44-.61-.57-.22-.13-.46-.19-.73-.19-.45,0-.79,.19-1.04,.56-.25,.37-.37,.93-.37,1.67s.11,1.31,.34,1.67c.23,.37,.55,.55,.98,.55,.31,0,.57-.07,.79-.21Z"/>
    <path class="cls-6" d="M371.76,164.49c.3,.32,.45,.75,.45,1.3v4.16h-1.01v-4.02c0-.41-.08-.7-.23-.87-.15-.17-.38-.25-.68-.25s-.58,.09-.81,.26c-.23,.18-.45,.43-.66,.76v4.11h-1.01v-5.8h.87l.09,.86c.21-.31,.46-.55,.76-.73,.3-.18,.64-.26,1.01-.26,.53,0,.94,.16,1.24,.47Z"/>
    <path class="cls-6" d="M375.61,161.13l.45,.85-2.33,.95-.31-.54,2.19-1.25Zm-.36,3.01v5.8h-1.01v-5.8h1.01Z"/>
  </g>
</svg>